G04*
G04 #@! TF.GenerationSoftware,Altium Limited,Altium Designer,18.0.7 (293)*
G04*
G04 Layer_Color=255*
%FSLAX44Y44*%
%MOMM*%
G71*
G01*
G75*
%ADD18R,2.7940X3.8100*%
%ADD19R,1.3970X1.2700*%
%ADD20R,2.4000X3.3000*%
%ADD21R,2.4000X1.0000*%
%ADD42C,4.0000*%
%ADD43C,2.5000*%
%ADD44R,1.7780X2.5400*%
%ADD45O,1.7780X2.5400*%
%ADD46R,1.6510X2.5400*%
%ADD47O,1.6510X2.5400*%
G04:AMPARAMS|DCode=48|XSize=1.778mm|YSize=2.286mm|CornerRadius=0mm|HoleSize=0mm|Usage=FLASHONLY|Rotation=180.000|XOffset=0mm|YOffset=0mm|HoleType=Round|Shape=Octagon|*
%AMOCTAGOND48*
4,1,8,0.4445,-1.1430,-0.4445,-1.1430,-0.8890,-0.6985,-0.8890,0.6985,-0.4445,1.1430,0.4445,1.1430,0.8890,0.6985,0.8890,-0.6985,0.4445,-1.1430,0.0*
%
%ADD48OCTAGOND48*%

%ADD49C,2.5400*%
%ADD50O,1.6510X1.9050*%
%ADD51R,4.0640X2.5400*%
%ADD52R,2.5400X4.0640*%
%ADD53O,2.5400X3.0480*%
%ADD54O,2.0320X2.5400*%
%ADD55R,2.0320X2.5400*%
D18*
X420700Y564621D02*
D03*
X344500D02*
D03*
X762330D02*
D03*
X686130D02*
D03*
D19*
X211420Y443717D02*
D03*
Y466577D02*
D03*
X389220Y443717D02*
D03*
Y466577D02*
D03*
D20*
X679840Y452607D02*
D03*
D21*
X621840Y429607D02*
D03*
Y452607D02*
D03*
Y475607D02*
D03*
D42*
X113030Y113030D02*
D03*
Y433070D02*
D03*
X50000Y950000D02*
D03*
X950000D02*
D03*
X50000Y50000D02*
D03*
X951230Y51310D02*
D03*
D43*
X281280Y575797D02*
D03*
X234280D02*
D03*
X187280D02*
D03*
D44*
X862930Y707242D02*
D03*
X881578Y563097D02*
D03*
X748228Y462818D02*
D03*
X535270Y456468D02*
D03*
X526380Y569447D02*
D03*
D45*
X901030Y707242D02*
D03*
X906978Y563097D02*
D03*
X773628Y462818D02*
D03*
X560670Y456468D02*
D03*
X551780Y569447D02*
D03*
D46*
X245710Y457738D02*
D03*
X423510D02*
D03*
D47*
X273650D02*
D03*
X448910D02*
D03*
D48*
X701640Y718037D02*
D03*
X727040D02*
D03*
X752440D02*
D03*
D49*
X727040Y667237D02*
D03*
D50*
X886440Y316497D02*
D03*
X860786D02*
D03*
X835894D02*
D03*
X810240D02*
D03*
X767060D02*
D03*
X741406D02*
D03*
X716514D02*
D03*
X690860D02*
D03*
D51*
X155540Y657555D02*
D03*
D52*
X117440Y708355D02*
D03*
X180940D02*
D03*
D53*
X408270Y718672D02*
D03*
X293970D02*
D03*
X243170D02*
D03*
X459070D02*
D03*
D54*
X594960Y699622D02*
D03*
D55*
X544160D02*
D03*
M02*
