G04*
G04 #@! TF.GenerationSoftware,Altium Limited,Altium Designer,18.0.7 (293)*
G04*
G04 Layer_Color=32896*
%FSLAX44Y44*%
%MOMM*%
G71*
G01*
G75*
%ADD14C,0.3000*%
D14*
X684530Y81464D02*
Y61470D01*
X674533D01*
X671201Y64802D01*
Y68134D01*
X674533Y71467D01*
X684530D01*
X674533D01*
X671201Y74799D01*
Y78131D01*
X674533Y81464D01*
X684530D01*
X654540D02*
X661204D01*
X664536Y78131D01*
Y64802D01*
X661204Y61470D01*
X654540D01*
X651207Y64802D01*
Y78131D01*
X654540Y81464D01*
X644543Y61470D02*
Y74799D01*
X637878Y81464D01*
X631214Y74799D01*
Y61470D01*
Y71467D01*
X644543D01*
X624549Y61470D02*
Y81464D01*
X614552D01*
X611220Y78131D01*
Y71467D01*
X614552Y68134D01*
X624549D01*
X617885D02*
X611220Y61470D01*
X604556Y81464D02*
Y61470D01*
X594559D01*
X591227Y64802D01*
Y78131D01*
X594559Y81464D01*
X604556D01*
X584562Y58138D02*
X571233D01*
X564569Y78131D02*
X561236Y81464D01*
X554572D01*
X551240Y78131D01*
Y64802D01*
X554572Y61470D01*
X561236D01*
X564569Y64802D01*
Y78131D01*
X534578Y61470D02*
Y81464D01*
X544575Y71467D01*
X531246D01*
X524581Y58138D02*
X511252D01*
X504588Y61470D02*
Y81464D01*
X494591D01*
X491259Y78131D01*
Y71467D01*
X494591Y68134D01*
X504588D01*
X474598Y81464D02*
X481262D01*
X484594Y78131D01*
Y64802D01*
X481262Y61470D01*
X474598D01*
X471265Y64802D01*
Y78131D01*
X474598Y81464D01*
X464601D02*
Y61470D01*
X457936Y68134D01*
X451272Y61470D01*
Y81464D01*
X431278D02*
X444607D01*
Y61470D01*
X431278D01*
X444607Y71467D02*
X437943D01*
X424614Y61470D02*
Y81464D01*
X414617D01*
X411285Y78131D01*
Y71467D01*
X414617Y68134D01*
X424614D01*
X417949D02*
X411285Y61470D01*
M02*
