M48
;Layer_Color=9474304
;FILE_FORMAT=4:4
METRIC,LZ
;TYPE=PLATED
T1F00S00C0.8000
T2F00S00C0.8128
T3F00S00C0.9144
T4F00S00C1.0160
T5F00S00C1.2700
T7F00S00C1.6000
T8F00S00C1.9050
T9F00S00C2.5400
%
T01
X0050225Y00399267
X0050098Y00439907
X0059369Y00431017
Y00372597
X0071561Y00481817
X0071434Y00522457
X0034223Y00517377
X003435Y00461497
X006356Y00744707
Y00791697
X0069783Y00782807
Y00747247
X0072704Y00745977
Y00801857
T02
X00773628Y00462818
X00748228
X0056067Y00456468
X0053527
X0044891Y00457738
X0042351
X0027365
X0024571
X0052638Y00569447
X0055178
X0054416Y00699622
X0059496
X0086293Y00707242
X0090103
X00906978Y00563097
X00881578
T03
X0076706Y00316497
X0081024
X00835894
X00860786
X0088644
X00741406
X00716514
X0069086
T04
X0070164Y00718037
X0072704
X0075244
T05
X0024317Y00718672
X0029397
X0040827
X0045907
T07
X0018728Y00575797
X0023428
X0028128
T08
X0072704Y00667237
T09
X0005Y0005
X0011303Y0011303
X0095123Y0005131
X0011303Y0043307
X0095Y0095
X0005
M30
