G04*
G04 #@! TF.GenerationSoftware,Altium Limited,Altium Designer,18.0.7 (293)*
G04*
G04 Layer_Physical_Order=1*
G04 Layer_Color=16776960*
%FSLAX44Y44*%
%MOMM*%
G71*
G01*
G75*
%ADD18R,2.7940X3.8100*%
%ADD19R,1.3970X1.2700*%
%ADD20R,2.4000X3.3000*%
%ADD21R,2.4000X1.0000*%
%ADD41C,1.0000*%
%ADD42C,4.0000*%
%ADD43C,2.5000*%
%ADD44R,1.7780X2.5400*%
%ADD45O,1.7780X2.5400*%
%ADD46R,1.6510X2.5400*%
%ADD47O,1.6510X2.5400*%
G04:AMPARAMS|DCode=48|XSize=1.778mm|YSize=2.286mm|CornerRadius=0mm|HoleSize=0mm|Usage=FLASHONLY|Rotation=180.000|XOffset=0mm|YOffset=0mm|HoleType=Round|Shape=Octagon|*
%AMOCTAGOND48*
4,1,8,0.4445,-1.1430,-0.4445,-1.1430,-0.8890,-0.6985,-0.8890,0.6985,-0.4445,1.1430,0.4445,1.1430,0.8890,0.6985,0.8890,-0.6985,0.4445,-1.1430,0.0*
%
%ADD48OCTAGOND48*%

%ADD49C,2.5400*%
%ADD50O,1.6510X1.9050*%
%ADD51R,4.0640X2.5400*%
%ADD52R,2.5400X4.0640*%
%ADD53O,2.5400X3.0480*%
%ADD54O,2.0320X2.5400*%
%ADD55R,2.0320X2.5400*%
%ADD56C,1.1000*%
G36*
X985677Y14341D02*
X984779Y13443D01*
X14323Y14310D01*
X14323Y985677D01*
X985677D01*
Y14341D01*
D02*
G37*
%LPC*%
G36*
X950000Y982801D02*
X944869Y982397D01*
X939864Y981196D01*
X935109Y979226D01*
X930720Y976537D01*
X926806Y973194D01*
X923463Y969280D01*
X920774Y964891D01*
X918804Y960136D01*
X917603Y955131D01*
X917199Y950000D01*
X917603Y944869D01*
X918804Y939864D01*
X920774Y935109D01*
X923463Y930720D01*
X926806Y926806D01*
X930720Y923463D01*
X935109Y920774D01*
X939864Y918804D01*
X944869Y917603D01*
X950000Y917199D01*
X955131Y917603D01*
X960136Y918804D01*
X964891Y920774D01*
X969280Y923463D01*
X973194Y926806D01*
X976537Y930720D01*
X979226Y935109D01*
X981196Y939864D01*
X982397Y944869D01*
X982801Y950000D01*
X982397Y955131D01*
X981196Y960136D01*
X979226Y964891D01*
X976537Y969280D01*
X973194Y973194D01*
X969280Y976537D01*
X964891Y979226D01*
X960136Y981196D01*
X955131Y982397D01*
X950000Y982801D01*
D02*
G37*
G36*
X50000D02*
X44869Y982397D01*
X39864Y981196D01*
X35109Y979226D01*
X30720Y976537D01*
X26806Y973194D01*
X23463Y969280D01*
X20774Y964891D01*
X18804Y960136D01*
X17603Y955131D01*
X17199Y950000D01*
X17603Y944869D01*
X18804Y939864D01*
X20774Y935109D01*
X23463Y930720D01*
X26806Y926806D01*
X30720Y923463D01*
X35109Y920774D01*
X39864Y918804D01*
X44869Y917603D01*
X50000Y917199D01*
X55131Y917603D01*
X60136Y918804D01*
X64891Y920774D01*
X69280Y923463D01*
X73194Y926806D01*
X76537Y930720D01*
X79226Y935109D01*
X81196Y939864D01*
X82397Y944869D01*
X82801Y950000D01*
X82397Y955131D01*
X81196Y960136D01*
X79226Y964891D01*
X76537Y969280D01*
X73194Y973194D01*
X69280Y976537D01*
X64891Y979226D01*
X60136Y981196D01*
X55131Y982397D01*
X50000Y982801D01*
D02*
G37*
G36*
X728310Y809799D02*
Y803127D01*
X734982D01*
X734873Y803956D01*
X734063Y805911D01*
X732774Y807591D01*
X731095Y808880D01*
X729139Y809690D01*
X728310Y809799D01*
D02*
G37*
G36*
X725770D02*
X724941Y809690D01*
X722985Y808880D01*
X721306Y807591D01*
X720017Y805911D01*
X719207Y803956D01*
X719098Y803127D01*
X725770D01*
Y809799D01*
D02*
G37*
G36*
X636870Y799639D02*
Y792967D01*
X643542D01*
X643433Y793796D01*
X642623Y795751D01*
X641334Y797431D01*
X639655Y798720D01*
X637699Y799530D01*
X636870Y799639D01*
D02*
G37*
G36*
X634330D02*
X633501Y799530D01*
X631545Y798720D01*
X629866Y797431D01*
X628577Y795751D01*
X627767Y793796D01*
X627658Y792967D01*
X634330D01*
Y799639D01*
D02*
G37*
G36*
X643542Y790427D02*
X636870D01*
Y783755D01*
X637699Y783864D01*
X639655Y784674D01*
X641334Y785963D01*
X642623Y787642D01*
X643433Y789598D01*
X643542Y790427D01*
D02*
G37*
G36*
X634330D02*
X627658D01*
X627767Y789598D01*
X628577Y787642D01*
X629866Y785963D01*
X631545Y784674D01*
X633501Y783864D01*
X634330Y783755D01*
Y790427D01*
D02*
G37*
G36*
X697830Y801095D02*
X694262Y800743D01*
X690831Y799703D01*
X687670Y798013D01*
X684898Y795738D01*
X682624Y792967D01*
X680934Y789805D01*
X679893Y786375D01*
X679542Y782807D01*
X679791Y780273D01*
X678689Y779002D01*
X582260D01*
X582260Y779003D01*
X578790Y778661D01*
X575454Y777649D01*
X572379Y776005D01*
X569683Y773793D01*
X569683Y773793D01*
X532854Y736963D01*
X530642Y734268D01*
X528998Y731193D01*
X527986Y727857D01*
X527707Y725022D01*
X521300D01*
Y717407D01*
X502885D01*
X502885Y717408D01*
X499415Y717066D01*
X496079Y716054D01*
X493004Y714410D01*
X490308Y712198D01*
X490308Y712198D01*
X483615Y705504D01*
X482594Y706261D01*
X482650Y706365D01*
X484102Y711152D01*
X484593Y716132D01*
Y721212D01*
X484102Y726191D01*
X482650Y730979D01*
X480291Y735392D01*
X477117Y739259D01*
X473250Y742433D01*
X468837Y744792D01*
X464049Y746244D01*
X459070Y746735D01*
X454091Y746244D01*
X449303Y744792D01*
X444890Y742433D01*
X441022Y739259D01*
X439760Y737721D01*
X439751Y737714D01*
X439699Y737647D01*
X439040Y736843D01*
X438779Y736581D01*
X438154Y736517D01*
X436355Y736478D01*
X436218Y736457D01*
X431121D01*
X430985Y736478D01*
X428995Y736521D01*
X428591Y736550D01*
X428300Y736843D01*
X427640Y737647D01*
X427589Y737714D01*
X427580Y737721D01*
X426317Y739259D01*
X422450Y742433D01*
X418037Y744792D01*
X413249Y746244D01*
X408270Y746735D01*
X403291Y746244D01*
X398503Y744792D01*
X394090Y742433D01*
X390223Y739259D01*
X387048Y735392D01*
X384690Y730979D01*
X383237Y726191D01*
X382747Y721212D01*
Y716132D01*
X383237Y711152D01*
X384690Y706365D01*
X387048Y701952D01*
X387900Y700915D01*
X388017Y700704D01*
X388375Y700335D01*
X390223Y698084D01*
X390277Y698040D01*
X390421Y696429D01*
X390463Y694247D01*
X390484Y694104D01*
Y646664D01*
X374233Y630412D01*
X300320D01*
X296850Y630071D01*
X293514Y629059D01*
X290439Y627415D01*
X287743Y625203D01*
X287743Y625203D01*
X268703Y606163D01*
X266492Y603468D01*
X264848Y600393D01*
X263836Y597057D01*
X263517Y593819D01*
X263375Y593702D01*
X260225Y589865D01*
X258500Y586637D01*
X257060D01*
X255334Y589865D01*
X252185Y593702D01*
X248348Y596851D01*
X243970Y599191D01*
X239220Y600632D01*
X234280Y601119D01*
X229340Y600632D01*
X224590Y599191D01*
X220212Y596851D01*
X216374Y593702D01*
X216276Y593582D01*
X205283D01*
X205185Y593702D01*
X201348Y596851D01*
X196970Y599191D01*
X192220Y600632D01*
X187280Y601119D01*
X182340Y600632D01*
X177590Y599191D01*
X173212Y596851D01*
X169375Y593702D01*
X166225Y589865D01*
X163885Y585487D01*
X162444Y580737D01*
X161958Y575797D01*
X162444Y570857D01*
X163885Y566106D01*
X166225Y561729D01*
X169375Y557892D01*
X173212Y554742D01*
X177590Y552402D01*
X182340Y550961D01*
X187280Y550475D01*
X192220Y550961D01*
X196970Y552402D01*
X201348Y554742D01*
X205185Y557892D01*
X205283Y558011D01*
X216276D01*
X216374Y557892D01*
X216790Y557550D01*
X216836Y557087D01*
X217848Y553750D01*
X219492Y550676D01*
X221703Y547980D01*
X247104Y522580D01*
X249799Y520369D01*
X252874Y518725D01*
X256210Y517713D01*
X259680Y517371D01*
X306670D01*
X310140Y517713D01*
X313476Y518725D01*
X316551Y520369D01*
X319246Y522580D01*
X329229Y532563D01*
X329923Y532464D01*
X330297Y531128D01*
X329298Y530308D01*
X327024Y527537D01*
X325334Y524375D01*
X324293Y520945D01*
X323942Y517377D01*
X324293Y513809D01*
X325334Y510378D01*
X327024Y507216D01*
X329298Y504445D01*
X332070Y502171D01*
X335231Y500481D01*
X338662Y499440D01*
X342230Y499089D01*
X345798Y499440D01*
X346296Y499591D01*
X440273D01*
X483194Y456670D01*
Y443972D01*
X483043Y443475D01*
X482692Y439907D01*
X483043Y436339D01*
X484084Y432908D01*
X485774Y429747D01*
X488048Y426975D01*
X490820Y424701D01*
X493981Y423011D01*
X497412Y421970D01*
X500980Y421619D01*
X504548Y421970D01*
X507978Y423011D01*
X511140Y424701D01*
X513912Y426975D01*
X516186Y429747D01*
X516431Y430205D01*
X517294Y431068D01*
X556860D01*
Y438637D01*
X555670D01*
X555571Y445421D01*
X559400D01*
Y456468D01*
Y463685D01*
X552445D01*
X553058Y464910D01*
X553606Y466173D01*
X554090Y467474D01*
X554509Y468813D01*
X555154Y471603D01*
X555380Y473054D01*
X555638Y476071D01*
X555670Y477635D01*
X556860D01*
Y481868D01*
X513680D01*
Y478285D01*
X512410Y477760D01*
X460216Y529953D01*
X457521Y532165D01*
X454446Y533809D01*
X451110Y534821D01*
X447640Y535162D01*
X447370D01*
Y565274D01*
X447418Y565634D01*
X447370Y566012D01*
Y566900D01*
X449437Y569370D01*
X450939Y570931D01*
X450972Y570975D01*
X451015Y571010D01*
X451086Y571108D01*
X495776Y615798D01*
X497988Y618494D01*
X499632Y621568D01*
X500644Y624905D01*
X500985Y628375D01*
Y672570D01*
X510252Y681836D01*
X521300D01*
Y674222D01*
X526374D01*
Y646664D01*
X513803Y634093D01*
X511592Y631398D01*
X509948Y628323D01*
X508936Y624987D01*
X508594Y621517D01*
Y594847D01*
X504790D01*
Y582717D01*
X504711Y582116D01*
X504790Y581516D01*
Y544047D01*
X547970D01*
Y548279D01*
X546780D01*
X546748Y549844D01*
X546490Y552860D01*
X546264Y554312D01*
X545619Y557102D01*
X545200Y558441D01*
X544716Y559741D01*
X544168Y561004D01*
X543555Y562230D01*
X550510D01*
Y569447D01*
Y576664D01*
X543555D01*
X544168Y577889D01*
X544716Y579152D01*
X545200Y580453D01*
X545619Y581792D01*
X546264Y584582D01*
X546490Y586033D01*
X546748Y589050D01*
X546780Y590615D01*
X547970D01*
Y594847D01*
X544165D01*
Y614150D01*
X556736Y626720D01*
X556736Y626720D01*
X558948Y629416D01*
X560592Y632491D01*
X561604Y635827D01*
X561945Y639297D01*
Y674222D01*
X567020D01*
Y711704D01*
X567099Y712312D01*
X567020Y712905D01*
Y720824D01*
X589627Y743431D01*
X627659D01*
X627767Y742608D01*
X628577Y740652D01*
X629866Y738973D01*
X631545Y737684D01*
X633501Y736874D01*
X635600Y736597D01*
X637699Y736874D01*
X639655Y737684D01*
X641334Y738973D01*
X642623Y740652D01*
X643433Y742608D01*
X643541Y743431D01*
X679968D01*
X680044Y743181D01*
Y735275D01*
X680020Y735098D01*
X679989Y725621D01*
X679985Y725466D01*
X680044Y724896D01*
Y721847D01*
X680050Y721789D01*
Y712152D01*
X679997Y711883D01*
X680024Y711474D01*
X679971Y711067D01*
X680050Y710466D01*
Y704702D01*
X683544Y701208D01*
X683579Y701005D01*
X683803Y698456D01*
X683833Y696953D01*
X683854Y696812D01*
Y687304D01*
X673553Y677003D01*
X671342Y674308D01*
X669698Y671233D01*
X668686Y667897D01*
X668344Y664427D01*
Y596371D01*
X659460D01*
Y532871D01*
X668344D01*
Y516377D01*
X668686Y512907D01*
X669698Y509571D01*
X671342Y506496D01*
X673553Y503800D01*
X687793Y489561D01*
X687794Y489560D01*
X690489Y487349D01*
X693564Y485705D01*
X696900Y484693D01*
X700370Y484351D01*
X700370Y484351D01*
X706673D01*
X707663Y483087D01*
X723557D01*
X724546Y484351D01*
X726023D01*
X726638Y483736D01*
Y476088D01*
X726559Y475487D01*
X726638Y474887D01*
Y448147D01*
X705713Y427223D01*
X704540Y427709D01*
Y481807D01*
X655140D01*
Y423407D01*
X700238D01*
X700724Y422234D01*
X699353Y420862D01*
X646540D01*
Y434907D01*
Y470307D01*
X636380D01*
Y474337D01*
X621840D01*
X607300D01*
Y470307D01*
X597140D01*
Y460058D01*
X594707Y457246D01*
X593632Y456144D01*
X593535Y456015D01*
X583988Y446468D01*
X583530Y446223D01*
X580758Y443948D01*
X578484Y441177D01*
X578239Y440718D01*
X556289Y418768D01*
X554599Y417865D01*
X553609Y417052D01*
X506315D01*
X505818Y417203D01*
X502250Y417555D01*
X498682Y417203D01*
X495251Y416163D01*
X492090Y414473D01*
X489318Y412198D01*
X487044Y409427D01*
X485354Y406265D01*
X484313Y402835D01*
X483962Y399272D01*
X458817D01*
X426925Y431165D01*
X427411Y432338D01*
X444465D01*
Y442307D01*
X445521Y443012D01*
X446092Y442776D01*
X447640Y442572D01*
Y457738D01*
Y465345D01*
X441275D01*
X441775Y466367D01*
X442223Y467458D01*
X442619Y468620D01*
X442961Y469852D01*
X443488Y472526D01*
X443673Y473969D01*
X443884Y477065D01*
X443910Y478719D01*
X444465D01*
Y483138D01*
X408905D01*
Y485627D01*
X369535D01*
Y447527D01*
Y438430D01*
X369476Y438121D01*
X369480Y438065D01*
X369470Y438009D01*
X369535Y437235D01*
Y424667D01*
X381232D01*
X381541Y424608D01*
X382054Y424579D01*
X382079Y424572D01*
X382297Y424489D01*
X382670Y424309D01*
X383192Y424005D01*
X383699Y423661D01*
X385634Y422074D01*
X386688Y421066D01*
X386797Y420987D01*
X438873Y368910D01*
X441569Y366699D01*
X444644Y365055D01*
X447980Y364043D01*
X451450Y363701D01*
X573720D01*
X574963Y363824D01*
X575904Y362971D01*
Y335767D01*
X576246Y332297D01*
X577258Y328960D01*
X578902Y325886D01*
X581114Y323190D01*
X645883Y258421D01*
X645883Y258420D01*
X648579Y256209D01*
X651654Y254565D01*
X654990Y253553D01*
X658460Y253211D01*
X658460Y253211D01*
X815286D01*
X818756Y253553D01*
X822092Y254565D01*
X825167Y256209D01*
X827862Y258420D01*
X860364Y290922D01*
X860487Y291013D01*
X861516Y292011D01*
X863361Y293617D01*
X863903Y294030D01*
X864401Y294369D01*
X864711Y294553D01*
X864731Y294559D01*
X864894Y294575D01*
X865803Y294851D01*
X866528Y294996D01*
X866921Y295190D01*
X868844Y295773D01*
X871101Y296980D01*
X871782Y297262D01*
X872134Y297532D01*
X872484Y297719D01*
X872658Y297862D01*
X872937Y298015D01*
X873102Y298135D01*
X873191Y298167D01*
X873558Y298271D01*
X873613Y298283D01*
X873668Y298271D01*
X874034Y298167D01*
X874124Y298135D01*
X874288Y298015D01*
X874567Y297862D01*
X874742Y297719D01*
X875092Y297532D01*
X875444Y297262D01*
X876125Y296980D01*
X878382Y295773D01*
X882332Y294575D01*
X886440Y294170D01*
X890548Y294575D01*
X894498Y295773D01*
X898138Y297719D01*
X901329Y300338D01*
X903948Y303528D01*
X905893Y307169D01*
X907092Y311119D01*
X907496Y315227D01*
Y317767D01*
X907092Y321875D01*
X905893Y325825D01*
X903948Y329465D01*
X901329Y332656D01*
X898138Y335275D01*
X894498Y337220D01*
X890548Y338419D01*
X886440Y338823D01*
X882332Y338419D01*
X878382Y337220D01*
X876125Y336014D01*
X875444Y335732D01*
X875092Y335462D01*
X874742Y335275D01*
X874567Y335132D01*
X874288Y334979D01*
X874124Y334859D01*
X874034Y334826D01*
X873668Y334723D01*
X873613Y334711D01*
X873558Y334723D01*
X873191Y334826D01*
X873102Y334859D01*
X872937Y334979D01*
X872658Y335132D01*
X872484Y335275D01*
X872134Y335462D01*
X871782Y335732D01*
X871101Y336014D01*
X868844Y337220D01*
X864894Y338419D01*
X860786Y338823D01*
X856678Y338419D01*
X852728Y337220D01*
X850471Y336014D01*
X849790Y335732D01*
X849438Y335462D01*
X849088Y335275D01*
X848913Y335132D01*
X848634Y334979D01*
X848470Y334859D01*
X848380Y334826D01*
X848340Y334815D01*
X848299Y334826D01*
X848210Y334859D01*
X848045Y334979D01*
X847766Y335132D01*
X847592Y335275D01*
X847242Y335462D01*
X846890Y335732D01*
X846209Y336014D01*
X843952Y337220D01*
X840002Y338419D01*
X835894Y338823D01*
X831786Y338419D01*
X827836Y337220D01*
X824196Y335275D01*
X821005Y332656D01*
X818386Y329465D01*
X817203Y327251D01*
X815962Y326983D01*
X815840Y327076D01*
X815899Y326738D01*
X816531Y324204D01*
X816926Y323042D01*
X817374Y321951D01*
X817875Y320929D01*
X811510D01*
Y316497D01*
Y307632D01*
X811852Y307121D01*
X811510Y307065D01*
Y304506D01*
X813058Y304710D01*
X815684Y305797D01*
X815962Y306010D01*
X817203Y305742D01*
X818386Y303528D01*
X820315Y301178D01*
X807919Y288782D01*
X665827D01*
X611475Y343134D01*
Y368531D01*
X611627Y369029D01*
X611978Y372597D01*
X611627Y376165D01*
X610586Y379595D01*
X608896Y382757D01*
X606622Y385528D01*
X605316Y386600D01*
X605254Y387868D01*
X616725Y399339D01*
X625564Y390500D01*
X628259Y388289D01*
X631334Y386645D01*
X634670Y385633D01*
X638140Y385291D01*
X706720D01*
X710190Y385633D01*
X713526Y386645D01*
X716601Y388289D01*
X719296Y390500D01*
X729269Y400473D01*
X730442Y399987D01*
Y397342D01*
X725893Y392793D01*
X723682Y390098D01*
X722038Y387023D01*
X721026Y383687D01*
X720684Y380217D01*
Y339689D01*
X719414Y338537D01*
X716514Y338823D01*
X712406Y338419D01*
X708456Y337220D01*
X704816Y335275D01*
X701625Y332656D01*
X699006Y329465D01*
X697823Y327251D01*
X696581Y326983D01*
X696304Y327196D01*
X693678Y328284D01*
X692130Y328488D01*
Y316497D01*
Y304506D01*
X693678Y304710D01*
X696304Y305797D01*
X696581Y306010D01*
X697823Y305742D01*
X699006Y303528D01*
X701625Y300338D01*
X704816Y297719D01*
X708456Y295773D01*
X712406Y294575D01*
X716514Y294170D01*
X720622Y294575D01*
X724572Y295773D01*
X726829Y296980D01*
X727510Y297262D01*
X727862Y297532D01*
X728212Y297719D01*
X728386Y297862D01*
X728665Y298015D01*
X728830Y298135D01*
X728919Y298167D01*
X728960Y298179D01*
X729000Y298167D01*
X729090Y298135D01*
X729254Y298015D01*
X729533Y297862D01*
X729708Y297719D01*
X730058Y297532D01*
X730410Y297262D01*
X731091Y296980D01*
X733348Y295773D01*
X737298Y294575D01*
X741406Y294170D01*
X745514Y294575D01*
X749464Y295773D01*
X751721Y296980D01*
X752402Y297262D01*
X752754Y297532D01*
X753104Y297719D01*
X753278Y297862D01*
X753557Y298015D01*
X753722Y298135D01*
X753811Y298167D01*
X754178Y298271D01*
X754233Y298283D01*
X754288Y298271D01*
X754654Y298167D01*
X754744Y298135D01*
X754908Y298015D01*
X755187Y297862D01*
X755362Y297719D01*
X755712Y297532D01*
X756064Y297262D01*
X756745Y296980D01*
X759002Y295773D01*
X762952Y294575D01*
X767060Y294170D01*
X771168Y294575D01*
X775118Y295773D01*
X778758Y297719D01*
X781949Y300338D01*
X784568Y303528D01*
X786514Y307169D01*
X787712Y311119D01*
X788116Y315227D01*
Y317767D01*
X787712Y321875D01*
X786514Y325825D01*
X784568Y329465D01*
X781949Y332656D01*
X778758Y335275D01*
X775118Y337220D01*
X771168Y338419D01*
X767060Y338823D01*
X762952Y338419D01*
X759002Y337220D01*
X757525Y336431D01*
X756255Y337192D01*
Y372850D01*
X760804Y377398D01*
X760804Y377398D01*
X763016Y380094D01*
X764660Y383168D01*
X765672Y386505D01*
X766013Y389975D01*
Y437418D01*
X769818D01*
Y441650D01*
X768628D01*
X768596Y443215D01*
X768338Y446231D01*
X768112Y447683D01*
X767467Y450473D01*
X767048Y451811D01*
X766564Y453112D01*
X766016Y454375D01*
X765403Y455601D01*
X772358D01*
Y462818D01*
Y470035D01*
X765403D01*
X766016Y471260D01*
X766564Y472523D01*
X767048Y473824D01*
X767467Y475163D01*
X768112Y477953D01*
X768338Y479404D01*
X768596Y482421D01*
X768628Y483985D01*
X769818D01*
Y488218D01*
X765923D01*
X765672Y490769D01*
X764660Y494105D01*
X763016Y497180D01*
X760804Y499875D01*
X745966Y514713D01*
X743271Y516925D01*
X740196Y518569D01*
X736860Y519581D01*
X733390Y519922D01*
X723276D01*
X722287Y521187D01*
X714340D01*
Y522457D01*
X713070D01*
Y530399D01*
X712241Y530290D01*
X710285Y529480D01*
X708606Y528191D01*
X707317Y526511D01*
X706507Y524556D01*
X706320Y523136D01*
X704979Y522680D01*
X703915Y523744D01*
Y532871D01*
X712800D01*
Y596371D01*
X703915D01*
Y657060D01*
X710813Y663957D01*
X712225Y663574D01*
X712892Y661376D01*
X714307Y658729D01*
X716211Y656408D01*
X718532Y654504D01*
X721180Y653089D01*
X724052Y652217D01*
X725770Y652048D01*
Y667237D01*
Y676306D01*
X718150D01*
X718889Y677095D01*
X719550Y677936D01*
X720134Y678828D01*
X720639Y679773D01*
X721067Y680769D01*
X721283Y681416D01*
X721180Y681385D01*
X720515Y681030D01*
X719426Y681683D01*
Y696606D01*
X719439Y696681D01*
X719574Y699972D01*
X719673Y700842D01*
X719736Y701208D01*
X721618Y703090D01*
X721422Y704225D01*
X721075Y705672D01*
X720650Y706997D01*
X720149Y708199D01*
X719570Y709278D01*
X718914Y710234D01*
X718180Y711067D01*
X725770D01*
Y718037D01*
X728310D01*
Y711067D01*
X735899D01*
X735166Y710234D01*
X734510Y709278D01*
X733931Y708199D01*
X733429Y706997D01*
X733005Y705672D01*
X732657Y704225D01*
X732462Y703090D01*
X734344Y701208D01*
X734379Y701005D01*
X734603Y698456D01*
X734633Y696953D01*
X734654Y696812D01*
Y683747D01*
X734848Y681784D01*
X733650Y680984D01*
X732900Y681385D01*
X732796Y681416D01*
X733012Y680769D01*
X733440Y679773D01*
X733946Y678828D01*
X734529Y677936D01*
X735191Y677095D01*
X735930Y676306D01*
X728310D01*
Y667237D01*
Y652048D01*
X730027Y652217D01*
X732900Y653089D01*
X735548Y654504D01*
X737868Y656408D01*
X739773Y658729D01*
X741188Y661376D01*
X742059Y664249D01*
X742322Y666916D01*
X743485Y667549D01*
X747354Y663680D01*
Y596371D01*
X735660D01*
Y532871D01*
X789000D01*
Y596371D01*
X782925D01*
Y671047D01*
X782925Y671047D01*
X782584Y674517D01*
X781572Y677853D01*
X779928Y680928D01*
X777716Y683623D01*
X770226Y691114D01*
Y696606D01*
X770239Y696681D01*
X770374Y699972D01*
X770473Y700842D01*
X770536Y701208D01*
X774030Y704702D01*
Y710466D01*
X774109Y711067D01*
X774055Y711474D01*
X774083Y711883D01*
X774030Y712152D01*
Y723921D01*
X774083Y724191D01*
X774055Y724600D01*
X774109Y725007D01*
X774030Y725607D01*
Y731372D01*
X770536Y734866D01*
X770501Y735069D01*
X770277Y737617D01*
X770247Y739121D01*
X770226Y739262D01*
Y740897D01*
X769884Y744367D01*
X768872Y747703D01*
X767228Y750778D01*
X765016Y753473D01*
X755649Y762841D01*
X756146Y764009D01*
X781483Y763536D01*
X837612Y707407D01*
X837679Y707314D01*
X837731Y707271D01*
X837771Y707218D01*
X839387Y705539D01*
X840539Y704231D01*
X841340Y703217D01*
Y702310D01*
X841291Y701935D01*
X841340Y701571D01*
Y695173D01*
X841261Y694572D01*
X841340Y693971D01*
Y681842D01*
X845144D01*
Y645647D01*
X845486Y642177D01*
X846498Y638840D01*
X848142Y635766D01*
X850353Y633070D01*
X863792Y619632D01*
Y588497D01*
X859988D01*
Y576367D01*
X859909Y575766D01*
X859988Y575165D01*
Y537697D01*
X903168D01*
Y547273D01*
X904438Y548093D01*
X905708Y547925D01*
Y563097D01*
Y570999D01*
X898753Y570314D01*
X899201Y571240D01*
X899602Y572254D01*
X899955Y573357D01*
X900261Y574548D01*
X900733Y577196D01*
X900898Y578652D01*
X901086Y581830D01*
X901110Y583552D01*
X903168Y583797D01*
Y588497D01*
X899363D01*
Y626999D01*
X899022Y630469D01*
X898010Y633805D01*
X896366Y636880D01*
X894154Y639575D01*
X880715Y653014D01*
Y681842D01*
X884520D01*
Y693971D01*
X884599Y694572D01*
X884520Y695173D01*
Y732642D01*
X864753D01*
X864378Y732690D01*
X864014Y732642D01*
X863055D01*
X861113Y734304D01*
X859171Y736184D01*
X859049Y736275D01*
X801564Y793761D01*
X800344Y794762D01*
X799143Y795785D01*
X798997Y795867D01*
X798868Y795973D01*
X797477Y796717D01*
X796099Y797486D01*
X795941Y797538D01*
X795794Y797616D01*
X794283Y798074D01*
X792783Y798560D01*
X792617Y798580D01*
X792457Y798628D01*
X790887Y798783D01*
X789320Y798967D01*
X735855Y799966D01*
X735322Y800587D01*
X718424D01*
X718165Y800297D01*
X702521Y800589D01*
X702354Y800576D01*
X702188Y800592D01*
X701896D01*
X701398Y800743D01*
X697830Y801095D01*
D02*
G37*
G36*
X293970Y746735D02*
X288991Y746244D01*
X284203Y744792D01*
X279790Y742433D01*
X275923Y739259D01*
X274660Y737721D01*
X274650Y737714D01*
X274599Y737647D01*
X273940Y736843D01*
X273679Y736581D01*
X273054Y736517D01*
X271255Y736478D01*
X271119Y736457D01*
X266021D01*
X265885Y736478D01*
X263895Y736521D01*
X263491Y736550D01*
X263200Y736843D01*
X262540Y737647D01*
X262489Y737714D01*
X262480Y737721D01*
X261217Y739259D01*
X257350Y742433D01*
X252937Y744792D01*
X248149Y746244D01*
X243170Y746735D01*
X238191Y746244D01*
X233403Y744792D01*
X228990Y742433D01*
X227093Y740876D01*
X226965Y740805D01*
X226754Y740598D01*
X225123Y739259D01*
X224567Y738582D01*
X222928Y738423D01*
X221000Y738384D01*
X220861Y738362D01*
X213960D01*
X213960Y738363D01*
X210490Y738021D01*
X207610Y737147D01*
X206340Y737859D01*
Y741376D01*
X155540D01*
Y682955D01*
X122855D01*
X122640Y681666D01*
X122520Y680306D01*
Y632155D01*
X188560D01*
Y675335D01*
X206340D01*
Y691255D01*
X208545Y691924D01*
X211620Y693567D01*
X214315Y695779D01*
X220501Y701965D01*
X221560Y701956D01*
X222100Y701768D01*
X225123Y698084D01*
X228990Y694910D01*
X233403Y692552D01*
X238191Y691099D01*
X243170Y690609D01*
X248149Y691099D01*
X252937Y692552D01*
X257350Y694910D01*
X261217Y698084D01*
X262480Y699623D01*
X262489Y699630D01*
X262540Y699697D01*
X263200Y700500D01*
X263461Y700762D01*
X264086Y700826D01*
X265885Y700865D01*
X266021Y700886D01*
X271119D01*
X271255Y700865D01*
X273245Y700822D01*
X273649Y700793D01*
X273940Y700500D01*
X274599Y699697D01*
X274650Y699630D01*
X274660Y699623D01*
X275923Y698084D01*
X279790Y694910D01*
X284203Y692552D01*
X288991Y691099D01*
X293970Y690609D01*
X298949Y691099D01*
X303737Y692552D01*
X308150Y694910D01*
X312017Y698084D01*
X315191Y701952D01*
X317550Y706365D01*
X319002Y711152D01*
X319493Y716132D01*
Y721212D01*
X319002Y726191D01*
X317550Y730979D01*
X315191Y735392D01*
X312017Y739259D01*
X308150Y742433D01*
X303737Y744792D01*
X298949Y746244D01*
X293970Y746735D01*
D02*
G37*
G36*
X899760Y722413D02*
X898046Y722188D01*
X895266Y721036D01*
X895077Y720891D01*
X895127Y720849D01*
X896673Y719796D01*
X898060Y719043D01*
X899288Y718588D01*
X899760Y718520D01*
Y722413D01*
D02*
G37*
G36*
X132680Y731216D02*
X118710D01*
Y709625D01*
X132680D01*
Y731216D01*
D02*
G37*
G36*
X116170D02*
X102200D01*
Y709625D01*
X116170D01*
Y731216D01*
D02*
G37*
G36*
X902300Y722413D02*
Y719375D01*
X902613Y719768D01*
X902300Y719223D01*
Y708512D01*
X912559D01*
Y711052D01*
X912166Y714036D01*
X911014Y716816D01*
X909182Y719204D01*
X906794Y721036D01*
X904014Y722188D01*
X902300Y722413D01*
D02*
G37*
G36*
X899760Y714804D02*
X896143Y708512D01*
X899760D01*
Y714804D01*
D02*
G37*
G36*
X889513Y711139D02*
X889501Y711052D01*
Y708512D01*
X891294D01*
X890934Y709140D01*
X889837Y710731D01*
X889513Y711139D01*
D02*
G37*
G36*
X899760Y705972D02*
X894684D01*
X892314Y701849D01*
X892704Y702796D01*
X892846Y703851D01*
X892740Y705012D01*
X892472Y705972D01*
X889501D01*
Y703432D01*
X889894Y700448D01*
X891046Y697667D01*
X892878Y695280D01*
X895266Y693448D01*
X898046Y692296D01*
X899760Y692070D01*
Y694387D01*
X899315Y695194D01*
X898667Y695875D01*
X897919Y696244D01*
X897072Y696300D01*
X896124Y696043D01*
X899760Y697550D01*
Y705972D01*
D02*
G37*
G36*
X596230Y714804D02*
Y700892D01*
X607769D01*
Y702162D01*
X607333Y705477D01*
X606053Y708567D01*
X604018Y711219D01*
X601365Y713255D01*
X598275Y714535D01*
X596230Y714804D01*
D02*
G37*
G36*
X593690D02*
X591645Y714535D01*
X588555Y713255D01*
X585902Y711219D01*
X583866Y708567D01*
X582587Y705477D01*
X582150Y702162D01*
Y700892D01*
X593690D01*
Y714804D01*
D02*
G37*
G36*
X912559Y705972D02*
X902300D01*
Y698602D01*
X909761Y701695D01*
X910017Y702340D01*
X910247Y702496D01*
X910449Y702162D01*
X910624Y701340D01*
X910773Y700029D01*
X910905Y697525D01*
X911014Y697667D01*
X912166Y700448D01*
X912559Y703432D01*
Y705972D01*
D02*
G37*
G36*
X607769Y698352D02*
X596230D01*
Y691427D01*
X603423D01*
X602765Y690536D01*
X602176Y689550D01*
X601657Y688470D01*
X601207Y687296D01*
X600826Y686027D01*
X600759Y685738D01*
X601365Y685988D01*
X604018Y688024D01*
X606053Y690677D01*
X607333Y693766D01*
X607769Y697082D01*
Y698352D01*
D02*
G37*
G36*
X593690D02*
X582150D01*
Y697082D01*
X582587Y693766D01*
X583866Y690677D01*
X585902Y688024D01*
X588555Y685988D01*
X589160Y685738D01*
X589094Y686027D01*
X588713Y687296D01*
X588263Y688470D01*
X587743Y689550D01*
X587155Y690536D01*
X586497Y691427D01*
X593690D01*
Y698352D01*
D02*
G37*
G36*
X132680Y707085D02*
X118710D01*
Y688066D01*
X127440D01*
X126490Y687966D01*
X125640Y687666D01*
X124890Y687166D01*
X124240Y686466D01*
X123690Y685566D01*
X123661Y685496D01*
X132680D01*
Y707085D01*
D02*
G37*
G36*
X116170D02*
X102200D01*
Y685496D01*
X111219D01*
X111190Y685566D01*
X110640Y686466D01*
X109990Y687166D01*
X109240Y687666D01*
X108390Y687966D01*
X107440Y688066D01*
X116170D01*
Y707085D01*
D02*
G37*
G36*
X557619Y583183D02*
X557941Y581792D01*
X558360Y580453D01*
X558844Y579152D01*
X559392Y577889D01*
X560005Y576664D01*
X553050D01*
Y570717D01*
X563308D01*
Y573257D01*
X562916Y576241D01*
X561764Y579021D01*
X559932Y581409D01*
X557619Y583183D01*
D02*
G37*
G36*
X911889Y577244D02*
X911927Y577068D01*
X912287Y575828D01*
X912712Y574686D01*
X913203Y573643D01*
X913758Y572699D01*
X914380Y571853D01*
X908248Y571249D01*
Y564367D01*
X918506D01*
Y566907D01*
X918114Y569891D01*
X916962Y572671D01*
X915130Y575059D01*
X912742Y576891D01*
X911889Y577244D01*
D02*
G37*
G36*
X563308Y568177D02*
X553050D01*
Y562230D01*
X560005D01*
X559392Y561004D01*
X558844Y559741D01*
X558360Y558441D01*
X557941Y557102D01*
X557619Y555710D01*
X559932Y557485D01*
X561764Y559873D01*
X562916Y562653D01*
X563308Y565637D01*
Y568177D01*
D02*
G37*
G36*
X918506Y561827D02*
X908248D01*
Y547925D01*
X909962Y548151D01*
X912742Y549303D01*
X915130Y551135D01*
X916962Y553522D01*
X918114Y556303D01*
X918506Y559287D01*
Y561827D01*
D02*
G37*
G36*
X715610Y530399D02*
Y523727D01*
X722282D01*
X722173Y524556D01*
X721363Y526511D01*
X720074Y528191D01*
X718394Y529480D01*
X716439Y530290D01*
X715610Y530399D01*
D02*
G37*
G36*
X636380Y483147D02*
X627352D01*
X627540Y482504D01*
X627848Y481799D01*
X628212Y481251D01*
X628632Y480859D01*
X629108Y480624D01*
X629640Y480546D01*
X623110D01*
Y476877D01*
X636380D01*
Y483147D01*
D02*
G37*
G36*
X616328D02*
X607300D01*
Y476877D01*
X620570D01*
Y480546D01*
X614039D01*
X614571Y480624D01*
X615048Y480859D01*
X615468Y481251D01*
X615832Y481799D01*
X616140Y482504D01*
X616328Y483147D01*
D02*
G37*
G36*
X723552Y480547D02*
X716880D01*
Y473875D01*
X717709Y473984D01*
X719665Y474794D01*
X721344Y476083D01*
X722633Y477762D01*
X723443Y479718D01*
X723552Y480547D01*
D02*
G37*
G36*
X714340D02*
X707668D01*
X707777Y479718D01*
X708587Y477762D01*
X709876Y476083D01*
X711555Y474794D01*
X713511Y473984D01*
X714340Y473875D01*
Y480547D01*
D02*
G37*
G36*
X566509Y470204D02*
X566544Y470055D01*
X566573Y470075D01*
X566624Y470116D01*
X566509Y470204D01*
D02*
G37*
G36*
X278136Y472009D02*
X278165Y471873D01*
X278511Y470650D01*
X278919Y469529D01*
X279390Y468509D01*
X279925Y467591D01*
X280521Y466774D01*
X279512Y466675D01*
X279735Y466446D01*
X280709Y465799D01*
X281928Y465252D01*
X283392Y464804D01*
X284215Y464636D01*
X284167Y465001D01*
X283079Y467627D01*
X281349Y469882D01*
X279094Y471612D01*
X278136Y472009D01*
D02*
G37*
G36*
X779467Y476554D02*
X779789Y475163D01*
X780208Y473824D01*
X780692Y472523D01*
X781240Y471260D01*
X781852Y470035D01*
X774898D01*
Y464088D01*
X785156D01*
Y466628D01*
X784764Y469612D01*
X783612Y472392D01*
X781780Y474780D01*
X779467Y476554D01*
D02*
G37*
G36*
X454510Y471492D02*
X454569Y471154D01*
X455201Y468620D01*
X455596Y467458D01*
X456044Y466367D01*
X456545Y465345D01*
X450180D01*
Y459008D01*
X454769D01*
X456545Y465345D01*
X456968Y464084D01*
X457468Y462834D01*
X458045Y461595D01*
X458699Y460367D01*
X459563Y459008D01*
X459798D01*
Y462183D01*
X459427Y465001D01*
X458339Y467627D01*
X456609Y469882D01*
X454510Y471492D01*
D02*
G37*
G36*
X278565Y466581D02*
X274920Y466222D01*
Y459008D01*
X279468D01*
X278565Y466581D01*
D02*
G37*
G36*
X572190Y460346D02*
X571863Y459957D01*
X570765Y458366D01*
X570405Y457738D01*
X572198D01*
Y460278D01*
X572190Y460346D01*
D02*
G37*
G36*
X562138Y463685D02*
X561940D01*
Y457738D01*
X565556D01*
X562138Y463685D01*
D02*
G37*
G36*
X572198Y455198D02*
X569228D01*
X568960Y454238D01*
X568854Y453077D01*
X568996Y452022D01*
X569386Y451075D01*
X567016Y455198D01*
X561940D01*
Y445421D01*
X565769D01*
X565750Y445353D01*
X565733Y445150D01*
X565695Y443725D01*
X565688Y442365D01*
X566434Y442674D01*
X568822Y444506D01*
X570654Y446894D01*
X571806Y449674D01*
X572198Y452658D01*
Y455198D01*
D02*
G37*
G36*
X785156Y461548D02*
X774898D01*
Y455601D01*
X781852D01*
X781240Y454375D01*
X780692Y453112D01*
X780208Y451811D01*
X779789Y450473D01*
X779467Y449081D01*
X781780Y450856D01*
X783612Y453243D01*
X784764Y456024D01*
X785156Y459008D01*
Y461548D01*
D02*
G37*
G36*
X454057Y456468D02*
X450180D01*
Y442572D01*
X451728Y442776D01*
X454354Y443863D01*
X456609Y445594D01*
X456762Y445793D01*
X455783Y446425D01*
X454560Y447013D01*
X453503Y447294D01*
X452613Y447267D01*
X451889Y446934D01*
X451331Y446293D01*
X450939Y445346D01*
X454057Y456468D01*
D02*
G37*
G36*
X279771D02*
X274920D01*
Y442572D01*
X276468Y442776D01*
X279094Y443863D01*
X281349Y445594D01*
X283079Y447849D01*
X284167Y450475D01*
X284530Y453235D01*
X284425Y453210D01*
X283175Y452761D01*
X282174Y452213D01*
X281422Y451565D01*
X280918Y450817D01*
X280664Y449969D01*
X280658Y449022D01*
X279771Y456468D01*
D02*
G37*
G36*
X113030Y465871D02*
X107899Y465467D01*
X102894Y464266D01*
X98139Y462296D01*
X93750Y459607D01*
X89836Y456264D01*
X86493Y452350D01*
X83804Y447961D01*
X81834Y443206D01*
X80633Y438201D01*
X80229Y433070D01*
X80633Y427939D01*
X81834Y422934D01*
X83804Y418179D01*
X86493Y413790D01*
X89836Y409876D01*
X93750Y406533D01*
X98139Y403844D01*
X102894Y401874D01*
X107899Y400673D01*
X113030Y400269D01*
X118161Y400673D01*
X123166Y401874D01*
X127921Y403844D01*
X132310Y406533D01*
X136224Y409876D01*
X139567Y413790D01*
X142256Y418179D01*
X144226Y422934D01*
X145427Y427939D01*
X145831Y433070D01*
X145427Y438201D01*
X144226Y443206D01*
X142256Y447961D01*
X139567Y452350D01*
X136224Y456264D01*
X132310Y459607D01*
X127921Y462296D01*
X123166Y464266D01*
X118161Y465467D01*
X113030Y465871D01*
D02*
G37*
G36*
X231105Y485627D02*
X191735D01*
Y447527D01*
Y438430D01*
X191676Y438121D01*
X191680Y438065D01*
X191670Y438009D01*
X191735Y437235D01*
Y424667D01*
X203432D01*
X203741Y424608D01*
X204254Y424579D01*
X204279Y424572D01*
X204497Y424489D01*
X204870Y424309D01*
X205392Y424005D01*
X205899Y423661D01*
X207834Y422074D01*
X208888Y421066D01*
X208997Y420987D01*
X228053Y401931D01*
X228053Y401930D01*
X230749Y399719D01*
X233824Y398075D01*
X237160Y397063D01*
X240630Y396721D01*
X240630Y396721D01*
X325720D01*
X329190Y397063D01*
X332526Y398075D01*
X335601Y399719D01*
X338296Y401930D01*
X356076Y419710D01*
X356076Y419710D01*
X358288Y422406D01*
X359932Y425480D01*
X360944Y428817D01*
X361286Y432287D01*
Y457431D01*
X361437Y457929D01*
X361788Y461497D01*
X361437Y465065D01*
X360396Y468495D01*
X358706Y471657D01*
X356432Y474428D01*
X353660Y476703D01*
X350498Y478393D01*
X347068Y479433D01*
X343500Y479785D01*
X339932Y479433D01*
X336501Y478393D01*
X333340Y476703D01*
X330568Y474428D01*
X328294Y471657D01*
X326604Y468495D01*
X325563Y465065D01*
X325212Y461497D01*
X325563Y457929D01*
X325714Y457431D01*
Y439654D01*
X318353Y432292D01*
X267916D01*
X266665Y432338D01*
Y443610D01*
X267804Y444172D01*
X268206Y443863D01*
X270832Y442776D01*
X272380Y442572D01*
Y457738D01*
Y465972D01*
X266015Y465345D01*
X266274Y465927D01*
X266506Y466649D01*
X266711Y467513D01*
X266888Y468517D01*
X267161Y470950D01*
X267197Y471603D01*
X266665Y471866D01*
Y483138D01*
X231770D01*
X231105Y483340D01*
Y485627D01*
D02*
G37*
G36*
X804610Y327054D02*
X802541Y325466D01*
X800810Y323211D01*
X799723Y320585D01*
X799352Y317767D01*
X801411D01*
X802136Y319511D01*
X802605Y320929D01*
X804723Y317767D01*
X808970D01*
Y320929D01*
X802605D01*
X803105Y321951D01*
X803553Y323042D01*
X803949Y324204D01*
X804291Y325436D01*
X804610Y327054D01*
D02*
G37*
G36*
X689590Y328488D02*
X688042Y328284D01*
X685416Y327196D01*
X683161Y325466D01*
X681431Y323211D01*
X680343Y320585D01*
X679972Y317767D01*
X689590D01*
Y328488D01*
D02*
G37*
G36*
X800190Y315227D02*
X799352D01*
X799501Y314091D01*
X800190Y315227D01*
D02*
G37*
G36*
X808970D02*
X806424D01*
X808970Y311425D01*
Y315227D01*
D02*
G37*
G36*
Y306278D02*
X808035Y305810D01*
X806973Y305180D01*
X806713Y305003D01*
X807422Y304710D01*
X808970Y304506D01*
Y306278D01*
D02*
G37*
G36*
X689590Y315227D02*
X679972D01*
X680343Y312409D01*
X681431Y309783D01*
X683161Y307528D01*
X685416Y305797D01*
X688042Y304710D01*
X689590Y304506D01*
Y315227D01*
D02*
G37*
G36*
X113030Y145831D02*
X107899Y145427D01*
X102894Y144226D01*
X98139Y142256D01*
X93750Y139567D01*
X89836Y136224D01*
X86493Y132310D01*
X83804Y127921D01*
X81834Y123166D01*
X80633Y118161D01*
X80229Y113030D01*
X80633Y107899D01*
X81834Y102894D01*
X83804Y98139D01*
X86493Y93750D01*
X89836Y89836D01*
X93750Y86493D01*
X98139Y83804D01*
X102894Y81834D01*
X107899Y80633D01*
X113030Y80229D01*
X118161Y80633D01*
X123166Y81834D01*
X127921Y83804D01*
X132310Y86493D01*
X136224Y89836D01*
X139567Y93750D01*
X142256Y98139D01*
X144226Y102894D01*
X145427Y107899D01*
X145831Y113030D01*
X145427Y118161D01*
X144226Y123166D01*
X142256Y127921D01*
X139567Y132310D01*
X136224Y136224D01*
X132310Y139567D01*
X127921Y142256D01*
X123166Y144226D01*
X118161Y145427D01*
X113030Y145831D01*
D02*
G37*
G36*
X951230Y84111D02*
X946099Y83707D01*
X941094Y82506D01*
X936339Y80536D01*
X931950Y77847D01*
X928036Y74504D01*
X924693Y70590D01*
X922004Y66201D01*
X920034Y61446D01*
X918833Y56441D01*
X918429Y51310D01*
X918833Y46179D01*
X920034Y41174D01*
X922004Y36419D01*
X924693Y32030D01*
X928036Y28116D01*
X931950Y24773D01*
X936339Y22084D01*
X941094Y20114D01*
X946099Y18913D01*
X951230Y18509D01*
X956361Y18913D01*
X961366Y20114D01*
X966121Y22084D01*
X970510Y24773D01*
X974424Y28116D01*
X977767Y32030D01*
X980456Y36419D01*
X982426Y41174D01*
X983627Y46179D01*
X984031Y51310D01*
X983627Y56441D01*
X982426Y61446D01*
X980456Y66201D01*
X977767Y70590D01*
X974424Y74504D01*
X970510Y77847D01*
X966121Y80536D01*
X961366Y82506D01*
X956361Y83707D01*
X951230Y84111D01*
D02*
G37*
G36*
X50000Y82801D02*
X44869Y82397D01*
X39864Y81196D01*
X35109Y79226D01*
X30720Y76537D01*
X26806Y73194D01*
X23463Y69280D01*
X20774Y64891D01*
X18804Y60136D01*
X17603Y55131D01*
X17199Y50000D01*
X17603Y44869D01*
X18804Y39864D01*
X20774Y35109D01*
X23463Y30720D01*
X26806Y26806D01*
X30720Y23463D01*
X35109Y20774D01*
X39864Y18804D01*
X44869Y17603D01*
X50000Y17199D01*
X55131Y17603D01*
X60136Y18804D01*
X64891Y20774D01*
X69280Y23463D01*
X73194Y26806D01*
X76537Y30720D01*
X79226Y35109D01*
X81196Y39864D01*
X82397Y44869D01*
X82801Y50000D01*
X82397Y55131D01*
X81196Y60136D01*
X79226Y64891D01*
X76537Y69280D01*
X73194Y73194D01*
X69280Y76537D01*
X64891Y79226D01*
X60136Y81196D01*
X55131Y82397D01*
X50000Y82801D01*
D02*
G37*
%LPD*%
G36*
X757478Y736927D02*
X757787Y733419D01*
X758057Y731849D01*
X758405Y730401D01*
X758829Y729077D01*
X759331Y727875D01*
X759910Y726796D01*
X760566Y725840D01*
X761299Y725007D01*
X743580D01*
X744314Y725840D01*
X744970Y726796D01*
X745549Y727875D01*
X746050Y729077D01*
X746475Y730401D01*
X746822Y731849D01*
X747093Y733419D01*
X747286Y735112D01*
X747440Y738866D01*
X757440D01*
X757478Y736927D01*
D02*
G37*
G36*
X732078D02*
X732387Y733419D01*
X732657Y731849D01*
X733005Y730401D01*
X733429Y729077D01*
X733931Y727875D01*
X734510Y726796D01*
X735166Y725840D01*
X735899Y725007D01*
X718180D01*
X718914Y725840D01*
X719570Y726796D01*
X720149Y727875D01*
X720650Y729077D01*
X721075Y730401D01*
X721422Y731849D01*
X721693Y733419D01*
X721886Y735112D01*
X722040Y738866D01*
X732040D01*
X732078Y736927D01*
D02*
G37*
G36*
X702880Y737040D02*
X703278Y733059D01*
X703626Y731475D01*
X704074Y730161D01*
X704622Y729118D01*
X705269Y728346D01*
X706016Y727845D01*
X706862Y727614D01*
X707808Y727654D01*
X692780Y725007D01*
X692790Y725116D01*
X692798Y725424D01*
X692830Y735056D01*
X702830Y739436D01*
X702880Y737040D01*
D02*
G37*
G36*
X550468Y720391D02*
X550777Y717191D01*
X551047Y715891D01*
X551395Y714791D01*
X551819Y713891D01*
X552321Y713191D01*
X552900Y712691D01*
X553556Y712391D01*
X554289Y712291D01*
X535430Y712261D01*
X536380Y712363D01*
X537230Y712665D01*
X537980Y713167D01*
X538630Y713870D01*
X539180Y714772D01*
X539630Y715876D01*
X539980Y717179D01*
X540230Y718683D01*
X540380Y720387D01*
X540430Y722291D01*
X550430D01*
X550468Y720391D01*
D02*
G37*
G36*
X448808Y708688D02*
X448686Y709635D01*
X448321Y710482D01*
X447712Y711230D01*
X446860Y711878D01*
X445764Y712426D01*
X444424Y712874D01*
X442841Y713223D01*
X441015Y713472D01*
X438945Y713622D01*
X436631Y713672D01*
Y723672D01*
X438945Y723722D01*
X442841Y724120D01*
X444424Y724469D01*
X445764Y724918D01*
X446860Y725466D01*
X447712Y726114D01*
X448321Y726862D01*
X448686Y727709D01*
X448808Y728656D01*
Y708688D01*
D02*
G37*
G36*
X418653Y727709D02*
X419019Y726862D01*
X419627Y726114D01*
X420480Y725466D01*
X421576Y724918D01*
X422915Y724469D01*
X424498Y724120D01*
X426325Y723871D01*
X428395Y723722D01*
X430709Y723672D01*
Y713672D01*
X428395Y713622D01*
X424498Y713223D01*
X422915Y712874D01*
X421576Y712426D01*
X420480Y711878D01*
X419627Y711230D01*
X419019Y710482D01*
X418653Y709635D01*
X418531Y708688D01*
Y728656D01*
X418653Y727709D01*
D02*
G37*
G36*
X852485Y724828D02*
X856394Y721483D01*
X858078Y720291D01*
X859582Y719421D01*
X860906Y718871D01*
X862050Y718642D01*
X863015Y718734D01*
X863799Y719147D01*
X864402Y719881D01*
X854101Y701959D01*
X854492Y702905D01*
X854639Y703956D01*
X854541Y705110D01*
X854198Y706368D01*
X853610Y707730D01*
X852778Y709196D01*
X851700Y710767D01*
X850378Y712441D01*
X848811Y714219D01*
X846999Y716101D01*
X850260Y726982D01*
X852485Y724828D01*
D02*
G37*
G36*
X760566Y710234D02*
X759910Y709278D01*
X759331Y708199D01*
X758829Y706997D01*
X758405Y705672D01*
X758057Y704225D01*
X757787Y702655D01*
X757594Y700962D01*
X757440Y697207D01*
X747440D01*
X747401Y699146D01*
X747093Y702655D01*
X746822Y704225D01*
X746475Y705672D01*
X746050Y706997D01*
X745549Y708199D01*
X744970Y709278D01*
X744314Y710234D01*
X743580Y711067D01*
X761299D01*
X760566Y710234D01*
D02*
G37*
G36*
X709766D02*
X709110Y709278D01*
X708531Y708199D01*
X708029Y706997D01*
X707605Y705672D01*
X707257Y704225D01*
X706987Y702655D01*
X706794Y700962D01*
X706640Y697207D01*
X696640D01*
X696601Y699146D01*
X696292Y702655D01*
X696022Y704225D01*
X695675Y705672D01*
X695250Y706997D01*
X694749Y708199D01*
X694170Y709278D01*
X693514Y710234D01*
X692780Y711067D01*
X710499D01*
X709766Y710234D01*
D02*
G37*
G36*
X417301Y708213D02*
X416455Y707797D01*
X415709Y707104D01*
X415061Y706134D01*
X414514Y704886D01*
X414066Y703362D01*
X413718Y701559D01*
X413469Y699480D01*
X413320Y697123D01*
X413270Y694490D01*
X403270D01*
X403220Y697123D01*
X402822Y701559D01*
X402474Y703362D01*
X402026Y704886D01*
X401478Y706134D01*
X400831Y707104D01*
X400085Y707797D01*
X399239Y708213D01*
X398293Y708352D01*
X418247D01*
X417301Y708213D01*
D02*
G37*
G36*
X534061Y689622D02*
X533960Y690572D01*
X533660Y691422D01*
X533158Y692172D01*
X532456Y692822D01*
X531553Y693372D01*
X530450Y693822D01*
X529146Y694172D01*
X527641Y694422D01*
X525936Y694572D01*
X524030Y694622D01*
Y704622D01*
X525936Y704672D01*
X527641Y704822D01*
X529146Y705072D01*
X530450Y705422D01*
X531553Y705872D01*
X532456Y706422D01*
X533158Y707072D01*
X533660Y707822D01*
X533960Y708672D01*
X534061Y709622D01*
Y689622D01*
D02*
G37*
G36*
X871056Y694472D02*
X870400Y694172D01*
X869821Y693672D01*
X869319Y692972D01*
X868895Y692072D01*
X868547Y690972D01*
X868277Y689672D01*
X868084Y688172D01*
X867969Y686472D01*
X867930Y684572D01*
X857930D01*
X857891Y686472D01*
X857582Y689672D01*
X857312Y690972D01*
X856965Y692072D01*
X856541Y692972D01*
X856039Y693672D01*
X855460Y694172D01*
X854804Y694472D01*
X854070Y694572D01*
X871789D01*
X871056Y694472D01*
D02*
G37*
G36*
X553210Y686852D02*
X552360Y686552D01*
X551610Y686052D01*
X550960Y685352D01*
X550410Y684452D01*
X549960Y683352D01*
X549610Y682052D01*
X549360Y680552D01*
X549210Y678852D01*
X549160Y676952D01*
X539160D01*
X539110Y678852D01*
X538960Y680552D01*
X538710Y682052D01*
X538360Y683352D01*
X537910Y684452D01*
X537360Y685352D01*
X536710Y686052D01*
X535960Y686552D01*
X535110Y686852D01*
X534160Y686952D01*
X554160D01*
X553210Y686852D01*
D02*
G37*
G36*
X770190Y591735D02*
X770340Y590029D01*
X770590Y588525D01*
X770940Y587221D01*
X771390Y586117D01*
X771940Y585215D01*
X772590Y584513D01*
X773340Y584011D01*
X774190Y583710D01*
X775140Y583610D01*
X755140D01*
X756090Y583710D01*
X756940Y584011D01*
X757690Y584513D01*
X758340Y585215D01*
X758890Y586117D01*
X759340Y587221D01*
X759690Y588525D01*
X759940Y590029D01*
X760090Y591735D01*
X760140Y593640D01*
X770140D01*
X770190Y591735D01*
D02*
G37*
G36*
X691180D02*
X691330Y590029D01*
X691580Y588525D01*
X691930Y587221D01*
X692380Y586117D01*
X692930Y585215D01*
X693580Y584513D01*
X694330Y584011D01*
X695180Y583710D01*
X696130Y583610D01*
X676130D01*
X677080Y583710D01*
X677930Y584011D01*
X678680Y584513D01*
X679330Y585215D01*
X679880Y586117D01*
X680330Y587221D01*
X680680Y588525D01*
X680930Y590029D01*
X681080Y591735D01*
X681130Y593640D01*
X691130D01*
X691180Y591735D01*
D02*
G37*
G36*
X441711Y579814D02*
X439899Y577933D01*
X437011Y574481D01*
X435934Y572911D01*
X435101Y571445D01*
X434514Y570083D01*
X434170Y568824D01*
X434072Y567670D01*
X434218Y566619D01*
X434609Y565672D01*
X424323Y583610D01*
X424926Y582875D01*
X425710Y582462D01*
X426674Y582370D01*
X427818Y582598D01*
X429142Y583148D01*
X430646Y584019D01*
X432331Y585210D01*
X434195Y586723D01*
X438465Y590711D01*
X441711Y579814D01*
D02*
G37*
G36*
X531418Y590216D02*
X531727Y587016D01*
X531997Y585716D01*
X532345Y584616D01*
X532769Y583716D01*
X533271Y583016D01*
X533850Y582516D01*
X534506Y582216D01*
X535239Y582116D01*
X517520D01*
X518254Y582216D01*
X518910Y582516D01*
X519489Y583016D01*
X519991Y583716D01*
X520415Y584616D01*
X520762Y585716D01*
X521032Y587016D01*
X521226Y588516D01*
X521341Y590216D01*
X521380Y592116D01*
X531380D01*
X531418Y590216D01*
D02*
G37*
G36*
X886616Y583866D02*
X886925Y580666D01*
X887195Y579366D01*
X887543Y578266D01*
X887967Y577366D01*
X888469Y576666D01*
X889048Y576166D01*
X889704Y575866D01*
X890437Y575766D01*
X872718D01*
X873452Y575866D01*
X874108Y576166D01*
X874687Y576666D01*
X875188Y577366D01*
X875613Y578266D01*
X875960Y579366D01*
X876230Y580666D01*
X876423Y582166D01*
X876539Y583866D01*
X876578Y585766D01*
X886578D01*
X886616Y583866D01*
D02*
G37*
G36*
X695180Y545501D02*
X694330Y545201D01*
X693580Y544701D01*
X692930Y544001D01*
X692380Y543101D01*
X691930Y542001D01*
X691580Y540701D01*
X691330Y539201D01*
X691180Y537501D01*
X691130Y535601D01*
X681130D01*
X681080Y537501D01*
X680930Y539201D01*
X680680Y540701D01*
X680330Y542001D01*
X679880Y543101D01*
X679330Y544001D01*
X678680Y544701D01*
X677930Y545201D01*
X677080Y545501D01*
X676130Y545601D01*
X696130D01*
X695180Y545501D01*
D02*
G37*
G36*
X753266Y483587D02*
X753575Y480387D01*
X753845Y479087D01*
X754193Y477987D01*
X754617Y477087D01*
X755119Y476387D01*
X755698Y475887D01*
X756354Y475587D01*
X757087Y475487D01*
X739368D01*
X740102Y475587D01*
X740758Y475887D01*
X741337Y476387D01*
X741838Y477087D01*
X742263Y477987D01*
X742610Y479087D01*
X742880Y480387D01*
X743073Y481887D01*
X743189Y483587D01*
X743228Y485487D01*
X753228D01*
X753266Y483587D01*
D02*
G37*
G36*
X624453Y447668D02*
X623557Y448110D01*
X622545Y448295D01*
X621419Y448225D01*
X620178Y447899D01*
X618821Y447317D01*
X617349Y446479D01*
X615762Y445384D01*
X614060Y444034D01*
X612243Y442428D01*
X610310Y440566D01*
X602799Y447197D01*
X604143Y448574D01*
X607325Y452252D01*
X608103Y453328D01*
X608739Y454328D01*
X609234Y455253D01*
X609588Y456103D01*
X609800Y456877D01*
X609870Y457576D01*
X624453Y447668D01*
D02*
G37*
G36*
X526441Y447598D02*
X526352Y448334D01*
X526085Y448991D01*
X525640Y449572D01*
X525017Y450075D01*
X524216Y450500D01*
X523237Y450849D01*
X522080Y451119D01*
X520745Y451313D01*
X519232Y451429D01*
X517541Y451468D01*
Y461468D01*
X519232Y461507D01*
X520745Y461623D01*
X522080Y461816D01*
X523237Y462087D01*
X524216Y462435D01*
X525017Y462861D01*
X525640Y463364D01*
X526085Y463944D01*
X526352Y464602D01*
X526441Y465337D01*
Y447598D01*
D02*
G37*
G36*
X396245Y448787D02*
X396457Y447520D01*
X396811Y446236D01*
X397306Y444935D01*
X397942Y443616D01*
X398720Y442280D01*
X399639Y440927D01*
X400700Y439556D01*
X401902Y438168D01*
X403246Y436762D01*
X395539Y430326D01*
X394134Y431670D01*
X391375Y433932D01*
X390021Y434852D01*
X388685Y435630D01*
X387367Y436266D01*
X386065Y436761D01*
X384781Y437114D01*
X383515Y437327D01*
X382265Y437397D01*
X396174Y450036D01*
X396245Y448787D01*
D02*
G37*
G36*
X631012Y424668D02*
X629923Y424916D01*
X628761Y424951D01*
X627528Y424774D01*
X627072Y424637D01*
X627051Y424615D01*
X627007Y424456D01*
X626968Y424192D01*
X626934Y423821D01*
X626850Y421282D01*
X626840Y419377D01*
X618772D01*
X618609Y419235D01*
X616870Y417566D01*
X602799Y417637D01*
X605097Y420005D01*
X608633Y424105D01*
X609872Y425837D01*
X610759Y427357D01*
X611292Y428665D01*
X611474Y429762D01*
X611302Y430646D01*
X610778Y431319D01*
X609901Y431779D01*
X631012Y424668D01*
D02*
G37*
G36*
X748619Y450148D02*
X753791D01*
X753684Y450093D01*
X753588Y449926D01*
X753504Y449648D01*
X753431Y449258D01*
X753369Y448757D01*
X753279Y447422D01*
X753228Y444585D01*
X743228Y422514D01*
X743157Y424343D01*
X742945Y425831D01*
X742591Y426977D01*
X742096Y427782D01*
X741460Y428246D01*
X740682Y428368D01*
X739763Y428149D01*
X738702Y427588D01*
X737500Y426686D01*
X736157Y425443D01*
Y439585D01*
X737500Y441028D01*
X738702Y442530D01*
X739763Y444091D01*
X740682Y445710D01*
X741460Y447388D01*
X742096Y449124D01*
X742591Y450919D01*
X742945Y452773D01*
X743157Y454685D01*
X743228Y456656D01*
X748619Y450148D01*
D02*
G37*
G36*
X856195Y316385D02*
X862398Y307121D01*
X861508Y306975D01*
X860575Y306708D01*
X859599Y306320D01*
X858580Y305810D01*
X857519Y305180D01*
X856415Y304428D01*
X855268Y303556D01*
X852847Y301447D01*
X851571Y300211D01*
X845451Y308232D01*
X846522Y309354D01*
X848025Y311166D01*
X846909Y310994D01*
X845584Y310711D01*
X844361Y310366D01*
X843240Y309957D01*
X842220Y309486D01*
X841302Y308952D01*
X840485Y308355D01*
Y324638D01*
X841302Y324041D01*
X842220Y323507D01*
X843240Y323036D01*
X844361Y322628D01*
X845584Y322282D01*
X846909Y322000D01*
X848336Y321780D01*
X848340Y321779D01*
X848344Y321780D01*
X849771Y322000D01*
X851095Y322282D01*
X852319Y322628D01*
X853440Y323036D01*
X854460Y323507D01*
X855378Y324041D01*
X856195Y324638D01*
Y316385D01*
D02*
G37*
G36*
X743518Y334248D02*
X743662Y332794D01*
X743903Y331373D01*
X744239Y329986D01*
X744672Y328631D01*
X745201Y327310D01*
X745826Y326022D01*
X746547Y324768D01*
X747172Y323833D01*
X747732Y323507D01*
X748752Y323036D01*
X749873Y322628D01*
X751096Y322282D01*
X752421Y322000D01*
X753848Y321780D01*
X754233Y321749D01*
X754618Y321780D01*
X756044Y322000D01*
X757369Y322282D01*
X758593Y322628D01*
X759714Y323036D01*
X760734Y323507D01*
X761652Y324041D01*
X762468Y324638D01*
Y308355D01*
X761652Y308952D01*
X760734Y309486D01*
X759714Y309957D01*
X758593Y310366D01*
X757369Y310711D01*
X756044Y310994D01*
X754618Y311214D01*
X754233Y311245D01*
X753848Y311214D01*
X752421Y310994D01*
X751096Y310711D01*
X749873Y310366D01*
X748752Y309957D01*
X747732Y309486D01*
X746814Y308952D01*
X745997Y308355D01*
Y322134D01*
X736814Y321229D01*
Y308355D01*
X735998Y308952D01*
X735080Y309486D01*
X734060Y309957D01*
X732939Y310366D01*
X731715Y310711D01*
X730390Y310994D01*
X728964Y311214D01*
X728960Y311214D01*
X728956Y311214D01*
X727529Y310994D01*
X726204Y310711D01*
X724981Y310366D01*
X723860Y309957D01*
X722840Y309486D01*
X721922Y308952D01*
X721105Y308355D01*
Y324638D01*
X721922Y324041D01*
X722840Y323507D01*
X723860Y323036D01*
X724981Y322628D01*
X726204Y322282D01*
X727529Y322000D01*
X728956Y321780D01*
X728960Y321779D01*
X728964Y321780D01*
X730390Y322000D01*
X731715Y322282D01*
X732939Y322628D01*
X733548Y322850D01*
X733545Y322900D01*
X733470Y329938D01*
X743470Y335735D01*
X743518Y334248D01*
D02*
G37*
G36*
X881849Y308355D02*
X881032Y308952D01*
X880114Y309486D01*
X879094Y309957D01*
X877973Y310366D01*
X876749Y310711D01*
X875424Y310994D01*
X873998Y311214D01*
X873613Y311245D01*
X873228Y311214D01*
X871801Y310994D01*
X870476Y310711D01*
X869253Y310366D01*
X868132Y309957D01*
X867112Y309486D01*
X866194Y308952D01*
X865377Y308355D01*
Y324638D01*
X866194Y324041D01*
X867112Y323507D01*
X868132Y323036D01*
X869253Y322628D01*
X870476Y322282D01*
X871801Y322000D01*
X873228Y321780D01*
X873613Y321749D01*
X873998Y321780D01*
X875424Y322000D01*
X876749Y322282D01*
X877973Y322628D01*
X879094Y323036D01*
X880114Y323507D01*
X881032Y324041D01*
X881849Y324638D01*
Y308355D01*
D02*
G37*
G36*
X231786Y710588D02*
X231801Y711536D01*
X231563Y712384D01*
X231071Y713132D01*
X230324Y713781D01*
X229323Y714330D01*
X228068Y714779D01*
X226558Y715128D01*
X224795Y715377D01*
X222777Y715527D01*
X220505Y715577D01*
X221264Y725577D01*
X223679Y725627D01*
X227790Y726025D01*
X229487Y726373D01*
X230944Y726821D01*
X232163Y727368D01*
X233143Y728015D01*
X233883Y728762D01*
X234384Y729608D01*
X234647Y730554D01*
X231786Y710588D01*
D02*
G37*
G36*
X283708Y708688D02*
X283586Y709635D01*
X283221Y710482D01*
X282612Y711230D01*
X281760Y711878D01*
X280664Y712426D01*
X279324Y712874D01*
X277741Y713223D01*
X275915Y713472D01*
X273845Y713622D01*
X271531Y713672D01*
Y723672D01*
X273845Y723722D01*
X277741Y724120D01*
X279324Y724469D01*
X280664Y724918D01*
X281760Y725466D01*
X282612Y726114D01*
X283221Y726862D01*
X283586Y727709D01*
X283708Y728656D01*
Y708688D01*
D02*
G37*
G36*
X253553Y727709D02*
X253919Y726862D01*
X254527Y726114D01*
X255380Y725466D01*
X256476Y724918D01*
X257815Y724469D01*
X259398Y724120D01*
X261225Y723871D01*
X263295Y723722D01*
X265609Y723672D01*
Y713672D01*
X263295Y713622D01*
X259398Y713223D01*
X257815Y712874D01*
X256476Y712426D01*
X255380Y711878D01*
X254527Y711230D01*
X253919Y710482D01*
X253553Y709635D01*
X253431Y708688D01*
Y728656D01*
X253553Y727709D01*
D02*
G37*
G36*
X193661Y715890D02*
X193905Y715358D01*
X194313Y714889D01*
X194884Y714482D01*
X195619Y714138D01*
X196516Y713856D01*
X197577Y713637D01*
X198801Y713481D01*
X200188Y713387D01*
X201739Y713355D01*
Y703355D01*
X200188Y703324D01*
X197577Y703074D01*
X196516Y702855D01*
X195619Y702573D01*
X194884Y702229D01*
X194313Y701822D01*
X193905Y701353D01*
X193661Y700821D01*
X193579Y700226D01*
Y716485D01*
X193661Y715890D01*
D02*
G37*
G36*
X218445Y448787D02*
X218657Y447520D01*
X219011Y446236D01*
X219506Y444935D01*
X220142Y443616D01*
X220920Y442280D01*
X221839Y440927D01*
X222900Y439556D01*
X224102Y438168D01*
X225445Y436762D01*
X217739Y430326D01*
X216334Y431670D01*
X213575Y433932D01*
X212221Y434852D01*
X210885Y435630D01*
X209567Y436266D01*
X208265Y436761D01*
X206981Y437114D01*
X205715Y437327D01*
X204465Y437397D01*
X218374Y450036D01*
X218445Y448787D01*
D02*
G37*
D18*
X420700Y564621D02*
D03*
X344500D02*
D03*
X762330D02*
D03*
X686130D02*
D03*
D19*
X211420Y443717D02*
D03*
Y466577D02*
D03*
X389220Y443717D02*
D03*
Y466577D02*
D03*
D20*
X679840Y452607D02*
D03*
D21*
X621840Y429607D02*
D03*
Y452607D02*
D03*
Y475607D02*
D03*
D41*
X281280Y593587D02*
X300320Y612627D01*
X281280Y575797D02*
Y593587D01*
X336134Y564621D02*
X344500D01*
X306670Y535157D02*
X336134Y564621D01*
X259680Y535157D02*
X306670D01*
X234280Y560557D02*
X259680Y535157D01*
X234280Y560557D02*
Y575797D01*
X187280D02*
X234280D01*
X240630Y414507D02*
X325720D01*
X117440Y568177D02*
Y708355D01*
Y568177D02*
X183480Y502137D01*
X342230Y517377D02*
X447640D01*
X500980Y464037D01*
X343500Y432287D02*
Y461497D01*
X325720Y414507D02*
X343500Y432287D01*
X211420Y443717D02*
X240630Y414507D01*
X500980Y439907D02*
Y464037D01*
X635600Y794653D02*
X636016D01*
X272380Y459008D02*
X292751D01*
X330800Y497057D02*
X436210D01*
X292751Y459008D02*
X330800Y497057D01*
X436210D02*
X448910Y484357D01*
Y457738D02*
Y484357D01*
X815286Y270997D02*
X860786Y316497D01*
X658460Y270997D02*
X815286D01*
X593690Y335767D02*
X658460Y270997D01*
X593690Y335767D02*
Y372597D01*
X502250Y399267D02*
X560670D01*
X564480Y403077D01*
X565750D01*
X593690Y431017D01*
X500980Y439907D02*
X517541Y456468D01*
X535270D01*
X593690Y431017D02*
X615280Y452607D01*
X621840D01*
X573720Y381487D02*
X621840Y429607D01*
X451450Y381487D02*
X573720D01*
X389220Y443717D02*
X451450Y381487D01*
X635600Y502137D02*
X668620D01*
X621840Y488377D02*
X635600Y502137D01*
X621840Y475607D02*
Y488377D01*
X668620Y502137D02*
X688940Y481817D01*
X715610D01*
X714340Y522457D02*
X743550D01*
X773628Y492379D01*
Y462818D02*
Y492379D01*
X748228Y462818D02*
Y487299D01*
X733390Y502137D02*
X748228Y487299D01*
X700370Y502137D02*
X733390D01*
X551780Y517377D02*
Y569447D01*
X686130Y516377D02*
X700370Y502137D01*
X686130Y516377D02*
Y564621D01*
X560670Y456468D02*
X579809Y475607D01*
X621840D01*
X560670Y438637D02*
Y456468D01*
X545430Y423397D02*
X560670Y438637D01*
X487010Y423397D02*
X545430D01*
X452669Y457738D02*
X487010Y423397D01*
X448910Y457738D02*
X452669D01*
X748228Y444585D02*
Y462818D01*
Y389975D02*
Y444585D01*
X706720Y403077D02*
X748228Y444585D01*
X638140Y403077D02*
X706720D01*
X621840Y419377D02*
X638140Y403077D01*
X621840Y419377D02*
Y429607D01*
X636016Y794653D02*
X643220Y801857D01*
X727040D01*
X625440Y744707D02*
X635600D01*
X594960Y714227D02*
X625440Y744707D01*
X594960Y699622D02*
Y714227D01*
X738470Y319433D02*
X741406Y316497D01*
X738470Y319433D02*
Y380217D01*
X748228Y389975D01*
X810240Y316497D02*
Y384647D01*
X773628Y421259D02*
X810240Y384647D01*
X773628Y421259D02*
Y462818D01*
X881578Y563097D02*
Y626999D01*
X862930Y645647D02*
X881578Y626999D01*
X862930Y645647D02*
Y707242D01*
X272380Y459008D02*
Y485627D01*
X255870Y502137D02*
X272380Y485627D01*
X183480Y502137D02*
X255870D01*
X806415Y801857D02*
X901030Y707242D01*
X727040Y801857D02*
X806415D01*
X727040Y718037D02*
Y745977D01*
X788987Y781184D02*
X862930Y707242D01*
X702188Y782807D02*
X788987Y781184D01*
X697830Y782807D02*
X702188D01*
X419446Y564621D02*
X483200Y628375D01*
X752440Y718037D02*
Y740897D01*
X732120Y761217D02*
X752440Y740897D01*
X582260Y761217D02*
X732120D01*
X545430Y724387D02*
X582260Y761217D01*
X906110Y563965D02*
Y704067D01*
X697830Y721847D02*
X701640Y718037D01*
X697830Y721847D02*
Y747247D01*
X544160Y699622D02*
X545430Y700892D01*
Y724387D01*
X727040Y667237D02*
Y718037D01*
X762330Y564621D02*
X765140Y567431D01*
Y671047D01*
X752440Y683747D02*
X765140Y671047D01*
X752440Y683747D02*
Y718037D01*
X686130Y564621D02*
Y664427D01*
X701640Y679937D01*
Y718037D01*
X560670Y456468D02*
Y508487D01*
X551780Y517377D02*
X560670Y508487D01*
X551780Y569447D02*
Y598657D01*
X594960Y641837D01*
Y699622D01*
X483200Y679937D02*
X502885Y699622D01*
X483200Y628375D02*
Y679937D01*
X544160Y639297D02*
Y699622D01*
X526380Y621517D02*
X544160Y639297D01*
X526380Y569447D02*
Y621517D01*
X502885Y699622D02*
X544160D01*
X419446Y564621D02*
X420700D01*
X408270Y639297D02*
Y718672D01*
X381600Y612627D02*
X408270Y639297D01*
X300320Y612627D02*
X381600D01*
X241265Y720577D02*
X243170Y718672D01*
X213960Y720577D02*
X241265D01*
X201739Y708355D02*
X213960Y720577D01*
X180940Y708355D02*
X201739D01*
X410759Y457738D02*
X423510D01*
X401920Y466577D02*
X410759Y457738D01*
X389220Y466577D02*
X401920D01*
X234229Y457738D02*
X245710D01*
X225390Y466577D02*
X234229Y457738D01*
X211420Y466577D02*
X225390D01*
X408270Y718672D02*
X459070D01*
X243170D02*
X293970D01*
X787600Y293857D02*
X810240Y316497D01*
X701640Y293857D02*
X787600D01*
X690860Y304637D02*
X701640Y293857D01*
X690860Y304637D02*
Y316497D01*
X860786D02*
X886440D01*
X835894D02*
X860786D01*
X741406D02*
X767060D01*
X716514D02*
X741406D01*
D42*
X113030Y113030D02*
D03*
Y433070D02*
D03*
X50000Y950000D02*
D03*
X950000D02*
D03*
X50000Y50000D02*
D03*
X951230Y51310D02*
D03*
D43*
X281280Y575797D02*
D03*
X234280D02*
D03*
X187280D02*
D03*
D44*
X862930Y707242D02*
D03*
X881578Y563097D02*
D03*
X748228Y462818D02*
D03*
X535270Y456468D02*
D03*
X526380Y569447D02*
D03*
D45*
X901030Y707242D02*
D03*
X906978Y563097D02*
D03*
X773628Y462818D02*
D03*
X560670Y456468D02*
D03*
X551780Y569447D02*
D03*
D46*
X245710Y457738D02*
D03*
X423510D02*
D03*
D47*
X273650D02*
D03*
X448910D02*
D03*
D48*
X701640Y718037D02*
D03*
X727040D02*
D03*
X752440D02*
D03*
D49*
X727040Y667237D02*
D03*
D50*
X886440Y316497D02*
D03*
X860786D02*
D03*
X835894D02*
D03*
X810240D02*
D03*
X767060D02*
D03*
X741406D02*
D03*
X716514D02*
D03*
X690860D02*
D03*
D51*
X155540Y657555D02*
D03*
D52*
X117440Y708355D02*
D03*
X180940D02*
D03*
D53*
X408270Y718672D02*
D03*
X293970D02*
D03*
X243170D02*
D03*
X459070D02*
D03*
D54*
X594960Y699622D02*
D03*
D55*
X544160D02*
D03*
D56*
X342230Y517377D02*
D03*
X343500Y461497D02*
D03*
X593690Y372597D02*
D03*
Y431017D02*
D03*
X502250Y399267D02*
D03*
X500980Y439907D02*
D03*
X715610Y481817D02*
D03*
X714340Y522457D02*
D03*
X635600Y744707D02*
D03*
Y791697D02*
D03*
X697830Y782807D02*
D03*
X727040Y801857D02*
D03*
Y745977D02*
D03*
X697830Y747247D02*
D03*
M02*
