<svg width="330mm" height="179mm" viewBox="0 0 330 179" xmlns="http://www.w3.org/2000/svg" version="1.1" preserveAspectRatio="xMidYMid meet"><g id="svgGroup" stroke-linecap="round" fill-rule="evenodd" font-size="9pt" stroke="#000" stroke-width="0.25mm" fill="none" style="stroke:#000;stroke-width:0.25mm;fill:none"><path d="M 0 95 L 0 105.5 L 2 105.5 L 2 114.375 L 4.95 114.375 L 4.95 113.125 L 7.6 113.125 L 7.6 114.375 L 10.25 114.375 L 10.25 117.625 L 7.6 117.625 L 7.6 118.875 L 4.95 118.875 L 4.95 117.625 L 2 117.625 L 2 126.5 L 0 126.5 L 0 147.5 L 2 147.5 L 2 156.375 L 4.95 156.375 L 4.95 155.125 L 7.6 155.125 L 7.6 156.375 L 10.25 156.375 L 10.25 159.625 L 7.6 159.625 L 7.6 160.875 L 4.95 160.875 L 4.95 159.625 L 2 159.625 L 2 168.5 L 0 168.5 L 0 179 L 14.75 179 L 14.75 177 L 27.875 177 L 27.875 174.05 L 26.625 174.05 L 26.625 171.4 L 27.875 171.4 L 27.875 168.75 L 31.125 168.75 L 31.125 171.4 L 32.375 171.4 L 32.375 174.05 L 31.125 174.05 L 31.125 177 L 44.25 177 L 44.25 179 L 73.75 179 L 73.75 177 L 86.875 177 L 86.875 174.05 L 85.625 174.05 L 85.625 171.4 L 86.875 171.4 L 86.875 168.75 L 90.125 168.75 L 90.125 171.4 L 91.375 171.4 L 91.375 174.05 L 90.125 174.05 L 90.125 177 L 103.25 177 L 103.25 179 L 118 179 L 118 168.5 L 116 168.5 L 116 159.625 L 113.05 159.625 L 113.05 160.875 L 110.4 160.875 L 110.4 159.625 L 107.75 159.625 L 107.75 156.375 L 110.4 156.375 L 110.4 155.125 L 113.05 155.125 L 113.05 156.375 L 116 156.375 L 116 147.5 L 118 147.5 L 118 126.5 L 116 126.5 L 116 117.625 L 113.05 117.625 L 113.05 118.875 L 110.4 118.875 L 110.4 117.625 L 107.75 117.625 L 107.75 114.375 L 110.4 114.375 L 110.4 113.125 L 113.05 113.125 L 113.05 114.375 L 116 114.375 L 116 105.5 L 118 105.5 L 118 95 L 103.25 95 L 103.25 97 L 90.125 97 L 90.125 99.95 L 91.375 99.95 L 91.375 102.6 L 90.125 102.6 L 90.125 105.25 L 86.875 105.25 L 86.875 102.6 L 85.625 102.6 L 85.625 99.95 L 86.875 99.95 L 86.875 97 L 73.75 97 L 73.75 95 L 44.25 95 L 44.25 97 L 31.125 97 L 31.125 99.95 L 32.375 99.95 L 32.375 102.6 L 31.125 102.6 L 31.125 105.25 L 27.875 105.25 L 27.875 102.6 L 26.625 102.6 L 26.625 99.95 L 27.875 99.95 L 27.875 97 L 14.75 97 L 14.75 95 L 0 95 Z" id="front_outsideCutPath" stroke="#000000" stroke-width="0.1" style="stroke:#000000;stroke-width:0.1" vector-effect="non-scaling-stroke"/><path d="M 123 95 L 123 105.5 L 121 105.5 L 121 114.375 L 124.25 114.375 L 124.25 116 L 124.25 117.625 L 121 117.625 L 121 126.5 L 123 126.5 L 123 147.5 L 121 147.5 L 121 156.375 L 124.25 156.375 L 124.25 158 L 124.25 159.625 L 121 159.625 L 121 168.5 L 123 168.5 L 123 179 L 132 179 L 132 177 L 141.375 177 L 141.375 174.05 L 140.125 174.05 L 140.125 171.4 L 141.375 171.4 L 141.375 168.75 L 144.625 168.75 L 144.625 171.4 L 145.875 171.4 L 145.875 174.05 L 144.625 174.05 L 144.625 177 L 154 177 L 154 179 L 176 179 L 176 177 L 185.375 177 L 185.375 174.05 L 184.125 174.05 L 184.125 171.4 L 185.375 171.4 L 185.375 168.75 L 188.625 168.75 L 188.625 171.4 L 189.875 171.4 L 189.875 174.05 L 188.625 174.05 L 188.625 177 L 198 177 L 198 179 L 207 179 L 207 168.5 L 209 168.5 L 209 159.625 L 205.75 159.625 L 205.75 158 L 205.75 156.375 L 209 156.375 L 209 147.5 L 207 147.5 L 207 126.5 L 209 126.5 L 209 117.625 L 205.75 117.625 L 205.75 116 L 205.75 114.375 L 209 114.375 L 209 105.5 L 207 105.5 L 207 95 L 198 95 L 198 97 L 188.625 97 L 188.625 99.95 L 189.875 99.95 L 189.875 102.6 L 188.625 102.6 L 188.625 105.25 L 185.375 105.25 L 185.375 102.6 L 184.125 102.6 L 184.125 99.95 L 185.375 99.95 L 185.375 97 L 176 97 L 176 95 L 154 95 L 154 97 L 144.625 97 L 144.625 99.95 L 145.875 99.95 L 145.875 102.6 L 144.625 102.6 L 144.625 105.25 L 141.375 105.25 L 141.375 102.6 L 140.125 102.6 L 140.125 99.95 L 141.375 99.95 L 141.375 97 L 132 97 L 132 95 L 123 95 Z" id="left_outsideCutPath" stroke="#000000" stroke-width="0.1" style="stroke:#000000;stroke-width:0.1" vector-effect="non-scaling-stroke"/><path d="M 214 93 L 214 102 L 212 102 L 212 111.375 L 215.25 111.375 L 215.25 113 L 215.25 114.625 L 212 114.625 L 212 124 L 214 124 L 214 146 L 212 146 L 212 155.375 L 215.25 155.375 L 215.25 157 L 215.25 158.625 L 212 158.625 L 212 168 L 214 168 L 214 177 L 226.75 177 L 226.75 179 L 239.875 179 L 239.875 175.75 L 241.5 175.75 L 243.125 175.75 L 243.125 179 L 256.25 179 L 256.25 177 L 285.75 177 L 285.75 179 L 298.875 179 L 298.875 175.75 L 300.5 175.75 L 302.125 175.75 L 302.125 179 L 315.25 179 L 315.25 177 L 328 177 L 328 168 L 330 168 L 330 158.625 L 326.75 158.625 L 326.75 157 L 326.75 155.375 L 330 155.375 L 330 146 L 328 146 L 328 124 L 330 124 L 330 114.625 L 326.75 114.625 L 326.75 113 L 326.75 111.375 L 330 111.375 L 330 102 L 328 102 L 328 93 L 315.25 93 L 315.25 91 L 302.125 91 L 302.125 94.25 L 300.5 94.25 L 298.875 94.25 L 298.875 91 L 285.75 91 L 285.75 93 L 256.25 93 L 256.25 91 L 243.125 91 L 243.125 94.25 L 241.5 94.25 L 239.875 94.25 L 239.875 91 L 226.75 91 L 226.75 93 L 214 93 Z" id="top_outsideCutPath" stroke="#000000" stroke-width="0.1" style="stroke:#000000;stroke-width:0.1" vector-effect="non-scaling-stroke"/><path d="M 0 8 L 0 18.5 L 2 18.5 L 2 27.375 L 4.95 27.375 L 4.95 26.125 L 7.6 26.125 L 7.6 27.375 L 10.25 27.375 L 10.25 30.625 L 7.6 30.625 L 7.6 31.875 L 4.95 31.875 L 4.95 30.625 L 2 30.625 L 2 39.5 L 0 39.5 L 0 60.5 L 2 60.5 L 2 69.375 L 4.95 69.375 L 4.95 68.125 L 7.6 68.125 L 7.6 69.375 L 10.25 69.375 L 10.25 72.625 L 7.6 72.625 L 7.6 73.875 L 4.95 73.875 L 4.95 72.625 L 2 72.625 L 2 81.5 L 0 81.5 L 0 92 L 14.75 92 L 14.75 90 L 27.875 90 L 27.875 87.05 L 26.625 87.05 L 26.625 84.4 L 27.875 84.4 L 27.875 81.75 L 31.125 81.75 L 31.125 84.4 L 32.375 84.4 L 32.375 87.05 L 31.125 87.05 L 31.125 90 L 44.25 90 L 44.25 92 L 73.75 92 L 73.75 90 L 86.875 90 L 86.875 87.05 L 85.625 87.05 L 85.625 84.4 L 86.875 84.4 L 86.875 81.75 L 90.125 81.75 L 90.125 84.4 L 91.375 84.4 L 91.375 87.05 L 90.125 87.05 L 90.125 90 L 103.25 90 L 103.25 92 L 118 92 L 118 81.5 L 116 81.5 L 116 72.625 L 113.05 72.625 L 113.05 73.875 L 110.4 73.875 L 110.4 72.625 L 107.75 72.625 L 107.75 69.375 L 110.4 69.375 L 110.4 68.125 L 113.05 68.125 L 113.05 69.375 L 116 69.375 L 116 60.5 L 118 60.5 L 118 39.5 L 116 39.5 L 116 30.625 L 113.05 30.625 L 113.05 31.875 L 110.4 31.875 L 110.4 30.625 L 107.75 30.625 L 107.75 27.375 L 110.4 27.375 L 110.4 26.125 L 113.05 26.125 L 113.05 27.375 L 116 27.375 L 116 18.5 L 118 18.5 L 118 8 L 103.25 8 L 103.25 10 L 90.125 10 L 90.125 12.95 L 91.375 12.95 L 91.375 15.6 L 90.125 15.6 L 90.125 18.25 L 86.875 18.25 L 86.875 15.6 L 85.625 15.6 L 85.625 12.95 L 86.875 12.95 L 86.875 10 L 73.75 10 L 73.75 8 L 44.25 8 L 44.25 10 L 31.125 10 L 31.125 12.95 L 32.375 12.95 L 32.375 15.6 L 31.125 15.6 L 31.125 18.25 L 27.875 18.25 L 27.875 15.6 L 26.625 15.6 L 26.625 12.95 L 27.875 12.95 L 27.875 10 L 14.75 10 L 14.75 8 L 0 8 Z" id="back_outsideCutPath" stroke="#000000" stroke-width="0.1" style="stroke:#000000;stroke-width:0.1" vector-effect="non-scaling-stroke"/><path d="M 123 8 L 123 18.5 L 121 18.5 L 121 27.375 L 124.25 27.375 L 124.25 29 L 124.25 30.625 L 121 30.625 L 121 39.5 L 123 39.5 L 123 60.5 L 121 60.5 L 121 69.375 L 124.25 69.375 L 124.25 71 L 124.25 72.625 L 121 72.625 L 121 81.5 L 123 81.5 L 123 92 L 132 92 L 132 90 L 141.375 90 L 141.375 87.05 L 140.125 87.05 L 140.125 84.4 L 141.375 84.4 L 141.375 81.75 L 144.625 81.75 L 144.625 84.4 L 145.875 84.4 L 145.875 87.05 L 144.625 87.05 L 144.625 90 L 154 90 L 154 92 L 176 92 L 176 90 L 185.375 90 L 185.375 87.05 L 184.125 87.05 L 184.125 84.4 L 185.375 84.4 L 185.375 81.75 L 188.625 81.75 L 188.625 84.4 L 189.875 84.4 L 189.875 87.05 L 188.625 87.05 L 188.625 90 L 198 90 L 198 92 L 207 92 L 207 81.5 L 209 81.5 L 209 72.625 L 205.75 72.625 L 205.75 71 L 205.75 69.375 L 209 69.375 L 209 60.5 L 207 60.5 L 207 39.5 L 209 39.5 L 209 30.625 L 205.75 30.625 L 205.75 29 L 205.75 27.375 L 209 27.375 L 209 18.5 L 207 18.5 L 207 8 L 198 8 L 198 10 L 188.625 10 L 188.625 12.95 L 189.875 12.95 L 189.875 15.6 L 188.625 15.6 L 188.625 18.25 L 185.375 18.25 L 185.375 15.6 L 184.125 15.6 L 184.125 12.95 L 185.375 12.95 L 185.375 10 L 176 10 L 176 8 L 154 8 L 154 10 L 144.625 10 L 144.625 12.95 L 145.875 12.95 L 145.875 15.6 L 144.625 15.6 L 144.625 18.25 L 141.375 18.25 L 141.375 15.6 L 140.125 15.6 L 140.125 12.95 L 141.375 12.95 L 141.375 10 L 132 10 L 132 8 L 123 8 Z" id="right_outsideCutPath" stroke="#000000" stroke-width="0.1" style="stroke:#000000;stroke-width:0.1" vector-effect="non-scaling-stroke"/><path d="M 214 2 L 214 11 L 212 11 L 212 20.375 L 215.25 20.375 L 215.25 22 L 215.25 23.625 L 212 23.625 L 212 33 L 214 33 L 214 55 L 212 55 L 212 64.375 L 215.25 64.375 L 215.25 66 L 215.25 67.625 L 212 67.625 L 212 77 L 214 77 L 214 86 L 226.75 86 L 226.75 88 L 239.875 88 L 239.875 84.75 L 241.5 84.75 L 243.125 84.75 L 243.125 88 L 256.25 88 L 256.25 86 L 285.75 86 L 285.75 88 L 298.875 88 L 298.875 84.75 L 300.5 84.75 L 302.125 84.75 L 302.125 88 L 315.25 88 L 315.25 86 L 328 86 L 328 77 L 330 77 L 330 67.625 L 326.75 67.625 L 326.75 66 L 326.75 64.375 L 330 64.375 L 330 55 L 328 55 L 328 33 L 330 33 L 330 23.625 L 326.75 23.625 L 326.75 22 L 326.75 20.375 L 330 20.375 L 330 11 L 328 11 L 328 2 L 315.25 2 L 315.25 0 L 302.125 0 L 302.125 3.25 L 300.5 3.25 L 298.875 3.25 L 298.875 0 L 285.75 0 L 285.75 2 L 256.25 2 L 256.25 0 L 243.125 0 L 243.125 3.25 L 241.5 3.25 L 239.875 3.25 L 239.875 0 L 226.75 0 L 226.75 2 L 214 2 Z" id="bottom_outsideCutPath" stroke="#000000" stroke-width="0.1" style="stroke:#000000;stroke-width:0.1" vector-effect="non-scaling-stroke"/></g></svg>