<svg width="286mm" height="163mm" viewBox="0 0 286 163" xmlns="http://www.w3.org/2000/svg" version="1.1" preserveAspectRatio="xMidYMid meet"><g id="svgGroup" stroke-linecap="round" fill-rule="evenodd" font-size="9pt" stroke="#000" stroke-width="0.25mm" fill="none" style="stroke:#000;stroke-width:0.25mm;fill:none"><path d="M 0 83 L 0 93 L 3 93 L 3 101.375 L 4.95 101.375 L 4.95 100.125 L 7.6 100.125 L 7.6 101.375 L 10.25 101.375 L 10.25 104.625 L 7.6 104.625 L 7.6 105.875 L 4.95 105.875 L 4.95 104.625 L 3 104.625 L 3 113 L 0 113 L 0 133 L 3 133 L 3 141.375 L 4.95 141.375 L 4.95 140.125 L 7.6 140.125 L 7.6 141.375 L 10.25 141.375 L 10.25 144.625 L 7.6 144.625 L 7.6 145.875 L 4.95 145.875 L 4.95 144.625 L 3 144.625 L 3 153 L 0 153 L 0 163 L 12.5 163 L 12.5 160 L 23.375 160 L 23.375 158.05 L 22.125 158.05 L 22.125 155.4 L 23.375 155.4 L 23.375 152.75 L 26.625 152.75 L 26.625 155.4 L 27.875 155.4 L 27.875 158.05 L 26.625 158.05 L 26.625 160 L 37.5 160 L 37.5 163 L 62.5 163 L 62.5 160 L 73.375 160 L 73.375 158.05 L 72.125 158.05 L 72.125 155.4 L 73.375 155.4 L 73.375 152.75 L 76.625 152.75 L 76.625 155.4 L 77.875 155.4 L 77.875 158.05 L 76.625 158.05 L 76.625 160 L 87.5 160 L 87.5 163 L 100 163 L 100 153 L 97 153 L 97 144.625 L 95.05 144.625 L 95.05 145.875 L 92.4 145.875 L 92.4 144.625 L 89.75 144.625 L 89.75 141.375 L 92.4 141.375 L 92.4 140.125 L 95.05 140.125 L 95.05 141.375 L 97 141.375 L 97 133 L 100 133 L 100 113 L 97 113 L 97 104.625 L 95.05 104.625 L 95.05 105.875 L 92.4 105.875 L 92.4 104.625 L 89.75 104.625 L 89.75 101.375 L 92.4 101.375 L 92.4 100.125 L 95.05 100.125 L 95.05 101.375 L 97 101.375 L 97 93 L 100 93 L 100 83 L 87.5 83 L 87.5 86 L 76.625 86 L 76.625 87.95 L 77.875 87.95 L 77.875 90.6 L 76.625 90.6 L 76.625 93.25 L 73.375 93.25 L 73.375 90.6 L 72.125 90.6 L 72.125 87.95 L 73.375 87.95 L 73.375 86 L 62.5 86 L 62.5 83 L 37.5 83 L 37.5 86 L 26.625 86 L 26.625 87.95 L 27.875 87.95 L 27.875 90.6 L 26.625 90.6 L 26.625 93.25 L 23.375 93.25 L 23.375 90.6 L 22.125 90.6 L 22.125 87.95 L 23.375 87.95 L 23.375 86 L 12.5 86 L 12.5 83 L 0 83 Z" id="front_outsideCutPath" stroke="#FF0000" stroke-width="0.1" style="stroke:#FF0000;stroke-width:0.1" vector-effect="non-scaling-stroke"/><path d="M 61.66 129.043 L 60.363 129.043 L 60.363 123.504 A 3.666 3.666 0 0 0 60.321 122.929 Q 60.273 122.626 60.17 122.385 A 1.543 1.543 0 0 0 59.887 121.941 A 1.462 1.462 0 0 0 59.287 121.559 Q 59.052 121.475 58.762 121.444 A 3.438 3.438 0 0 0 58.395 121.426 Q 57.509 121.426 56.936 121.741 A 1.828 1.828 0 0 0 56.426 122.152 A 2.12 2.12 0 0 0 56.057 122.796 Q 55.835 123.388 55.805 124.269 A 8.308 8.308 0 0 0 55.801 124.551 L 55.801 129.043 L 54.504 129.043 L 54.504 120.48 L 55.559 120.48 L 55.77 121.652 L 55.832 121.652 A 2.626 2.626 0 0 1 56.861 120.716 A 3.158 3.158 0 0 1 56.949 120.672 Q 57.668 120.324 58.551 120.324 Q 59.577 120.324 60.266 120.652 A 2.33 2.33 0 0 1 60.879 121.07 A 2.248 2.248 0 0 1 61.427 121.93 Q 61.558 122.284 61.615 122.723 A 5.66 5.66 0 0 1 61.66 123.457 L 61.66 129.043 Z M 36.746 120.48 L 36.746 121.488 L 34.566 121.488 L 34.566 129.043 L 33.27 129.043 L 33.27 121.488 L 31.738 121.488 L 31.738 120.902 L 33.27 120.433 L 33.27 119.957 A 5.256 5.256 0 0 1 33.392 118.766 Q 33.772 117.141 35.325 116.86 A 3.942 3.942 0 0 1 36.027 116.801 A 4.176 4.176 0 0 1 36.618 116.846 Q 37.078 116.912 37.621 117.074 L 37.285 118.113 Q 36.752 117.941 36.33 117.891 A 2.789 2.789 0 0 0 36.004 117.871 A 1.749 1.749 0 0 0 35.582 117.919 A 1.123 1.123 0 0 0 34.918 118.359 A 1.501 1.501 0 0 0 34.72 118.759 Q 34.566 119.214 34.566 119.926 L 34.566 120.48 L 36.746 120.48 Z M 68.262 127.972 L 68.262 128.965 A 1.276 1.276 0 0 1 68.11 129.025 Q 67.923 129.087 67.641 129.133 A 5.621 5.621 0 0 1 67.274 129.18 Q 67.101 129.197 66.946 129.199 A 3.325 3.325 0 0 1 66.902 129.199 A 3.387 3.387 0 0 1 65.904 129.065 Q 64.807 128.726 64.52 127.534 A 4.076 4.076 0 0 1 64.418 126.582 L 64.418 121.488 L 63.191 121.488 L 63.191 120.863 L 64.418 120.324 L 64.965 118.496 L 65.715 118.496 L 65.715 120.48 L 68.199 120.48 L 68.199 121.488 L 65.715 121.488 L 65.715 126.527 A 2.611 2.611 0 0 0 65.753 126.986 Q 65.832 127.433 66.082 127.715 Q 66.449 128.129 67.09 128.129 A 4.259 4.259 0 0 0 67.714 128.084 A 3.925 3.925 0 0 0 67.754 128.078 Q 68.06 128.029 68.244 127.977 A 1.951 1.951 0 0 0 68.262 127.972 Z M 43.238 120.418 L 43.059 121.621 A 5.716 5.716 0 0 0 42.648 121.545 Q 42.443 121.515 42.26 121.507 A 3.042 3.042 0 0 0 42.121 121.504 A 2.247 2.247 0 0 0 40.461 122.221 A 3.074 3.074 0 0 0 40.344 122.347 A 2.962 2.962 0 0 0 39.629 124.01 A 3.936 3.936 0 0 0 39.605 124.449 L 39.605 129.043 L 38.309 129.043 L 38.309 120.48 L 39.379 120.48 L 39.527 122.066 L 39.59 122.066 A 4.38 4.38 0 0 1 40.08 121.367 A 3.345 3.345 0 0 1 40.738 120.777 A 2.585 2.585 0 0 1 42.215 120.324 A 5.954 5.954 0 0 1 42.748 120.347 A 4.345 4.345 0 0 1 43.238 120.418 Z M 52.111 126.057 A 6.699 6.699 0 0 0 52.23 124.754 Q 52.23 123.921 52.054 123.23 A 4.038 4.038 0 0 0 51.172 121.519 A 3.395 3.395 0 0 0 49.596 120.503 A 4.358 4.358 0 0 0 48.316 120.324 A 5.037 5.037 0 0 0 47.412 120.402 A 3.43 3.43 0 0 0 45.41 121.492 Q 44.363 122.66 44.363 124.754 A 6.488 6.488 0 0 0 44.445 125.805 A 4.798 4.798 0 0 0 44.848 127.113 A 4.263 4.263 0 0 0 44.942 127.298 A 3.511 3.511 0 0 0 46.223 128.66 Q 47.113 129.199 48.262 129.199 A 5.036 5.036 0 0 0 49.141 129.126 A 3.457 3.457 0 0 0 51.176 128.023 A 3.618 3.618 0 0 0 51.607 127.431 Q 51.958 126.83 52.111 126.057 Z M 45.707 124.754 A 6.567 6.567 0 0 0 45.77 125.692 Q 45.91 126.66 46.363 127.254 Q 47.02 128.113 48.293 128.113 A 3.012 3.012 0 0 0 49.088 128.014 A 2.096 2.096 0 0 0 50.227 127.258 Q 50.887 126.402 50.887 124.754 A 6.471 6.471 0 0 0 50.825 123.832 Q 50.758 123.362 50.615 122.982 A 2.67 2.67 0 0 0 50.227 122.273 A 2.133 2.133 0 0 0 48.9 121.482 A 3.271 3.271 0 0 0 48.277 121.426 A 3.086 3.086 0 0 0 47.509 121.516 A 2.066 2.066 0 0 0 46.355 122.262 A 2.681 2.681 0 0 0 45.939 123.067 Q 45.816 123.437 45.758 123.89 A 6.853 6.853 0 0 0 45.707 124.754 Z" id="front_labelLayer" stroke="#777777" fill="#777777" style="stroke:#777777;fill:#777777" vector-effect="non-scaling-stroke"/><path d="M 106 83 L 106 93 L 103 93 L 103 101.375 L 106.25 101.375 L 106.25 103 L 106.25 104.625 L 103 104.625 L 103 113 L 106 113 L 106 133 L 103 133 L 103 141.375 L 106.25 141.375 L 106.25 143 L 106.25 144.625 L 103 144.625 L 103 153 L 106 153 L 106 163 L 113 163 L 113 160 L 121.375 160 L 121.375 158.05 L 120.125 158.05 L 120.125 155.4 L 121.375 155.4 L 121.375 152.75 L 124.625 152.75 L 124.625 155.4 L 125.875 155.4 L 125.875 158.05 L 124.625 158.05 L 124.625 160 L 133 160 L 133 163 L 153 163 L 153 160 L 161.375 160 L 161.375 158.05 L 160.125 158.05 L 160.125 155.4 L 161.375 155.4 L 161.375 152.75 L 164.625 152.75 L 164.625 155.4 L 165.875 155.4 L 165.875 158.05 L 164.625 158.05 L 164.625 160 L 173 160 L 173 163 L 180 163 L 180 153 L 183 153 L 183 144.625 L 179.75 144.625 L 179.75 143 L 179.75 141.375 L 183 141.375 L 183 133 L 180 133 L 180 113 L 183 113 L 183 104.625 L 179.75 104.625 L 179.75 103 L 179.75 101.375 L 183 101.375 L 183 93 L 180 93 L 180 83 L 173 83 L 173 86 L 164.625 86 L 164.625 87.95 L 165.875 87.95 L 165.875 90.6 L 164.625 90.6 L 164.625 93.25 L 161.375 93.25 L 161.375 90.6 L 160.125 90.6 L 160.125 87.95 L 161.375 87.95 L 161.375 86 L 153 86 L 153 83 L 133 83 L 133 86 L 124.625 86 L 124.625 87.95 L 125.875 87.95 L 125.875 90.6 L 124.625 90.6 L 124.625 93.25 L 121.375 93.25 L 121.375 90.6 L 120.125 90.6 L 120.125 87.95 L 121.375 87.95 L 121.375 86 L 113 86 L 113 83 L 106 83 Z" id="left_outsideCutPath" stroke="#FF0000" stroke-width="0.1" style="stroke:#FF0000;stroke-width:0.1" vector-effect="non-scaling-stroke"/><path d="M 148.691 120.48 L 148.691 121.488 L 146.512 121.488 L 146.512 129.043 L 145.215 129.043 L 145.215 121.488 L 143.684 121.488 L 143.684 120.902 L 145.215 120.433 L 145.215 119.957 A 5.256 5.256 0 0 1 145.338 118.766 Q 145.717 117.141 147.27 116.86 A 3.942 3.942 0 0 1 147.973 116.801 A 4.176 4.176 0 0 1 148.564 116.846 Q 149.024 116.912 149.566 117.074 L 149.23 118.113 Q 148.698 117.941 148.275 117.891 A 2.789 2.789 0 0 0 147.949 117.871 A 1.749 1.749 0 0 0 147.528 117.919 A 1.123 1.123 0 0 0 146.863 118.359 A 1.501 1.501 0 0 0 146.665 118.759 Q 146.512 119.214 146.512 119.926 L 146.512 120.48 L 148.691 120.48 Z M 142.621 124.176 L 142.621 124.996 L 136.723 124.996 A 5.205 5.205 0 0 0 136.814 125.867 Q 136.907 126.342 137.095 126.717 A 2.435 2.435 0 0 0 137.484 127.285 A 2.357 2.357 0 0 0 138.722 127.982 A 3.571 3.571 0 0 0 139.52 128.066 A 6.85 6.85 0 0 0 142.085 127.558 A 7.848 7.848 0 0 0 142.254 127.488 L 142.254 128.644 A 7.786 7.786 0 0 1 141.544 128.912 A 5.954 5.954 0 0 1 140.953 129.07 Q 140.34 129.199 139.473 129.199 A 5.04 5.04 0 0 1 138.212 129.05 A 3.568 3.568 0 0 1 136.477 128.043 Q 135.442 126.953 135.383 125.066 A 7.408 7.408 0 0 1 135.379 124.832 Q 135.379 122.762 136.398 121.543 A 3.323 3.323 0 0 1 138.821 120.335 A 4.585 4.585 0 0 1 139.137 120.324 A 3.951 3.951 0 0 1 140.249 120.473 A 3.006 3.006 0 0 1 141.684 121.383 Q 142.621 122.441 142.621 124.176 Z M 154.191 127.972 L 154.191 128.965 A 1.276 1.276 0 0 1 154.04 129.025 Q 153.852 129.087 153.57 129.133 A 5.621 5.621 0 0 1 153.204 129.18 Q 153.031 129.197 152.876 129.199 A 3.325 3.325 0 0 1 152.832 129.199 A 3.387 3.387 0 0 1 151.834 129.065 Q 150.737 128.726 150.449 127.534 A 4.076 4.076 0 0 1 150.348 126.582 L 150.348 121.488 L 149.121 121.488 L 149.121 120.863 L 150.348 120.324 L 150.895 118.496 L 151.645 118.496 L 151.645 120.48 L 154.129 120.48 L 154.129 121.488 L 151.645 121.488 L 151.645 126.527 A 2.611 2.611 0 0 0 151.682 126.986 Q 151.762 127.433 152.012 127.715 Q 152.379 128.129 153.02 128.129 A 4.259 4.259 0 0 0 153.643 128.084 A 3.925 3.925 0 0 0 153.684 128.078 Q 153.989 128.029 154.174 127.977 A 1.951 1.951 0 0 0 154.191 127.972 Z M 133.105 116.887 L 133.105 129.043 L 131.809 129.043 L 131.809 116.887 L 133.105 116.887 Z M 136.754 123.941 L 141.23 123.941 Q 141.23 122.715 140.684 122.062 A 1.777 1.777 0 0 0 139.614 121.453 A 2.665 2.665 0 0 0 139.121 121.41 A 2.556 2.556 0 0 0 138.383 121.511 A 1.975 1.975 0 0 0 137.477 122.082 Q 136.863 122.754 136.754 123.941 Z" id="left_labelLayer" stroke="#777777" fill="#777777" style="stroke:#777777;fill:#777777" vector-effect="non-scaling-stroke"/><path d="M 189 86 L 189 93 L 186 93 L 186 101.375 L 189.25 101.375 L 189.25 103 L 189.25 104.625 L 186 104.625 L 186 113 L 189 113 L 189 133 L 186 133 L 186 141.375 L 189.25 141.375 L 189.25 143 L 189.25 144.625 L 186 144.625 L 186 153 L 189 153 L 189 160 L 198.5 160 L 198.5 163 L 209.375 163 L 209.375 159.75 L 211 159.75 L 212.625 159.75 L 212.625 163 L 223.5 163 L 223.5 160 L 248.5 160 L 248.5 163 L 259.375 163 L 259.375 159.75 L 261 159.75 L 262.625 159.75 L 262.625 163 L 273.5 163 L 273.5 160 L 283 160 L 283 153 L 286 153 L 286 144.625 L 282.75 144.625 L 282.75 143 L 282.75 141.375 L 286 141.375 L 286 133 L 283 133 L 283 113 L 286 113 L 286 104.625 L 282.75 104.625 L 282.75 103 L 282.75 101.375 L 286 101.375 L 286 93 L 283 93 L 283 86 L 273.5 86 L 273.5 83 L 262.625 83 L 262.625 86.25 L 261 86.25 L 259.375 86.25 L 259.375 83 L 248.5 83 L 248.5 86 L 223.5 86 L 223.5 83 L 212.625 83 L 212.625 86.25 L 211 86.25 L 209.375 86.25 L 209.375 83 L 198.5 83 L 198.5 86 L 189 86 Z" id="top_outsideCutPath" stroke="#FF0000" stroke-width="0.1" style="stroke:#FF0000;stroke-width:0.1" vector-effect="non-scaling-stroke"/><path d="M 241.75 125.25 L 241.656 125.25 A 12.273 12.273 0 0 1 241.737 126.157 A 10.284 10.284 0 0 1 241.75 126.672 L 241.75 130.195 L 240.453 130.195 L 240.453 117.789 L 241.508 117.789 L 241.687 118.961 L 241.75 118.961 A 3.491 3.491 0 0 1 242.255 118.388 A 2.699 2.699 0 0 1 242.914 117.945 A 3.248 3.248 0 0 1 243.845 117.673 A 4.204 4.204 0 0 1 244.437 117.633 A 3.975 3.975 0 0 1 245.56 117.783 A 2.938 2.938 0 0 1 247.066 118.797 A 3.894 3.894 0 0 1 247.731 120.094 Q 247.902 120.653 247.961 121.326 A 8.445 8.445 0 0 1 247.992 122.062 Q 247.992 123.551 247.523 124.571 A 3.645 3.645 0 0 1 247.051 125.34 A 3.07 3.07 0 0 1 244.869 126.487 A 4.399 4.399 0 0 1 244.437 126.508 A 3.934 3.934 0 0 1 243.449 126.387 A 3.423 3.423 0 0 1 242.91 126.199 A 2.872 2.872 0 0 1 241.75 125.25 Z M 229.078 125.281 L 229.078 126.273 A 1.276 1.276 0 0 1 228.927 126.333 Q 228.739 126.396 228.457 126.441 A 5.621 5.621 0 0 1 228.09 126.489 Q 227.918 126.505 227.763 126.508 A 3.325 3.325 0 0 1 227.719 126.508 A 3.387 3.387 0 0 1 226.72 126.373 Q 225.623 126.035 225.336 124.843 A 4.076 4.076 0 0 1 225.234 123.891 L 225.234 118.797 L 224.008 118.797 L 224.008 118.172 L 225.234 117.633 L 225.781 115.805 L 226.531 115.805 L 226.531 117.789 L 229.016 117.789 L 229.016 118.797 L 226.531 118.797 L 226.531 123.836 A 2.611 2.611 0 0 0 226.569 124.295 Q 226.649 124.742 226.898 125.023 Q 227.266 125.438 227.906 125.438 A 4.259 4.259 0 0 0 228.53 125.393 A 3.925 3.925 0 0 0 228.57 125.387 Q 228.876 125.338 229.061 125.286 A 1.951 1.951 0 0 0 229.078 125.281 Z M 238.061 123.366 A 6.699 6.699 0 0 0 238.18 122.062 Q 238.18 121.23 238.003 120.538 A 4.038 4.038 0 0 0 237.121 118.828 A 3.395 3.395 0 0 0 235.545 117.812 A 4.358 4.358 0 0 0 234.266 117.633 A 5.037 5.037 0 0 0 233.361 117.71 A 3.43 3.43 0 0 0 231.359 118.801 Q 230.312 119.969 230.312 122.063 A 6.488 6.488 0 0 0 230.394 123.113 A 4.798 4.798 0 0 0 230.797 124.422 A 4.263 4.263 0 0 0 230.891 124.607 A 3.511 3.511 0 0 0 232.172 125.969 Q 233.062 126.508 234.211 126.508 A 5.036 5.036 0 0 0 235.09 126.434 A 3.457 3.457 0 0 0 237.125 125.332 A 3.618 3.618 0 0 0 237.556 124.74 Q 237.907 124.139 238.061 123.366 Z M 231.656 122.063 A 6.567 6.567 0 0 0 231.719 123.001 Q 231.859 123.968 232.312 124.563 Q 232.969 125.422 234.242 125.422 A 3.012 3.012 0 0 0 235.037 125.323 A 2.096 2.096 0 0 0 236.176 124.566 Q 236.836 123.711 236.836 122.063 A 6.471 6.471 0 0 0 236.775 121.14 Q 236.707 120.671 236.564 120.291 A 2.67 2.67 0 0 0 236.176 119.582 A 2.133 2.133 0 0 0 234.849 118.791 A 3.271 3.271 0 0 0 234.226 118.734 A 3.086 3.086 0 0 0 233.458 118.824 A 2.066 2.066 0 0 0 232.305 119.57 A 2.681 2.681 0 0 0 231.888 120.376 Q 231.765 120.746 231.707 121.199 A 6.853 6.853 0 0 0 231.656 122.062 Z M 241.75 121.773 L 241.75 122.063 Q 241.75 123.595 242.184 124.387 A 1.956 1.956 0 0 0 242.351 124.645 Q 242.953 125.422 244.281 125.422 Q 245.391 125.422 246.019 124.523 A 3.136 3.136 0 0 0 246.449 123.607 Q 246.648 122.935 246.648 122.047 A 6.544 6.544 0 0 0 246.587 121.119 Q 246.519 120.648 246.378 120.266 A 2.749 2.749 0 0 0 246.019 119.59 A 2.017 2.017 0 0 0 244.544 118.749 A 2.79 2.79 0 0 0 244.25 118.734 A 3.737 3.737 0 0 0 243.552 118.795 Q 242.768 118.944 242.351 119.461 A 2.222 2.222 0 0 0 242.004 120.094 Q 241.76 120.757 241.75 121.773 Z" id="top_labelLayer" stroke="#777777" fill="#777777" style="stroke:#777777;fill:#777777" vector-effect="non-scaling-stroke"/><path d="M 0 0 L 0 10 L 3 10 L 3 18.375 L 4.95 18.375 L 4.95 17.125 L 7.6 17.125 L 7.6 18.375 L 10.25 18.375 L 10.25 21.625 L 7.6 21.625 L 7.6 22.875 L 4.95 22.875 L 4.95 21.625 L 3 21.625 L 3 30 L 0 30 L 0 50 L 3 50 L 3 58.375 L 4.95 58.375 L 4.95 57.125 L 7.6 57.125 L 7.6 58.375 L 10.25 58.375 L 10.25 61.625 L 7.6 61.625 L 7.6 62.875 L 4.95 62.875 L 4.95 61.625 L 3 61.625 L 3 70 L 0 70 L 0 80 L 12.5 80 L 12.5 77 L 23.375 77 L 23.375 75.05 L 22.125 75.05 L 22.125 72.4 L 23.375 72.4 L 23.375 69.75 L 26.625 69.75 L 26.625 72.4 L 27.875 72.4 L 27.875 75.05 L 26.625 75.05 L 26.625 77 L 37.5 77 L 37.5 80 L 62.5 80 L 62.5 77 L 73.375 77 L 73.375 75.05 L 72.125 75.05 L 72.125 72.4 L 73.375 72.4 L 73.375 69.75 L 76.625 69.75 L 76.625 72.4 L 77.875 72.4 L 77.875 75.05 L 76.625 75.05 L 76.625 77 L 87.5 77 L 87.5 80 L 100 80 L 100 70 L 97 70 L 97 61.625 L 95.05 61.625 L 95.05 62.875 L 92.4 62.875 L 92.4 61.625 L 89.75 61.625 L 89.75 58.375 L 92.4 58.375 L 92.4 57.125 L 95.05 57.125 L 95.05 58.375 L 97 58.375 L 97 50 L 100 50 L 100 30 L 97 30 L 97 21.625 L 95.05 21.625 L 95.05 22.875 L 92.4 22.875 L 92.4 21.625 L 89.75 21.625 L 89.75 18.375 L 92.4 18.375 L 92.4 17.125 L 95.05 17.125 L 95.05 18.375 L 97 18.375 L 97 10 L 100 10 L 100 0 L 87.5 0 L 87.5 3 L 76.625 3 L 76.625 4.95 L 77.875 4.95 L 77.875 7.6 L 76.625 7.6 L 76.625 10.25 L 73.375 10.25 L 73.375 7.6 L 72.125 7.6 L 72.125 4.95 L 73.375 4.95 L 73.375 3 L 62.5 3 L 62.5 0 L 37.5 0 L 37.5 3 L 26.625 3 L 26.625 4.95 L 27.875 4.95 L 27.875 7.6 L 26.625 7.6 L 26.625 10.25 L 23.375 10.25 L 23.375 7.6 L 22.125 7.6 L 22.125 4.95 L 23.375 4.95 L 23.375 3 L 12.5 3 L 12.5 0 L 0 0 Z" id="back_outsideCutPath" stroke="#FF0000" stroke-width="0.1" style="stroke:#FF0000;stroke-width:0.1" vector-effect="non-scaling-stroke"/><path d="M 60.953 41.617 L 61.016 41.617 Q 61.273 41.252 61.736 40.713 A 27.864 27.864 0 0 1 62.039 40.367 L 64.805 37.437 L 66.344 37.437 L 62.875 41.086 L 66.586 46 L 65.016 46 L 61.992 41.953 L 61.016 42.797 L 61.016 46 L 59.734 46 L 59.734 33.844 L 61.016 33.844 L 61.016 40.289 Q 61.016 40.719 60.953 41.617 Z M 34.711 44.898 L 34.617 44.898 L 34.344 46 L 33.414 46 L 33.414 33.844 L 34.711 33.844 L 34.711 36.797 A 27.039 27.039 0 0 1 34.696 37.71 Q 34.681 38.171 34.648 38.578 L 34.711 38.578 A 2.949 2.949 0 0 1 36.863 37.328 A 4.429 4.429 0 0 1 37.398 37.297 A 3.964 3.964 0 0 1 38.514 37.446 A 2.967 2.967 0 0 1 40.02 38.449 Q 40.953 39.601 40.953 41.711 Q 40.953 43.199 40.484 44.219 A 3.645 3.645 0 0 1 40.012 44.988 A 3.07 3.07 0 0 1 37.83 46.136 A 4.399 4.399 0 0 1 37.398 46.156 A 3.934 3.934 0 0 1 36.41 46.036 A 3.423 3.423 0 0 1 35.871 45.848 A 2.872 2.872 0 0 1 34.711 44.898 Z M 49.445 46 L 48.484 46 L 48.227 44.781 L 48.164 44.781 Q 47.523 45.586 46.887 45.871 Q 46.25 46.156 45.297 46.156 Q 44.023 46.156 43.301 45.5 A 2.132 2.132 0 0 1 42.658 44.376 A 3.263 3.263 0 0 1 42.578 43.633 A 2.244 2.244 0 0 1 43.855 41.515 Q 44.805 41.009 46.463 40.925 A 12.668 12.668 0 0 1 46.727 40.914 L 48.18 40.867 L 48.18 40.336 Q 48.18 39.72 48.018 39.301 A 1.447 1.447 0 0 0 47.746 38.848 Q 47.313 38.367 46.359 38.367 A 4.222 4.222 0 0 0 45.388 38.488 Q 44.942 38.594 44.457 38.791 A 8.685 8.685 0 0 0 43.938 39.023 L 43.539 38.031 A 5.979 5.979 0 0 1 44.693 37.557 A 6.806 6.806 0 0 1 44.926 37.492 A 6.006 6.006 0 0 1 46.438 37.297 Q 47.395 37.297 48.043 37.563 A 2.207 2.207 0 0 1 48.707 37.976 A 2.054 2.054 0 0 1 49.237 38.794 Q 49.361 39.13 49.411 39.547 A 5.103 5.103 0 0 1 49.445 40.156 L 49.445 46 Z M 57.828 37.726 L 57.43 38.828 Q 57 38.656 56.492 38.543 A 5.357 5.357 0 0 0 56.085 38.467 Q 55.886 38.439 55.709 38.432 A 2.875 2.875 0 0 0 55.594 38.43 A 2.877 2.877 0 0 0 54.426 38.649 Q 53.201 39.189 53.017 41.055 A 7.166 7.166 0 0 0 52.984 41.758 A 6.281 6.281 0 0 0 53.047 42.672 Q 53.115 43.136 53.259 43.513 A 2.69 2.69 0 0 0 53.621 44.18 A 2.06 2.06 0 0 0 54.956 44.977 A 3.138 3.138 0 0 0 55.508 45.023 A 5.429 5.429 0 0 0 57.005 44.805 A 6.703 6.703 0 0 0 57.703 44.562 L 57.703 45.711 A 3.689 3.689 0 0 1 56.801 46.03 Q 56.233 46.156 55.539 46.156 A 4.847 4.847 0 0 1 54.36 46.021 A 3.287 3.287 0 0 1 52.66 45.012 Q 51.78 44.023 51.66 42.326 A 7.842 7.842 0 0 1 51.641 41.773 A 7.156 7.156 0 0 1 51.751 40.472 Q 51.886 39.746 52.183 39.174 A 3.575 3.575 0 0 1 52.676 38.453 A 3.358 3.358 0 0 1 54.515 37.396 A 5.091 5.091 0 0 1 55.625 37.281 A 5.852 5.852 0 0 1 56.859 37.414 A 6.473 6.473 0 0 1 57.219 37.502 Q 57.586 37.603 57.828 37.726 Z M 35.798 38.705 A 1.725 1.725 0 0 0 35.297 39.144 A 2.22 2.22 0 0 0 34.975 39.757 Q 34.759 40.364 34.72 41.288 A 9.992 9.992 0 0 0 34.711 41.711 Q 34.711 43.244 35.145 44.035 A 1.956 1.956 0 0 0 35.313 44.293 Q 35.914 45.07 37.242 45.07 Q 38.438 45.07 39.023 44.199 A 2.977 2.977 0 0 0 39.392 43.402 Q 39.609 42.69 39.609 41.695 A 7.662 7.662 0 0 0 39.563 40.822 Q 39.453 39.867 39.083 39.291 A 2.151 2.151 0 0 0 39.023 39.203 A 1.891 1.891 0 0 0 37.819 38.441 A 2.999 2.999 0 0 0 37.211 38.383 Q 36.348 38.383 35.798 38.705 Z M 48.148 42.562 L 48.148 41.789 L 46.852 41.844 A 9.522 9.522 0 0 0 46.091 41.899 Q 45.34 41.986 44.87 42.194 A 1.992 1.992 0 0 0 44.621 42.324 A 1.384 1.384 0 0 0 43.962 43.328 A 2.048 2.048 0 0 0 43.937 43.648 Q 43.938 44.351 44.363 44.719 Q 44.789 45.086 45.555 45.086 A 3.571 3.571 0 0 0 46.326 45.007 Q 46.863 44.889 47.26 44.59 A 2.165 2.165 0 0 0 47.457 44.422 Q 48.145 43.761 48.148 42.576 A 4.13 4.13 0 0 0 48.148 42.562 Z" id="back_labelLayer" stroke="#777777" fill="#777777" style="stroke:#777777;fill:#777777" vector-effect="non-scaling-stroke"/><path d="M 106 0 L 106 10 L 103 10 L 103 18.375 L 106.25 18.375 L 106.25 20 L 106.25 21.625 L 103 21.625 L 103 30 L 106 30 L 106 50 L 103 50 L 103 58.375 L 106.25 58.375 L 106.25 60 L 106.25 61.625 L 103 61.625 L 103 70 L 106 70 L 106 80 L 113 80 L 113 77 L 121.375 77 L 121.375 75.05 L 120.125 75.05 L 120.125 72.4 L 121.375 72.4 L 121.375 69.75 L 124.625 69.75 L 124.625 72.4 L 125.875 72.4 L 125.875 75.05 L 124.625 75.05 L 124.625 77 L 133 77 L 133 80 L 153 80 L 153 77 L 161.375 77 L 161.375 75.05 L 160.125 75.05 L 160.125 72.4 L 161.375 72.4 L 161.375 69.75 L 164.625 69.75 L 164.625 72.4 L 165.875 72.4 L 165.875 75.05 L 164.625 75.05 L 164.625 77 L 173 77 L 173 80 L 180 80 L 180 70 L 183 70 L 183 61.625 L 179.75 61.625 L 179.75 60 L 179.75 58.375 L 183 58.375 L 183 50 L 180 50 L 180 30 L 183 30 L 183 21.625 L 179.75 21.625 L 179.75 20 L 179.75 18.375 L 183 18.375 L 183 10 L 180 10 L 180 0 L 173 0 L 173 3 L 164.625 3 L 164.625 4.95 L 165.875 4.95 L 165.875 7.6 L 164.625 7.6 L 164.625 10.25 L 161.375 10.25 L 161.375 7.6 L 160.125 7.6 L 160.125 4.95 L 161.375 4.95 L 161.375 3 L 153 3 L 153 0 L 133 0 L 133 3 L 124.625 3 L 124.625 4.95 L 125.875 4.95 L 125.875 7.6 L 124.625 7.6 L 124.625 10.25 L 121.375 10.25 L 121.375 7.6 L 120.125 7.6 L 120.125 4.95 L 121.375 4.95 L 121.375 3 L 113 3 L 113 0 L 106 0 Z" id="right_outsideCutPath" stroke="#FF0000" stroke-width="0.1" style="stroke:#FF0000;stroke-width:0.1" vector-effect="non-scaling-stroke"/><path d="M 152.949 44.156 L 151.652 44.156 L 151.652 38.617 A 3.666 3.666 0 0 0 151.61 38.042 Q 151.562 37.74 151.459 37.498 A 1.543 1.543 0 0 0 151.176 37.055 A 1.462 1.462 0 0 0 150.576 36.672 Q 150.341 36.589 150.051 36.558 A 3.438 3.438 0 0 0 149.684 36.539 A 3.925 3.925 0 0 0 148.95 36.603 Q 148.543 36.68 148.23 36.852 A 1.816 1.816 0 0 0 147.711 37.273 A 2.158 2.158 0 0 0 147.345 37.922 Q 147.124 38.517 147.094 39.4 A 8.37 8.37 0 0 0 147.09 39.68 L 147.09 44.156 L 145.793 44.156 L 145.793 32 L 147.09 32 L 147.09 35.68 A 11.666 11.666 0 0 1 147.082 36.128 Q 147.067 36.501 147.027 36.781 L 147.105 36.781 A 2.591 2.591 0 0 1 148.013 35.908 A 3.165 3.165 0 0 1 148.195 35.809 A 3.329 3.329 0 0 1 149.288 35.484 A 4.209 4.209 0 0 1 149.809 35.453 Q 151.379 35.453 152.164 36.199 Q 152.774 36.779 152.91 37.889 A 5.608 5.608 0 0 1 152.949 38.57 L 152.949 44.156 Z M 141.074 35.594 L 144.035 35.594 L 144.035 36.414 L 142.449 36.602 A 2.108 2.108 0 0 1 142.632 36.873 Q 142.712 37.013 142.784 37.181 A 3.998 3.998 0 0 1 142.84 37.316 A 2.495 2.495 0 0 1 142.988 37.912 A 3.204 3.204 0 0 1 143.012 38.312 A 2.973 2.973 0 0 1 142.875 39.234 A 2.405 2.405 0 0 1 142.152 40.32 Q 141.378 40.996 140.084 41.063 A 5.633 5.633 0 0 1 139.793 41.07 A 4.168 4.168 0 0 1 139.311 41.043 A 3.52 3.52 0 0 1 139.074 41.008 A 2.308 2.308 0 0 0 138.702 41.248 Q 138.51 41.404 138.399 41.581 A 0.976 0.976 0 0 0 138.246 42.109 Q 138.246 42.461 138.535 42.629 A 0.91 0.91 0 0 0 138.737 42.712 Q 138.948 42.774 139.27 42.79 A 4.933 4.933 0 0 0 139.527 42.797 L 141.043 42.797 A 5.309 5.309 0 0 1 141.849 42.854 Q 142.271 42.919 142.611 43.057 A 2.344 2.344 0 0 1 143.18 43.383 A 1.897 1.897 0 0 1 143.885 44.591 A 2.85 2.85 0 0 1 143.926 45.086 A 2.808 2.808 0 0 1 143.765 46.057 Q 143.498 46.788 142.785 47.254 A 3.889 3.889 0 0 1 141.782 47.709 Q 141.288 47.859 140.686 47.932 A 10.279 10.279 0 0 1 139.457 48 Q 137.777 48 136.867 47.375 Q 136.016 46.79 135.961 45.755 A 2.739 2.739 0 0 1 135.957 45.609 Q 135.957 44.828 136.457 44.258 A 2.265 2.265 0 0 1 137.235 43.691 A 3.21 3.21 0 0 1 137.863 43.484 A 1.346 1.346 0 0 1 137.341 43.062 A 1.598 1.598 0 0 1 137.312 43.023 A 1.202 1.202 0 0 1 137.092 42.374 A 1.489 1.489 0 0 1 137.09 42.297 A 1.483 1.483 0 0 1 137.165 41.819 A 1.314 1.314 0 0 1 137.34 41.477 A 1.856 1.856 0 0 1 137.585 41.2 Q 137.715 41.078 137.883 40.959 A 4.074 4.074 0 0 1 138.129 40.797 A 2.274 2.274 0 0 1 137.141 40.006 A 2.818 2.818 0 0 1 137.047 39.867 A 2.681 2.681 0 0 1 136.635 38.575 A 3.272 3.272 0 0 1 136.629 38.367 Q 136.629 36.961 137.473 36.199 A 2.754 2.754 0 0 1 138.53 35.616 Q 138.95 35.488 139.455 35.452 A 5.728 5.728 0 0 1 139.863 35.437 A 4.971 4.971 0 0 1 140.521 35.479 A 3.786 3.786 0 0 1 141.074 35.594 Z M 159.551 43.086 L 159.551 44.078 A 1.276 1.276 0 0 1 159.399 44.138 Q 159.212 44.2 158.93 44.246 A 5.621 5.621 0 0 1 158.563 44.294 Q 158.39 44.31 158.235 44.312 A 3.325 3.325 0 0 1 158.191 44.312 A 3.387 3.387 0 0 1 157.193 44.178 Q 156.096 43.84 155.809 42.648 A 4.076 4.076 0 0 1 155.707 41.695 L 155.707 36.602 L 154.48 36.602 L 154.48 35.977 L 155.707 35.437 L 156.254 33.609 L 157.004 33.609 L 157.004 35.594 L 159.488 35.594 L 159.488 36.602 L 157.004 36.602 L 157.004 41.641 A 2.611 2.611 0 0 0 157.042 42.099 Q 157.122 42.547 157.371 42.828 Q 157.738 43.242 158.379 43.242 A 4.259 4.259 0 0 0 159.003 43.198 A 3.925 3.925 0 0 0 159.043 43.191 Q 159.349 43.143 159.533 43.091 A 1.951 1.951 0 0 0 159.551 43.086 Z M 131.379 35.531 L 131.199 36.734 A 5.716 5.716 0 0 0 130.788 36.658 Q 130.583 36.629 130.401 36.62 A 3.042 3.042 0 0 0 130.262 36.617 A 2.247 2.247 0 0 0 128.602 37.334 A 3.074 3.074 0 0 0 128.484 37.461 A 2.962 2.962 0 0 0 127.77 39.124 A 3.936 3.936 0 0 0 127.746 39.562 L 127.746 44.156 L 126.449 44.156 L 126.449 35.594 L 127.52 35.594 L 127.668 37.18 L 127.73 37.18 A 4.38 4.38 0 0 1 128.22 36.48 A 3.345 3.345 0 0 1 128.879 35.891 A 2.585 2.585 0 0 1 130.355 35.437 A 5.954 5.954 0 0 1 130.888 35.46 A 4.345 4.345 0 0 1 131.379 35.531 Z M 134.277 35.594 L 134.277 44.156 L 132.98 44.156 L 132.98 35.594 L 134.277 35.594 Z M 140.629 43.961 L 139.074 43.961 Q 138.191 43.961 137.699 44.383 A 1.367 1.367 0 0 0 137.25 45.158 A 2.075 2.075 0 0 0 137.207 45.594 A 1.302 1.302 0 0 0 137.293 46.077 Q 137.416 46.388 137.717 46.598 A 1.522 1.522 0 0 0 137.793 46.648 Q 138.379 47.008 139.473 47.008 Q 141.105 47.008 141.891 46.519 A 1.892 1.892 0 0 0 142.33 46.152 A 1.418 1.418 0 0 0 142.676 45.195 A 1.755 1.755 0 0 0 142.644 44.847 Q 142.603 44.646 142.511 44.497 A 0.817 0.817 0 0 0 142.246 44.23 Q 141.919 44.025 141.152 43.976 A 8.252 8.252 0 0 0 140.629 43.961 Z M 137.91 38.336 A 2.531 2.531 0 0 0 137.962 38.867 Q 138.073 39.382 138.418 39.695 Q 138.875 40.111 139.656 40.152 A 3.339 3.339 0 0 0 139.832 40.156 A 2.825 2.825 0 0 0 140.572 40.068 Q 141.418 39.838 141.646 39.007 A 2.627 2.627 0 0 0 141.73 38.312 A 2.789 2.789 0 0 0 141.635 37.549 Q 141.303 36.383 139.809 36.383 A 2.721 2.721 0 0 0 139.254 36.436 Q 138.914 36.507 138.655 36.672 A 1.493 1.493 0 0 0 138.402 36.875 A 1.556 1.556 0 0 0 138.026 37.509 Q 137.91 37.867 137.91 38.336 Z M 133.09 32.621 A 0.607 0.607 0 0 0 132.956 32.811 Q 132.871 32.996 132.871 33.273 A 1.531 1.531 0 0 0 132.878 33.42 Q 132.909 33.749 133.09 33.926 A 0.728 0.728 0 0 0 133.353 34.093 A 0.824 0.824 0 0 0 133.637 34.141 A 0.757 0.757 0 0 0 134.176 33.926 Q 134.402 33.711 134.402 33.273 A 1.484 1.484 0 0 0 134.396 33.133 Q 134.364 32.8 134.176 32.625 A 0.764 0.764 0 0 0 133.637 32.414 A 0.99 0.99 0 0 0 133.571 32.416 A 0.75 0.75 0 0 0 133.09 32.621 Z" id="right_labelLayer" stroke="#777777" fill="#777777" style="stroke:#777777;fill:#777777" vector-effect="non-scaling-stroke"/><path d="M 189 3 L 189 10 L 186 10 L 186 18.375 L 189.25 18.375 L 189.25 20 L 189.25 21.625 L 186 21.625 L 186 30 L 189 30 L 189 50 L 186 50 L 186 58.375 L 189.25 58.375 L 189.25 60 L 189.25 61.625 L 186 61.625 L 186 70 L 189 70 L 189 77 L 198.5 77 L 198.5 80 L 209.375 80 L 209.375 76.75 L 211 76.75 L 212.625 76.75 L 212.625 80 L 223.5 80 L 223.5 77 L 248.5 77 L 248.5 80 L 259.375 80 L 259.375 76.75 L 261 76.75 L 262.625 76.75 L 262.625 80 L 273.5 80 L 273.5 77 L 283 77 L 283 70 L 286 70 L 286 61.625 L 282.75 61.625 L 282.75 60 L 282.75 58.375 L 286 58.375 L 286 50 L 283 50 L 283 30 L 286 30 L 286 21.625 L 282.75 21.625 L 282.75 20 L 282.75 18.375 L 286 18.375 L 286 10 L 283 10 L 283 3 L 273.5 3 L 273.5 0 L 262.625 0 L 262.625 3.25 L 261 3.25 L 259.375 3.25 L 259.375 0 L 248.5 0 L 248.5 3 L 223.5 3 L 223.5 0 L 212.625 0 L 212.625 3.25 L 211 3.25 L 209.375 3.25 L 209.375 0 L 198.5 0 L 198.5 3 L 189 3 Z" id="bottom_outsideCutPath" stroke="#FF0000" stroke-width="0.1" style="stroke:#FF0000;stroke-width:0.1" vector-effect="non-scaling-stroke"/><path d="M 262.32 46 L 261.023 46 L 261.023 40.429 Q 261.023 39.788 260.852 39.348 A 1.567 1.567 0 0 0 260.586 38.894 A 1.365 1.365 0 0 0 259.952 38.484 Q 259.725 38.411 259.45 38.391 A 3.01 3.01 0 0 0 259.227 38.383 A 3.337 3.337 0 0 0 258.547 38.447 Q 258.144 38.531 257.839 38.725 A 1.717 1.717 0 0 0 257.437 39.078 A 2.143 2.143 0 0 0 257.074 39.736 Q 256.861 40.333 256.859 41.205 A 7.141 7.141 0 0 0 256.859 41.219 L 256.859 46 L 255.562 46 L 255.562 40.429 Q 255.562 39.788 255.391 39.348 A 1.567 1.567 0 0 0 255.125 38.894 Q 254.746 38.451 253.999 38.392 A 3.037 3.037 0 0 0 253.758 38.383 A 3.221 3.221 0 0 0 253.092 38.447 Q 252.371 38.599 251.973 39.113 A 2.175 2.175 0 0 0 251.65 39.726 Q 251.441 40.317 251.411 41.204 A 9.03 9.03 0 0 0 251.406 41.508 L 251.406 46 L 250.109 46 L 250.109 37.437 L 251.164 37.437 L 251.375 38.609 L 251.437 38.609 A 2.549 2.549 0 0 1 252.473 37.633 A 3.079 3.079 0 0 1 253.689 37.291 A 3.719 3.719 0 0 1 253.969 37.281 A 4.246 4.246 0 0 1 254.924 37.381 Q 255.512 37.517 255.922 37.838 A 2.214 2.214 0 0 1 256.594 38.734 L 256.656 38.734 A 2.708 2.708 0 0 1 257.676 37.722 A 3.254 3.254 0 0 1 257.766 37.672 A 3.282 3.282 0 0 1 258.97 37.305 A 4.093 4.093 0 0 1 259.422 37.281 A 4.508 4.508 0 0 1 260.24 37.35 Q 260.694 37.434 261.049 37.62 A 2.137 2.137 0 0 1 261.598 38.027 Q 262.124 38.57 262.267 39.588 A 5.948 5.948 0 0 1 262.32 40.414 L 262.32 46 Z M 210.977 44.898 L 210.883 44.898 L 210.609 46 L 209.68 46 L 209.68 33.844 L 210.977 33.844 L 210.977 36.797 A 27.039 27.039 0 0 1 210.962 37.71 Q 210.946 38.171 210.914 38.578 L 210.977 38.578 A 2.949 2.949 0 0 1 213.129 37.328 A 4.429 4.429 0 0 1 213.664 37.297 A 3.964 3.964 0 0 1 214.78 37.445 A 2.967 2.967 0 0 1 216.285 38.449 Q 217.219 39.601 217.219 41.711 Q 217.219 43.199 216.75 44.219 A 3.645 3.645 0 0 1 216.277 44.988 A 3.07 3.07 0 0 1 214.095 46.135 A 4.399 4.399 0 0 1 213.664 46.156 A 3.934 3.934 0 0 1 212.676 46.036 A 3.423 3.423 0 0 1 212.137 45.847 A 2.872 2.872 0 0 1 210.977 44.898 Z M 233.086 44.929 L 233.086 45.922 A 1.276 1.276 0 0 1 232.935 45.982 Q 232.747 46.044 232.465 46.09 A 5.621 5.621 0 0 1 232.098 46.137 Q 231.926 46.154 231.77 46.156 A 3.325 3.325 0 0 1 231.727 46.156 A 3.387 3.387 0 0 1 230.728 46.022 Q 229.631 45.683 229.344 44.491 A 4.076 4.076 0 0 1 229.242 43.539 L 229.242 38.445 L 228.016 38.445 L 228.016 37.82 L 229.242 37.281 L 229.789 35.453 L 230.539 35.453 L 230.539 37.437 L 233.023 37.437 L 233.023 38.445 L 230.539 38.445 L 230.539 43.484 A 2.611 2.611 0 0 0 230.577 43.943 Q 230.657 44.39 230.906 44.672 Q 231.273 45.086 231.914 45.086 A 4.259 4.259 0 0 0 232.538 45.041 A 3.925 3.925 0 0 0 232.578 45.035 Q 232.884 44.986 233.069 44.934 A 1.951 1.951 0 0 0 233.086 44.929 Z M 238.734 44.929 L 238.734 45.922 A 1.276 1.276 0 0 1 238.583 45.982 Q 238.395 46.044 238.113 46.09 A 5.621 5.621 0 0 1 237.747 46.137 Q 237.574 46.154 237.419 46.156 A 3.325 3.325 0 0 1 237.375 46.156 A 3.387 3.387 0 0 1 236.377 46.022 Q 235.28 45.683 234.992 44.491 A 4.076 4.076 0 0 1 234.891 43.539 L 234.891 38.445 L 233.664 38.445 L 233.664 37.82 L 234.891 37.281 L 235.437 35.453 L 236.187 35.453 L 236.187 37.437 L 238.672 37.437 L 238.672 38.445 L 236.187 38.445 L 236.187 43.484 A 2.611 2.611 0 0 0 236.225 43.943 Q 236.305 44.39 236.555 44.672 Q 236.922 45.086 237.562 45.086 A 4.259 4.259 0 0 0 238.186 45.041 A 3.925 3.925 0 0 0 238.227 45.035 Q 238.532 44.986 238.717 44.934 A 1.951 1.951 0 0 0 238.734 44.929 Z M 226.756 43.014 A 6.699 6.699 0 0 0 226.875 41.711 Q 226.875 40.878 226.699 40.187 A 4.038 4.038 0 0 0 225.816 38.476 A 3.395 3.395 0 0 0 224.24 37.46 A 4.358 4.358 0 0 0 222.961 37.281 A 5.037 5.037 0 0 0 222.056 37.359 A 3.43 3.43 0 0 0 220.055 38.449 Q 219.008 39.617 219.008 41.711 A 6.488 6.488 0 0 0 219.089 42.762 A 4.798 4.798 0 0 0 219.492 44.07 A 4.263 4.263 0 0 0 219.587 44.255 A 3.511 3.511 0 0 0 220.867 45.617 Q 221.758 46.156 222.906 46.156 A 5.036 5.036 0 0 0 223.786 46.083 A 3.457 3.457 0 0 0 225.82 44.98 A 3.618 3.618 0 0 0 226.251 44.388 Q 226.602 43.787 226.756 43.014 Z M 247.717 43.014 A 6.699 6.699 0 0 0 247.836 41.711 Q 247.836 40.878 247.66 40.187 A 4.038 4.038 0 0 0 246.777 38.476 A 3.395 3.395 0 0 0 245.201 37.46 A 4.358 4.358 0 0 0 243.922 37.281 A 5.037 5.037 0 0 0 243.017 37.359 A 3.43 3.43 0 0 0 241.016 38.449 Q 239.969 39.617 239.969 41.711 A 6.488 6.488 0 0 0 240.05 42.762 A 4.798 4.798 0 0 0 240.453 44.07 A 4.263 4.263 0 0 0 240.547 44.255 A 3.511 3.511 0 0 0 241.828 45.617 Q 242.719 46.156 243.867 46.156 A 5.036 5.036 0 0 0 244.747 46.083 A 3.457 3.457 0 0 0 246.781 44.98 A 3.618 3.618 0 0 0 247.212 44.388 Q 247.563 43.787 247.717 43.014 Z M 220.352 41.711 A 6.567 6.567 0 0 0 220.414 42.649 Q 220.554 43.617 221.008 44.211 Q 221.664 45.07 222.937 45.07 A 3.012 3.012 0 0 0 223.732 44.971 A 2.096 2.096 0 0 0 224.871 44.215 Q 225.531 43.359 225.531 41.711 A 6.471 6.471 0 0 0 225.47 40.789 Q 225.402 40.319 225.26 39.939 A 2.67 2.67 0 0 0 224.871 39.23 A 2.133 2.133 0 0 0 223.545 38.439 A 3.271 3.271 0 0 0 222.922 38.383 A 3.086 3.086 0 0 0 222.153 38.473 A 2.066 2.066 0 0 0 221 39.219 A 2.681 2.681 0 0 0 220.583 40.024 Q 220.46 40.394 220.402 40.847 A 6.853 6.853 0 0 0 220.352 41.711 Z M 241.312 41.711 A 6.567 6.567 0 0 0 241.375 42.649 Q 241.515 43.617 241.969 44.211 Q 242.625 45.07 243.898 45.07 A 3.012 3.012 0 0 0 244.693 44.971 A 2.096 2.096 0 0 0 245.832 44.215 Q 246.492 43.359 246.492 41.711 A 6.471 6.471 0 0 0 246.431 40.789 Q 246.363 40.319 246.22 39.939 A 2.67 2.67 0 0 0 245.832 39.23 A 2.133 2.133 0 0 0 244.506 38.439 A 3.271 3.271 0 0 0 243.883 38.383 A 3.086 3.086 0 0 0 243.114 38.473 A 2.066 2.066 0 0 0 241.961 39.219 A 2.681 2.681 0 0 0 241.544 40.024 Q 241.421 40.394 241.363 40.847 A 6.853 6.853 0 0 0 241.312 41.711 Z M 212.063 38.705 A 1.725 1.725 0 0 0 211.562 39.144 A 2.22 2.22 0 0 0 211.241 39.756 Q 211.024 40.364 210.985 41.288 A 9.992 9.992 0 0 0 210.977 41.711 Q 210.977 43.244 211.411 44.035 A 1.956 1.956 0 0 0 211.578 44.293 Q 212.18 45.07 213.508 45.07 Q 214.703 45.07 215.289 44.199 A 2.977 2.977 0 0 0 215.657 43.402 Q 215.875 42.69 215.875 41.695 A 7.662 7.662 0 0 0 215.829 40.822 Q 215.719 39.867 215.348 39.291 A 2.151 2.151 0 0 0 215.289 39.203 A 1.891 1.891 0 0 0 214.085 38.441 A 2.999 2.999 0 0 0 213.477 38.383 Q 212.613 38.383 212.063 38.705 Z" id="bottom_labelLayer" stroke="#777777" fill="#777777" style="stroke:#777777;fill:#777777" vector-effect="non-scaling-stroke"/></g></svg>