<svg width="330mm" height="179mm" viewBox="0 0 330 179" xmlns="http://www.w3.org/2000/svg" version="1.1" preserveAspectRatio="xMidYMid meet"><g id="svgGroup" stroke-linecap="round" fill-rule="evenodd" font-size="9pt" stroke="#000" stroke-width="0.25mm" fill="none" style="stroke:#000;stroke-width:0.25mm;fill:none"><path d="M 0 95 L 0 105.5 L 2 105.5 L 2 114.375 L 4.95 114.375 L 4.95 113.125 L 7.6 113.125 L 7.6 114.375 L 10.25 114.375 L 10.25 117.625 L 7.6 117.625 L 7.6 118.875 L 4.95 118.875 L 4.95 117.625 L 2 117.625 L 2 126.5 L 0 126.5 L 0 147.5 L 2 147.5 L 2 156.375 L 4.95 156.375 L 4.95 155.125 L 7.6 155.125 L 7.6 156.375 L 10.25 156.375 L 10.25 159.625 L 7.6 159.625 L 7.6 160.875 L 4.95 160.875 L 4.95 159.625 L 2 159.625 L 2 168.5 L 0 168.5 L 0 179 L 14.75 179 L 14.75 177 L 27.875 177 L 27.875 174.05 L 26.625 174.05 L 26.625 171.4 L 27.875 171.4 L 27.875 168.75 L 31.125 168.75 L 31.125 171.4 L 32.375 171.4 L 32.375 174.05 L 31.125 174.05 L 31.125 177 L 44.25 177 L 44.25 179 L 73.75 179 L 73.75 177 L 86.875 177 L 86.875 174.05 L 85.625 174.05 L 85.625 171.4 L 86.875 171.4 L 86.875 168.75 L 90.125 168.75 L 90.125 171.4 L 91.375 171.4 L 91.375 174.05 L 90.125 174.05 L 90.125 177 L 103.25 177 L 103.25 179 L 118 179 L 118 168.5 L 116 168.5 L 116 159.625 L 113.05 159.625 L 113.05 160.875 L 110.4 160.875 L 110.4 159.625 L 107.75 159.625 L 107.75 156.375 L 110.4 156.375 L 110.4 155.125 L 113.05 155.125 L 113.05 156.375 L 116 156.375 L 116 147.5 L 118 147.5 L 118 126.5 L 116 126.5 L 116 117.625 L 113.05 117.625 L 113.05 118.875 L 110.4 118.875 L 110.4 117.625 L 107.75 117.625 L 107.75 114.375 L 110.4 114.375 L 110.4 113.125 L 113.05 113.125 L 113.05 114.375 L 116 114.375 L 116 105.5 L 118 105.5 L 118 95 L 103.25 95 L 103.25 97 L 90.125 97 L 90.125 99.95 L 91.375 99.95 L 91.375 102.6 L 90.125 102.6 L 90.125 105.25 L 86.875 105.25 L 86.875 102.6 L 85.625 102.6 L 85.625 99.95 L 86.875 99.95 L 86.875 97 L 73.75 97 L 73.75 95 L 44.25 95 L 44.25 97 L 31.125 97 L 31.125 99.95 L 32.375 99.95 L 32.375 102.6 L 31.125 102.6 L 31.125 105.25 L 27.875 105.25 L 27.875 102.6 L 26.625 102.6 L 26.625 99.95 L 27.875 99.95 L 27.875 97 L 14.75 97 L 14.75 95 L 0 95 Z" id="front_outsideCutPath" stroke="#FF0000" stroke-width="0.1" style="stroke:#FF0000;stroke-width:0.1" vector-effect="non-scaling-stroke"/><path d="M 71.243 143.345 L 69.881 143.345 L 69.881 137.529 A 3.849 3.849 0 0 0 69.837 136.925 Q 69.733 136.269 69.381 135.888 A 1.535 1.535 0 0 0 68.751 135.487 Q 68.504 135.399 68.2 135.367 A 3.61 3.61 0 0 0 67.814 135.347 A 4.121 4.121 0 0 0 67.043 135.414 Q 66.614 135.496 66.283 135.678 A 1.92 1.92 0 0 0 65.747 136.11 Q 65.091 136.873 65.091 138.628 L 65.091 143.345 L 63.729 143.345 L 63.729 134.354 L 64.837 134.354 L 65.058 135.585 L 65.124 135.585 A 2.757 2.757 0 0 1 66.204 134.602 A 3.315 3.315 0 0 1 66.297 134.555 A 3.687 3.687 0 0 1 67.609 134.205 A 4.459 4.459 0 0 1 67.978 134.19 Q 69.056 134.19 69.779 134.535 A 2.447 2.447 0 0 1 70.423 134.974 Q 71.243 135.757 71.243 137.48 L 71.243 143.345 Z M 45.083 134.354 L 45.083 135.413 L 42.795 135.413 L 42.795 143.345 L 41.433 143.345 L 41.433 135.413 L 39.825 135.413 L 39.825 134.797 L 41.433 134.305 L 41.433 133.805 Q 41.433 130.944 43.591 130.553 A 4.139 4.139 0 0 1 44.329 130.491 A 4.385 4.385 0 0 1 44.949 130.538 Q 45.251 130.581 45.587 130.664 A 8.815 8.815 0 0 1 46.002 130.778 L 45.649 131.869 Q 44.862 131.614 44.304 131.614 A 1.836 1.836 0 0 0 43.861 131.665 A 1.179 1.179 0 0 0 43.164 132.127 Q 42.795 132.64 42.795 133.772 L 42.795 134.354 L 45.083 134.354 Z M 78.175 142.221 L 78.175 143.263 A 1.339 1.339 0 0 1 78.016 143.326 Q 77.846 143.382 77.604 143.425 A 5.091 5.091 0 0 1 77.523 143.439 A 5.902 5.902 0 0 1 77.138 143.489 Q 76.93 143.509 76.747 143.509 A 3.557 3.557 0 0 1 75.699 143.368 Q 74.139 142.886 74.139 140.761 L 74.139 135.413 L 72.851 135.413 L 72.851 134.756 L 74.139 134.19 L 74.713 132.271 L 75.501 132.271 L 75.501 134.354 L 78.109 134.354 L 78.109 135.413 L 75.501 135.413 L 75.501 140.704 A 2.742 2.742 0 0 0 75.54 141.185 Q 75.587 141.449 75.691 141.658 A 1.321 1.321 0 0 0 75.886 141.95 A 1.265 1.265 0 0 0 76.664 142.364 A 1.82 1.82 0 0 0 76.944 142.385 A 4.472 4.472 0 0 0 77.599 142.338 A 4.127 4.127 0 0 0 77.642 142.332 Q 77.963 142.281 78.157 142.226 A 2.047 2.047 0 0 0 78.175 142.221 Z M 51.9 134.289 L 51.712 135.552 A 6.001 6.001 0 0 0 51.28 135.472 Q 51.065 135.441 50.873 135.432 A 3.194 3.194 0 0 0 50.727 135.429 A 2.359 2.359 0 0 0 48.984 136.182 A 3.228 3.228 0 0 0 48.861 136.315 A 3.11 3.11 0 0 0 48.111 138.061 A 4.133 4.133 0 0 0 48.086 138.522 L 48.086 143.345 L 46.724 143.345 L 46.724 134.354 L 47.848 134.354 L 48.004 136.02 L 48.069 136.02 A 4.599 4.599 0 0 1 48.584 135.285 A 3.513 3.513 0 0 1 49.275 134.666 A 2.715 2.715 0 0 1 50.826 134.19 A 6.251 6.251 0 0 1 51.385 134.214 A 4.563 4.563 0 0 1 51.9 134.289 Z M 60.235 142.274 A 3.799 3.799 0 0 0 60.687 141.653 Q 61.342 140.532 61.342 138.841 A 7.992 7.992 0 0 0 61.339 138.625 Q 61.319 137.877 61.157 137.241 A 4.24 4.24 0 0 0 60.23 135.445 A 3.565 3.565 0 0 0 58.576 134.378 A 4.576 4.576 0 0 0 57.232 134.19 A 5.289 5.289 0 0 0 56.282 134.272 A 3.602 3.602 0 0 0 54.181 135.417 Q 53.081 136.643 53.081 138.841 Q 53.081 140.261 53.59 141.319 A 4.476 4.476 0 0 0 53.689 141.513 A 3.687 3.687 0 0 0 55.034 142.943 A 3.792 3.792 0 0 0 55.904 143.33 A 4.373 4.373 0 0 0 57.175 143.509 A 5.288 5.288 0 0 0 58.098 143.432 A 3.63 3.63 0 0 0 60.235 142.274 Z M 54.492 138.841 A 6.896 6.896 0 0 0 54.558 139.827 Q 54.63 140.327 54.783 140.732 A 2.857 2.857 0 0 0 55.181 141.466 A 2.232 2.232 0 0 0 56.635 142.322 A 3.382 3.382 0 0 0 57.208 142.369 Q 58.545 142.369 59.238 141.471 A 2.923 2.923 0 0 0 59.693 140.584 Q 59.931 139.856 59.931 138.841 A 6.794 6.794 0 0 0 59.867 137.873 Q 59.796 137.38 59.646 136.981 A 2.804 2.804 0 0 0 59.238 136.237 A 2.24 2.24 0 0 0 57.845 135.406 A 3.434 3.434 0 0 0 57.191 135.347 A 3.241 3.241 0 0 0 56.384 135.441 A 2.169 2.169 0 0 0 55.173 136.225 Q 54.683 136.856 54.546 137.935 A 7.196 7.196 0 0 0 54.492 138.841 Z" id="front_labelLayer" stroke="#777777" fill="#777777" style="stroke:#777777;fill:#777777" vector-effect="non-scaling-stroke"/><path d="M 123 95 L 123 105.5 L 121 105.5 L 121 114.375 L 124.25 114.375 L 124.25 116 L 124.25 117.625 L 121 117.625 L 121 126.5 L 123 126.5 L 123 147.5 L 121 147.5 L 121 156.375 L 124.25 156.375 L 124.25 158 L 124.25 159.625 L 121 159.625 L 121 168.5 L 123 168.5 L 123 179 L 132 179 L 132 177 L 141.375 177 L 141.375 174.05 L 140.125 174.05 L 140.125 171.4 L 141.375 171.4 L 141.375 168.75 L 144.625 168.75 L 144.625 171.4 L 145.875 171.4 L 145.875 174.05 L 144.625 174.05 L 144.625 177 L 154 177 L 154 179 L 176 179 L 176 177 L 185.375 177 L 185.375 174.05 L 184.125 174.05 L 184.125 171.4 L 185.375 171.4 L 185.375 168.75 L 188.625 168.75 L 188.625 171.4 L 189.875 171.4 L 189.875 174.05 L 188.625 174.05 L 188.625 177 L 198 177 L 198 179 L 207 179 L 207 168.5 L 209 168.5 L 209 159.625 L 205.75 159.625 L 205.75 158 L 205.75 156.375 L 209 156.375 L 209 147.5 L 207 147.5 L 207 126.5 L 209 126.5 L 209 117.625 L 205.75 117.625 L 205.75 116 L 205.75 114.375 L 209 114.375 L 209 105.5 L 207 105.5 L 207 95 L 198 95 L 198 97 L 188.625 97 L 188.625 99.95 L 189.875 99.95 L 189.875 102.6 L 188.625 102.6 L 188.625 105.25 L 185.375 105.25 L 185.375 102.6 L 184.125 102.6 L 184.125 99.95 L 185.375 99.95 L 185.375 97 L 176 97 L 176 95 L 154 95 L 154 97 L 144.625 97 L 144.625 99.95 L 145.875 99.95 L 145.875 102.6 L 144.625 102.6 L 144.625 105.25 L 141.375 105.25 L 141.375 102.6 L 140.125 102.6 L 140.125 99.95 L 141.375 99.95 L 141.375 97 L 132 97 L 132 95 L 123 95 Z" id="left_outsideCutPath" stroke="#FF0000" stroke-width="0.1" style="stroke:#FF0000;stroke-width:0.1" vector-effect="non-scaling-stroke"/><path d="M 170.976 134.354 L 170.976 135.413 L 168.687 135.413 L 168.687 143.345 L 167.326 143.345 L 167.326 135.413 L 165.718 135.413 L 165.718 134.797 L 167.326 134.305 L 167.326 133.805 Q 167.326 130.944 169.484 130.553 A 4.139 4.139 0 0 1 170.221 130.491 A 4.385 4.385 0 0 1 170.842 130.538 Q 171.144 130.581 171.48 130.664 A 8.815 8.815 0 0 1 171.895 130.778 L 171.542 131.869 Q 170.754 131.614 170.197 131.614 A 1.836 1.836 0 0 0 169.754 131.665 A 1.179 1.179 0 0 0 169.056 132.127 Q 168.687 132.64 168.687 133.772 L 168.687 134.354 L 170.976 134.354 Z M 164.602 138.234 L 164.602 139.096 L 158.409 139.096 A 5.465 5.465 0 0 0 158.505 140.011 Q 158.603 140.509 158.8 140.903 A 2.557 2.557 0 0 0 159.209 141.499 Q 159.967 142.32 161.346 142.32 A 7.192 7.192 0 0 0 164.039 141.786 A 8.241 8.241 0 0 0 164.217 141.713 L 164.217 142.927 A 8.175 8.175 0 0 1 163.472 143.208 A 6.252 6.252 0 0 1 162.851 143.374 A 5.716 5.716 0 0 1 162.284 143.461 Q 162.004 143.491 161.689 143.502 A 11.095 11.095 0 0 1 161.296 143.509 Q 159.303 143.509 158.15 142.295 Q 157.064 141.151 157.002 139.169 A 7.779 7.779 0 0 1 156.998 138.923 A 7.15 7.15 0 0 1 157.13 137.505 Q 157.305 136.644 157.709 135.974 A 4.032 4.032 0 0 1 158.068 135.47 A 3.489 3.489 0 0 1 160.612 134.201 A 4.814 4.814 0 0 1 160.944 134.19 A 4.149 4.149 0 0 1 162.112 134.347 A 3.157 3.157 0 0 1 163.618 135.302 A 3.807 3.807 0 0 1 164.48 137.042 A 5.542 5.542 0 0 1 164.602 138.234 Z M 176.751 142.221 L 176.751 143.263 A 1.339 1.339 0 0 1 176.592 143.326 Q 176.423 143.382 176.18 143.425 A 5.091 5.091 0 0 1 176.099 143.439 A 5.902 5.902 0 0 1 175.714 143.489 Q 175.507 143.509 175.324 143.509 A 3.557 3.557 0 0 1 174.276 143.368 Q 172.715 142.886 172.715 140.761 L 172.715 135.413 L 171.427 135.413 L 171.427 134.756 L 172.715 134.19 L 173.289 132.271 L 174.077 132.271 L 174.077 134.354 L 176.685 134.354 L 176.685 135.413 L 174.077 135.413 L 174.077 140.704 A 2.742 2.742 0 0 0 174.116 141.185 Q 174.164 141.449 174.267 141.658 A 1.321 1.321 0 0 0 174.462 141.95 A 1.265 1.265 0 0 0 175.24 142.364 A 1.82 1.82 0 0 0 175.521 142.385 A 4.472 4.472 0 0 0 176.176 142.338 A 4.127 4.127 0 0 0 176.218 142.332 Q 176.539 142.281 176.733 142.226 A 2.047 2.047 0 0 0 176.751 142.221 Z M 154.611 130.581 L 154.611 143.345 L 153.249 143.345 L 153.249 130.581 L 154.611 130.581 Z M 158.442 137.988 L 163.142 137.988 Q 163.142 136.7 162.568 136.015 Q 161.994 135.33 160.927 135.33 A 2.684 2.684 0 0 0 160.152 135.437 A 2.074 2.074 0 0 0 159.2 136.036 A 2.69 2.69 0 0 0 158.666 136.938 Q 158.495 137.404 158.442 137.988 Z" id="left_labelLayer" stroke="#777777" fill="#777777" style="stroke:#777777;fill:#777777" vector-effect="non-scaling-stroke"/><path d="M 214 93 L 214 102 L 212 102 L 212 111.375 L 215.25 111.375 L 215.25 113 L 215.25 114.625 L 212 114.625 L 212 124 L 214 124 L 214 146 L 212 146 L 212 155.375 L 215.25 155.375 L 215.25 157 L 215.25 158.625 L 212 158.625 L 212 168 L 214 168 L 214 177 L 226.75 177 L 226.75 179 L 239.875 179 L 239.875 175.75 L 241.5 175.75 L 243.125 175.75 L 243.125 179 L 256.25 179 L 256.25 177 L 285.75 177 L 285.75 179 L 298.875 179 L 298.875 175.75 L 300.5 175.75 L 302.125 175.75 L 302.125 179 L 315.25 179 L 315.25 177 L 328 177 L 328 168 L 330 168 L 330 158.625 L 326.75 158.625 L 326.75 157 L 326.75 155.375 L 330 155.375 L 330 146 L 328 146 L 328 124 L 330 124 L 330 114.625 L 326.75 114.625 L 326.75 113 L 326.75 111.375 L 330 111.375 L 330 102 L 328 102 L 328 93 L 315.25 93 L 315.25 91 L 302.125 91 L 302.125 94.25 L 300.5 94.25 L 298.875 94.25 L 298.875 91 L 285.75 91 L 285.75 93 L 256.25 93 L 256.25 91 L 243.125 91 L 243.125 94.25 L 241.5 94.25 L 239.875 94.25 L 239.875 91 L 226.75 91 L 226.75 93 L 214 93 Z" id="top_outsideCutPath" stroke="#FF0000" stroke-width="0.1" style="stroke:#FF0000;stroke-width:0.1" vector-effect="non-scaling-stroke"/><path d="M 277.325 137.475 L 277.222 137.475 A 13.501 13.501 0 0 1 277.31 138.473 A 11.313 11.313 0 0 1 277.325 139.039 L 277.325 142.915 L 275.898 142.915 L 275.898 129.268 L 277.059 129.268 L 277.256 130.557 L 277.325 130.557 A 3.84 3.84 0 0 1 277.88 129.926 A 2.969 2.969 0 0 1 278.605 129.44 A 3.573 3.573 0 0 1 279.629 129.14 A 4.624 4.624 0 0 1 280.281 129.096 A 4.373 4.373 0 0 1 281.517 129.261 A 3.232 3.232 0 0 1 283.173 130.377 A 4.283 4.283 0 0 1 283.904 131.804 Q 284.093 132.419 284.157 133.159 A 9.289 9.289 0 0 1 284.191 133.969 A 8.364 8.364 0 0 1 284.081 135.376 Q 283.952 136.126 283.676 136.728 A 4.01 4.01 0 0 1 283.156 137.574 A 3.377 3.377 0 0 1 280.756 138.836 A 4.838 4.838 0 0 1 280.281 138.859 A 4.327 4.327 0 0 1 279.194 138.726 A 3.765 3.765 0 0 1 278.601 138.519 A 3.16 3.16 0 0 1 277.325 137.475 Z M 263.386 137.509 L 263.386 138.601 A 1.403 1.403 0 0 1 263.219 138.667 Q 263.013 138.735 262.703 138.786 A 6.183 6.183 0 0 1 262.3 138.838 Q 262.109 138.856 261.939 138.858 A 3.658 3.658 0 0 1 261.891 138.859 A 3.726 3.726 0 0 1 260.793 138.711 Q 259.586 138.338 259.27 137.027 A 4.484 4.484 0 0 1 259.158 135.98 L 259.158 130.377 L 257.809 130.377 L 257.809 129.689 L 259.158 129.096 L 259.759 127.085 L 260.584 127.085 L 260.584 129.268 L 263.317 129.268 L 263.317 130.377 L 260.584 130.377 L 260.584 135.92 A 2.873 2.873 0 0 0 260.626 136.424 Q 260.714 136.916 260.988 137.226 A 1.325 1.325 0 0 0 261.803 137.659 A 1.907 1.907 0 0 0 262.097 137.681 Q 262.475 137.681 262.827 137.625 Q 263.18 137.57 263.386 137.509 Z M 273.267 135.402 A 7.369 7.369 0 0 0 273.398 133.969 Q 273.398 133.053 273.204 132.292 A 4.442 4.442 0 0 0 272.233 130.411 A 3.735 3.735 0 0 0 270.499 129.293 A 4.794 4.794 0 0 0 269.092 129.096 A 5.541 5.541 0 0 0 268.097 129.181 A 3.773 3.773 0 0 0 265.895 130.381 A 3.941 3.941 0 0 0 265.411 131.052 Q 265.038 131.702 264.874 132.536 A 7.407 7.407 0 0 0 264.744 133.969 A 7.137 7.137 0 0 0 264.833 135.125 A 5.277 5.277 0 0 0 265.276 136.564 A 4.689 4.689 0 0 0 265.38 136.767 A 3.862 3.862 0 0 0 266.789 138.266 A 3.972 3.972 0 0 0 267.701 138.671 A 4.581 4.581 0 0 0 269.032 138.859 A 5.54 5.54 0 0 0 269.999 138.778 A 3.803 3.803 0 0 0 272.237 137.565 Q 273.008 136.706 273.267 135.402 Z M 266.526 135.949 A 2.993 2.993 0 0 0 266.944 136.719 A 2.338 2.338 0 0 0 268.466 137.616 A 3.543 3.543 0 0 0 269.066 137.664 Q 270.467 137.664 271.193 136.723 A 3.062 3.062 0 0 0 271.67 135.794 Q 271.919 135.031 271.919 133.969 Q 271.919 132.817 271.621 132.02 A 2.937 2.937 0 0 0 271.193 131.24 A 2.347 2.347 0 0 0 269.734 130.37 A 3.598 3.598 0 0 0 269.049 130.308 A 3.395 3.395 0 0 0 268.204 130.407 A 2.272 2.272 0 0 0 266.935 131.227 Q 266.422 131.889 266.278 133.019 A 7.538 7.538 0 0 0 266.222 133.969 Q 266.222 135.14 266.526 135.949 Z M 277.325 133.651 L 277.325 133.969 Q 277.325 135.954 277.987 136.809 Q 278.648 137.664 280.109 137.664 A 2.404 2.404 0 0 0 281.044 137.489 Q 281.621 137.248 282.021 136.676 Q 282.567 135.896 282.682 134.651 A 7.6 7.6 0 0 0 282.713 133.952 A 7.199 7.199 0 0 0 282.646 132.931 Q 282.571 132.413 282.415 131.993 A 3.024 3.024 0 0 0 282.021 131.249 A 2.219 2.219 0 0 0 280.398 130.324 A 3.069 3.069 0 0 0 280.075 130.308 A 4.11 4.11 0 0 0 279.307 130.375 Q 278.445 130.539 277.987 131.107 Q 277.383 131.855 277.33 133.432 A 9.08 9.08 0 0 0 277.325 133.651 Z" id="top_labelLayer" stroke="#777777" fill="#777777" style="stroke:#777777;fill:#777777" vector-effect="non-scaling-stroke"/><path d="M 0 8 L 0 18.5 L 2 18.5 L 2 27.375 L 4.95 27.375 L 4.95 26.125 L 7.6 26.125 L 7.6 27.375 L 10.25 27.375 L 10.25 30.625 L 7.6 30.625 L 7.6 31.875 L 4.95 31.875 L 4.95 30.625 L 2 30.625 L 2 39.5 L 0 39.5 L 0 60.5 L 2 60.5 L 2 69.375 L 4.95 69.375 L 4.95 68.125 L 7.6 68.125 L 7.6 69.375 L 10.25 69.375 L 10.25 72.625 L 7.6 72.625 L 7.6 73.875 L 4.95 73.875 L 4.95 72.625 L 2 72.625 L 2 81.5 L 0 81.5 L 0 92 L 14.75 92 L 14.75 90 L 27.875 90 L 27.875 87.05 L 26.625 87.05 L 26.625 84.4 L 27.875 84.4 L 27.875 81.75 L 31.125 81.75 L 31.125 84.4 L 32.375 84.4 L 32.375 87.05 L 31.125 87.05 L 31.125 90 L 44.25 90 L 44.25 92 L 73.75 92 L 73.75 90 L 86.875 90 L 86.875 87.05 L 85.625 87.05 L 85.625 84.4 L 86.875 84.4 L 86.875 81.75 L 90.125 81.75 L 90.125 84.4 L 91.375 84.4 L 91.375 87.05 L 90.125 87.05 L 90.125 90 L 103.25 90 L 103.25 92 L 118 92 L 118 81.5 L 116 81.5 L 116 72.625 L 113.05 72.625 L 113.05 73.875 L 110.4 73.875 L 110.4 72.625 L 107.75 72.625 L 107.75 69.375 L 110.4 69.375 L 110.4 68.125 L 113.05 68.125 L 113.05 69.375 L 116 69.375 L 116 60.5 L 118 60.5 L 118 39.5 L 116 39.5 L 116 30.625 L 113.05 30.625 L 113.05 31.875 L 110.4 31.875 L 110.4 30.625 L 107.75 30.625 L 107.75 27.375 L 110.4 27.375 L 110.4 26.125 L 113.05 26.125 L 113.05 27.375 L 116 27.375 L 116 18.5 L 118 18.5 L 118 8 L 103.25 8 L 103.25 10 L 90.125 10 L 90.125 12.95 L 91.375 12.95 L 91.375 15.6 L 90.125 15.6 L 90.125 18.25 L 86.875 18.25 L 86.875 15.6 L 85.625 15.6 L 85.625 12.95 L 86.875 12.95 L 86.875 10 L 73.75 10 L 73.75 8 L 44.25 8 L 44.25 10 L 31.125 10 L 31.125 12.95 L 32.375 12.95 L 32.375 15.6 L 31.125 15.6 L 31.125 18.25 L 27.875 18.25 L 27.875 15.6 L 26.625 15.6 L 26.625 12.95 L 27.875 12.95 L 27.875 10 L 14.75 10 L 14.75 8 L 0 8 Z" id="back_outsideCutPath" stroke="#FF0000" stroke-width="0.1" style="stroke:#FF0000;stroke-width:0.1" vector-effect="non-scaling-stroke"/><path d="M 70.501 51.698 L 70.566 51.698 Q 70.836 51.315 71.323 50.749 A 29.26 29.26 0 0 1 71.641 50.385 L 74.545 47.309 L 76.161 47.309 L 72.519 51.14 L 76.415 56.3 L 74.766 56.3 L 71.592 52.051 L 70.566 52.937 L 70.566 56.3 L 69.221 56.3 L 69.221 43.536 L 70.566 43.536 L 70.566 50.303 A 9.074 9.074 0 0 1 70.562 50.56 Q 70.55 50.99 70.501 51.698 Z M 42.946 55.143 L 42.848 55.143 L 42.561 56.3 L 41.585 56.3 L 41.585 43.536 L 42.946 43.536 L 42.946 46.637 A 28.391 28.391 0 0 1 42.931 47.596 Q 42.915 48.08 42.881 48.507 L 42.946 48.507 A 3.096 3.096 0 0 1 45.206 47.194 A 4.651 4.651 0 0 1 45.768 47.162 A 4.162 4.162 0 0 1 46.94 47.318 A 3.116 3.116 0 0 1 48.521 48.372 Q 49.305 49.341 49.462 50.954 A 8.74 8.74 0 0 1 49.501 51.796 Q 49.501 53.359 49.009 54.43 A 3.827 3.827 0 0 1 48.512 55.238 A 3.224 3.224 0 0 1 46.221 56.442 A 4.619 4.619 0 0 1 45.768 56.464 A 4.13 4.13 0 0 1 44.73 56.337 A 3.594 3.594 0 0 1 44.165 56.14 A 3.016 3.016 0 0 1 42.946 55.143 Z M 58.418 56.3 L 57.409 56.3 L 57.138 55.02 L 57.072 55.02 Q 56.4 55.865 55.731 56.165 A 3.14 3.14 0 0 1 55.082 56.369 Q 54.768 56.434 54.403 56.455 A 6.128 6.128 0 0 1 54.062 56.464 A 4.179 4.179 0 0 1 53.211 56.383 Q 52.692 56.275 52.293 56.023 A 2.345 2.345 0 0 1 51.966 55.775 A 2.238 2.238 0 0 1 51.291 54.594 A 3.426 3.426 0 0 1 51.207 53.814 A 2.356 2.356 0 0 1 52.547 51.591 Q 53.623 51.018 55.563 50.96 L 57.089 50.91 L 57.089 50.353 Q 57.089 49.706 56.919 49.266 A 1.52 1.52 0 0 0 56.633 48.79 Q 56.178 48.285 55.177 48.285 Q 54.054 48.285 52.634 48.975 L 52.216 47.933 A 6.278 6.278 0 0 1 53.428 47.435 A 7.146 7.146 0 0 1 53.672 47.367 A 6.306 6.306 0 0 1 55.259 47.162 Q 56.265 47.162 56.945 47.441 A 2.318 2.318 0 0 1 57.642 47.875 Q 58.418 48.589 58.418 50.164 L 58.418 56.3 Z M 67.22 47.613 L 66.801 48.769 A 6.058 6.058 0 0 0 66.144 48.551 A 7.235 7.235 0 0 0 65.817 48.47 Q 65.361 48.368 64.995 48.354 A 3.018 3.018 0 0 0 64.873 48.351 A 3.02 3.02 0 0 0 63.647 48.582 Q 62.361 49.148 62.168 51.108 A 7.524 7.524 0 0 0 62.134 51.846 Q 62.134 53.503 62.802 54.389 A 2.163 2.163 0 0 0 64.203 55.226 A 3.294 3.294 0 0 0 64.783 55.275 A 5.7 5.7 0 0 0 66.356 55.046 A 7.038 7.038 0 0 0 67.088 54.791 L 67.088 55.996 A 3.873 3.873 0 0 1 66.141 56.332 Q 65.703 56.429 65.194 56.455 A 7.468 7.468 0 0 1 64.816 56.464 Q 62.864 56.464 61.793 55.262 Q 60.868 54.224 60.743 52.443 A 8.234 8.234 0 0 1 60.723 51.862 A 7.513 7.513 0 0 1 60.839 50.496 Q 60.98 49.734 61.292 49.133 A 3.754 3.754 0 0 1 61.81 48.376 A 3.526 3.526 0 0 1 63.74 47.265 A 5.345 5.345 0 0 1 64.906 47.145 A 6.145 6.145 0 0 1 66.202 47.285 A 6.797 6.797 0 0 1 66.58 47.377 Q 66.96 47.481 67.211 47.609 A 2.027 2.027 0 0 1 67.22 47.613 Z M 44.088 48.64 A 1.811 1.811 0 0 0 43.562 49.102 A 2.331 2.331 0 0 0 43.224 49.744 Q 42.997 50.383 42.956 51.353 A 10.491 10.491 0 0 0 42.946 51.796 Q 42.946 53.406 43.402 54.237 A 2.054 2.054 0 0 0 43.578 54.508 A 1.975 1.975 0 0 0 44.58 55.184 Q 44.915 55.289 45.324 55.315 A 4.378 4.378 0 0 0 45.604 55.324 A 2.715 2.715 0 0 0 46.375 55.221 A 1.958 1.958 0 0 0 47.475 54.409 A 3.126 3.126 0 0 0 47.861 53.572 Q 47.983 53.175 48.04 52.694 A 7.803 7.803 0 0 0 48.09 51.78 A 8.045 8.045 0 0 0 48.041 50.863 Q 47.917 49.782 47.475 49.163 A 1.986 1.986 0 0 0 46.21 48.363 A 3.149 3.149 0 0 0 45.571 48.302 Q 44.665 48.302 44.088 48.64 Z M 57.056 52.691 L 57.056 51.878 L 55.694 51.936 A 9.999 9.999 0 0 0 54.895 51.994 Q 54.107 52.085 53.614 52.303 A 2.091 2.091 0 0 0 53.352 52.44 A 1.453 1.453 0 0 0 52.66 53.494 A 2.151 2.151 0 0 0 52.634 53.831 A 1.946 1.946 0 0 0 52.683 54.277 Q 52.781 54.696 53.081 54.955 Q 53.468 55.288 54.12 55.333 A 3.063 3.063 0 0 0 54.332 55.34 A 3.749 3.749 0 0 0 55.142 55.258 Q 55.706 55.133 56.123 54.819 A 2.273 2.273 0 0 0 56.33 54.643 Q 57.052 53.949 57.056 52.704 A 4.305 4.305 0 0 0 57.056 52.691 Z" id="back_labelLayer" stroke="#777777" fill="#777777" style="stroke:#777777;fill:#777777" vector-effect="non-scaling-stroke"/><path d="M 123 8 L 123 18.5 L 121 18.5 L 121 27.375 L 124.25 27.375 L 124.25 29 L 124.25 30.625 L 121 30.625 L 121 39.5 L 123 39.5 L 123 60.5 L 121 60.5 L 121 69.375 L 124.25 69.375 L 124.25 71 L 124.25 72.625 L 121 72.625 L 121 81.5 L 123 81.5 L 123 92 L 132 92 L 132 90 L 141.375 90 L 141.375 87.05 L 140.125 87.05 L 140.125 84.4 L 141.375 84.4 L 141.375 81.75 L 144.625 81.75 L 144.625 84.4 L 145.875 84.4 L 145.875 87.05 L 144.625 87.05 L 144.625 90 L 154 90 L 154 92 L 176 92 L 176 90 L 185.375 90 L 185.375 87.05 L 184.125 87.05 L 184.125 84.4 L 185.375 84.4 L 185.375 81.75 L 188.625 81.75 L 188.625 84.4 L 189.875 84.4 L 189.875 87.05 L 188.625 87.05 L 188.625 90 L 198 90 L 198 92 L 207 92 L 207 81.5 L 209 81.5 L 209 72.625 L 205.75 72.625 L 205.75 71 L 205.75 69.375 L 209 69.375 L 209 60.5 L 207 60.5 L 207 39.5 L 209 39.5 L 209 30.625 L 205.75 30.625 L 205.75 29 L 205.75 27.375 L 209 27.375 L 209 18.5 L 207 18.5 L 207 8 L 198 8 L 198 10 L 188.625 10 L 188.625 12.95 L 189.875 12.95 L 189.875 15.6 L 188.625 15.6 L 188.625 18.25 L 185.375 18.25 L 185.375 15.6 L 184.125 15.6 L 184.125 12.95 L 185.375 12.95 L 185.375 10 L 176 10 L 176 8 L 154 8 L 154 10 L 144.625 10 L 144.625 12.95 L 145.875 12.95 L 145.875 15.6 L 144.625 15.6 L 144.625 18.25 L 141.375 18.25 L 141.375 15.6 L 140.125 15.6 L 140.125 12.95 L 141.375 12.95 L 141.375 10 L 132 10 L 132 8 L 123 8 Z" id="right_outsideCutPath" stroke="#FF0000" stroke-width="0.1" style="stroke:#FF0000;stroke-width:0.1" vector-effect="non-scaling-stroke"/><path d="M 175.447 54.364 L 174.085 54.364 L 174.085 48.548 A 3.849 3.849 0 0 0 174.041 47.944 Q 173.936 47.288 173.585 46.907 A 1.535 1.535 0 0 0 172.955 46.506 Q 172.708 46.418 172.403 46.386 A 3.61 3.61 0 0 0 172.018 46.366 A 4.121 4.121 0 0 0 171.247 46.433 Q 170.82 46.514 170.491 46.695 A 1.906 1.906 0 0 0 169.946 47.137 Q 169.35 47.842 169.299 49.37 A 8.788 8.788 0 0 0 169.294 49.664 L 169.294 54.364 L 167.933 54.364 L 167.933 41.6 L 169.294 41.6 L 169.294 45.464 Q 169.294 46.161 169.229 46.62 L 169.311 46.62 A 2.721 2.721 0 0 1 170.264 45.703 A 3.324 3.324 0 0 1 170.455 45.599 A 3.496 3.496 0 0 1 171.602 45.259 A 4.419 4.419 0 0 1 172.149 45.226 Q 173.798 45.226 174.622 46.009 A 2.371 2.371 0 0 1 175.207 46.927 Q 175.347 47.309 175.406 47.783 A 5.888 5.888 0 0 1 175.447 48.499 L 175.447 54.364 Z M 162.978 45.373 L 166.087 45.373 L 166.087 46.235 L 164.422 46.432 A 2.213 2.213 0 0 1 164.613 46.717 Q 164.697 46.864 164.774 47.04 A 4.198 4.198 0 0 1 164.832 47.182 A 2.62 2.62 0 0 1 164.987 47.808 A 3.364 3.364 0 0 1 165.012 48.228 A 3.122 3.122 0 0 1 164.869 49.196 A 2.525 2.525 0 0 1 164.11 50.336 A 3.02 3.02 0 0 1 162.922 50.962 Q 162.472 51.088 161.938 51.116 A 5.914 5.914 0 0 1 161.633 51.124 A 4.376 4.376 0 0 1 161.126 51.096 A 3.696 3.696 0 0 1 160.878 51.058 A 2.423 2.423 0 0 0 160.487 51.311 Q 160.008 51.697 160.008 52.215 Q 160.008 52.573 160.294 52.749 A 0.756 0.756 0 0 0 160.312 52.76 Q 160.556 52.902 161.083 52.93 A 5.18 5.18 0 0 0 161.354 52.937 L 162.945 52.937 A 5.574 5.574 0 0 1 163.792 52.997 Q 164.234 53.065 164.592 53.21 A 2.461 2.461 0 0 1 165.189 53.552 Q 165.972 54.167 165.972 55.34 A 2.948 2.948 0 0 1 165.804 56.36 Q 165.523 57.127 164.774 57.617 A 4.084 4.084 0 0 1 163.722 58.094 Q 162.715 58.4 161.28 58.4 A 7.629 7.629 0 0 1 160.256 58.336 Q 159.737 58.265 159.313 58.117 A 3.165 3.165 0 0 1 158.561 57.744 A 2.17 2.17 0 0 1 157.861 56.985 Q 157.605 56.51 157.605 55.89 Q 157.605 55.069 158.13 54.471 A 2.378 2.378 0 0 1 158.947 53.876 A 3.37 3.37 0 0 1 159.606 53.659 A 1.413 1.413 0 0 1 159.058 53.215 A 1.678 1.678 0 0 1 159.028 53.175 A 1.262 1.262 0 0 1 158.796 52.492 A 1.564 1.564 0 0 1 158.794 52.412 A 1.557 1.557 0 0 1 158.873 51.91 A 1.38 1.38 0 0 1 159.057 51.55 Q 159.319 51.181 159.885 50.837 A 2.387 2.387 0 0 1 158.848 50.006 A 2.959 2.959 0 0 1 158.749 49.86 A 2.815 2.815 0 0 1 158.317 48.504 A 3.436 3.436 0 0 1 158.31 48.285 A 3.934 3.934 0 0 1 158.414 47.355 A 2.588 2.588 0 0 1 159.196 46.009 Q 160.082 45.209 161.706 45.209 Q 162.412 45.209 162.978 45.373 Z M 182.378 53.24 L 182.378 54.282 A 1.339 1.339 0 0 1 182.219 54.345 Q 182.05 54.401 181.807 54.445 A 5.091 5.091 0 0 1 181.726 54.458 A 5.902 5.902 0 0 1 181.341 54.508 Q 181.134 54.528 180.951 54.528 A 3.557 3.557 0 0 1 179.903 54.387 Q 178.342 53.905 178.342 51.78 L 178.342 46.432 L 177.054 46.432 L 177.054 45.775 L 178.342 45.209 L 178.917 43.29 L 179.704 43.29 L 179.704 45.373 L 182.313 45.373 L 182.313 46.432 L 179.704 46.432 L 179.704 51.723 A 2.742 2.742 0 0 0 179.744 52.204 Q 179.791 52.468 179.894 52.678 A 1.321 1.321 0 0 0 180.09 52.969 A 1.265 1.265 0 0 0 180.867 53.383 A 1.82 1.82 0 0 0 181.148 53.404 A 4.472 4.472 0 0 0 181.803 53.357 A 4.127 4.127 0 0 0 181.845 53.351 Q 182.166 53.3 182.36 53.245 A 2.047 2.047 0 0 0 182.378 53.24 Z M 152.798 45.308 L 152.609 46.571 A 6.001 6.001 0 0 0 152.178 46.491 Q 151.962 46.46 151.771 46.451 A 3.194 3.194 0 0 0 151.625 46.448 A 2.359 2.359 0 0 0 149.882 47.201 A 3.228 3.228 0 0 0 149.759 47.334 A 3.11 3.11 0 0 0 149.008 49.08 A 4.133 4.133 0 0 0 148.983 49.541 L 148.983 54.364 L 147.622 54.364 L 147.622 45.373 L 148.746 45.373 L 148.901 47.039 L 148.967 47.039 A 4.599 4.599 0 0 1 149.481 46.304 A 3.513 3.513 0 0 1 150.173 45.685 A 2.715 2.715 0 0 1 151.723 45.209 A 6.251 6.251 0 0 1 152.283 45.233 A 4.563 4.563 0 0 1 152.798 45.308 Z M 155.841 45.373 L 155.841 54.364 L 154.479 54.364 L 154.479 45.373 L 155.841 45.373 Z M 162.51 54.159 L 160.878 54.159 A 3.13 3.13 0 0 0 160.314 54.207 Q 159.781 54.304 159.434 54.602 A 1.435 1.435 0 0 0 158.963 55.415 A 2.179 2.179 0 0 0 158.917 55.873 Q 158.917 56.603 159.533 56.981 A 2.181 2.181 0 0 0 160.069 57.211 Q 160.579 57.358 161.296 57.358 Q 163.011 57.358 163.835 56.845 A 1.986 1.986 0 0 0 164.296 56.46 A 1.489 1.489 0 0 0 164.66 55.455 A 1.842 1.842 0 0 0 164.626 55.089 Q 164.583 54.879 164.486 54.722 A 0.858 0.858 0 0 0 164.208 54.442 A 1.292 1.292 0 0 0 163.902 54.308 Q 163.576 54.208 163.06 54.175 A 8.664 8.664 0 0 0 162.51 54.159 Z M 159.656 48.253 A 2.658 2.658 0 0 0 159.71 48.81 Q 159.826 49.351 160.189 49.68 A 1.76 1.76 0 0 0 160.897 50.065 Q 161.167 50.142 161.489 50.159 A 3.506 3.506 0 0 0 161.674 50.164 Q 163.247 50.164 163.579 48.958 A 2.758 2.758 0 0 0 163.667 48.228 Q 163.667 46.202 161.649 46.202 Q 160.689 46.202 160.172 46.719 A 1.634 1.634 0 0 0 159.777 47.385 Q 159.656 47.76 159.656 48.253 Z M 154.384 42.688 A 1.509 1.509 0 0 0 154.365 42.937 A 1.608 1.608 0 0 0 154.372 43.091 Q 154.385 43.228 154.423 43.341 A 0.703 0.703 0 0 0 154.594 43.622 A 0.764 0.764 0 0 0 154.871 43.798 A 0.865 0.865 0 0 0 155.169 43.848 A 0.794 0.794 0 0 0 155.735 43.622 A 0.665 0.665 0 0 0 155.864 43.45 Q 155.924 43.339 155.95 43.195 A 1.409 1.409 0 0 0 155.972 42.937 A 1.558 1.558 0 0 0 155.966 42.79 Q 155.953 42.655 155.916 42.545 A 0.688 0.688 0 0 0 155.735 42.256 A 0.802 0.802 0 0 0 155.169 42.035 A 1.039 1.039 0 0 0 155.1 42.037 A 0.787 0.787 0 0 0 154.594 42.252 A 0.637 0.637 0 0 0 154.454 42.452 Q 154.406 42.556 154.384 42.688 Z" id="right_labelLayer" stroke="#777777" fill="#777777" style="stroke:#777777;fill:#777777" vector-effect="non-scaling-stroke"/><path d="M 214 2 L 214 11 L 212 11 L 212 20.375 L 215.25 20.375 L 215.25 22 L 215.25 23.625 L 212 23.625 L 212 33 L 214 33 L 214 55 L 212 55 L 212 64.375 L 215.25 64.375 L 215.25 66 L 215.25 67.625 L 212 67.625 L 212 77 L 214 77 L 214 86 L 226.75 86 L 226.75 88 L 239.875 88 L 239.875 84.75 L 241.5 84.75 L 243.125 84.75 L 243.125 88 L 256.25 88 L 256.25 86 L 285.75 86 L 285.75 88 L 298.875 88 L 298.875 84.75 L 300.5 84.75 L 302.125 84.75 L 302.125 88 L 315.25 88 L 315.25 86 L 328 86 L 328 77 L 330 77 L 330 67.625 L 326.75 67.625 L 326.75 66 L 326.75 64.375 L 330 64.375 L 330 55 L 328 55 L 328 33 L 330 33 L 330 23.625 L 326.75 23.625 L 326.75 22 L 326.75 20.375 L 330 20.375 L 330 11 L 328 11 L 328 2 L 315.25 2 L 315.25 0 L 302.125 0 L 302.125 3.25 L 300.5 3.25 L 298.875 3.25 L 298.875 0 L 285.75 0 L 285.75 2 L 256.25 2 L 256.25 0 L 243.125 0 L 243.125 3.25 L 241.5 3.25 L 239.875 3.25 L 239.875 0 L 226.75 0 L 226.75 2 L 214 2 Z" id="bottom_outsideCutPath" stroke="#FF0000" stroke-width="0.1" style="stroke:#FF0000;stroke-width:0.1" vector-effect="non-scaling-stroke"/><path d="M 299.952 50.6 L 298.526 50.6 L 298.526 44.472 A 4.208 4.208 0 0 0 298.483 43.854 Q 298.436 43.538 298.337 43.283 A 1.724 1.724 0 0 0 298.044 42.784 Q 297.624 42.291 296.795 42.23 A 3.311 3.311 0 0 0 296.549 42.221 Q 295.217 42.221 294.581 42.986 Q 293.948 43.747 293.945 45.326 A 7.878 7.878 0 0 0 293.945 45.34 L 293.945 50.6 L 292.519 50.6 L 292.519 44.472 A 4.208 4.208 0 0 0 292.476 43.854 Q 292.429 43.538 292.33 43.283 A 1.724 1.724 0 0 0 292.037 42.784 A 1.496 1.496 0 0 0 291.349 42.336 Q 291.102 42.255 290.799 42.231 A 3.341 3.341 0 0 0 290.534 42.221 Q 289.193 42.221 288.57 43.024 Q 288.005 43.753 287.952 45.324 A 9.932 9.932 0 0 0 287.947 45.658 L 287.947 50.6 L 286.52 50.6 L 286.52 41.181 L 287.68 41.181 L 287.912 42.47 L 287.981 42.47 Q 288.385 41.783 289.12 41.396 A 3.387 3.387 0 0 1 290.458 41.021 A 4.091 4.091 0 0 1 290.766 41.009 A 4.671 4.671 0 0 1 291.817 41.119 Q 292.464 41.268 292.915 41.622 A 2.435 2.435 0 0 1 293.653 42.608 L 293.722 42.608 A 2.979 2.979 0 0 1 294.844 41.494 A 3.579 3.579 0 0 1 294.942 41.439 A 3.611 3.611 0 0 1 296.267 41.036 A 4.502 4.502 0 0 1 296.764 41.009 A 4.959 4.959 0 0 1 297.663 41.085 Q 298.163 41.178 298.554 41.382 A 2.351 2.351 0 0 1 299.157 41.83 A 2.457 2.457 0 0 1 299.685 42.693 Q 299.827 43.073 299.894 43.547 A 6.543 6.543 0 0 1 299.952 44.455 L 299.952 50.6 Z M 243.474 49.388 L 243.371 49.388 L 243.07 50.6 L 242.048 50.6 L 242.048 37.228 L 243.474 37.228 L 243.474 40.476 A 29.743 29.743 0 0 1 243.458 41.481 Q 243.441 41.988 243.405 42.436 L 243.474 42.436 Q 244.471 41.026 246.43 41.026 A 4.36 4.36 0 0 1 247.658 41.19 A 3.264 3.264 0 0 1 249.314 42.294 A 4.204 4.204 0 0 1 250.051 43.714 Q 250.341 44.649 250.341 45.882 A 8.364 8.364 0 0 1 250.23 47.289 Q 250.102 48.039 249.825 48.641 A 4.01 4.01 0 0 1 249.305 49.487 A 3.377 3.377 0 0 1 246.905 50.749 A 4.838 4.838 0 0 1 246.43 50.772 A 4.327 4.327 0 0 1 245.343 50.639 A 3.765 3.765 0 0 1 244.75 50.432 A 3.16 3.16 0 0 1 243.474 49.388 Z M 267.794 49.422 L 267.794 50.514 A 1.403 1.403 0 0 1 267.628 50.58 Q 267.421 50.648 267.111 50.699 A 6.183 6.183 0 0 1 266.708 50.751 Q 266.518 50.769 266.348 50.771 A 3.658 3.658 0 0 1 266.299 50.772 A 3.726 3.726 0 0 1 265.201 50.624 Q 263.994 50.251 263.678 48.94 A 4.484 4.484 0 0 1 263.566 47.893 L 263.566 42.29 L 262.217 42.29 L 262.217 41.602 L 263.566 41.009 L 264.168 38.998 L 264.993 38.998 L 264.993 41.181 L 267.726 41.181 L 267.726 42.29 L 264.993 42.29 L 264.993 47.833 A 2.873 2.873 0 0 0 265.034 48.337 Q 265.122 48.829 265.397 49.139 A 1.325 1.325 0 0 0 266.212 49.573 A 1.907 1.907 0 0 0 266.505 49.594 Q 266.884 49.594 267.236 49.538 Q 267.588 49.483 267.794 49.422 Z M 274.008 49.422 L 274.008 50.514 A 1.403 1.403 0 0 1 273.841 50.58 Q 273.635 50.648 273.325 50.699 A 6.183 6.183 0 0 1 272.921 50.751 Q 272.731 50.769 272.561 50.771 A 3.658 3.658 0 0 1 272.512 50.772 A 3.726 3.726 0 0 1 271.414 50.624 Q 270.207 50.251 269.892 48.94 A 4.484 4.484 0 0 1 269.78 47.893 L 269.78 42.29 L 268.43 42.29 L 268.43 41.602 L 269.78 41.009 L 270.381 38.998 L 271.206 38.998 L 271.206 41.181 L 273.939 41.181 L 273.939 42.29 L 271.206 42.29 L 271.206 47.833 A 2.873 2.873 0 0 0 271.248 48.337 Q 271.336 48.829 271.61 49.139 A 1.325 1.325 0 0 0 272.425 49.573 A 1.907 1.907 0 0 0 272.719 49.594 Q 273.097 49.594 273.449 49.538 Q 273.802 49.483 274.008 49.422 Z M 260.832 47.315 A 7.369 7.369 0 0 0 260.962 45.882 Q 260.962 44.966 260.768 44.205 A 4.442 4.442 0 0 0 259.798 42.324 A 3.735 3.735 0 0 0 258.064 41.206 A 4.794 4.794 0 0 0 256.657 41.009 A 5.541 5.541 0 0 0 255.662 41.095 A 3.773 3.773 0 0 0 253.46 42.294 A 3.941 3.941 0 0 0 252.976 42.965 Q 252.603 43.615 252.439 44.449 A 7.407 7.407 0 0 0 252.309 45.882 A 7.137 7.137 0 0 0 252.398 47.038 A 5.277 5.277 0 0 0 252.841 48.477 A 4.689 4.689 0 0 0 252.945 48.68 A 3.862 3.862 0 0 0 254.354 50.179 A 3.972 3.972 0 0 0 255.266 50.584 A 4.581 4.581 0 0 0 256.597 50.772 A 5.54 5.54 0 0 0 257.564 50.691 A 3.803 3.803 0 0 0 259.802 49.478 Q 260.573 48.619 260.832 47.315 Z M 283.889 47.315 A 7.369 7.369 0 0 0 284.019 45.882 Q 284.019 44.966 283.825 44.205 A 4.442 4.442 0 0 0 282.855 42.324 A 3.735 3.735 0 0 0 281.121 41.206 A 4.794 4.794 0 0 0 279.714 41.009 A 5.541 5.541 0 0 0 278.719 41.095 A 3.773 3.773 0 0 0 276.517 42.294 A 3.941 3.941 0 0 0 276.033 42.965 Q 275.66 43.615 275.496 44.449 A 7.407 7.407 0 0 0 275.366 45.882 A 7.137 7.137 0 0 0 275.455 47.038 A 5.277 5.277 0 0 0 275.898 48.477 A 4.689 4.689 0 0 0 276.002 48.68 A 3.862 3.862 0 0 0 277.411 50.179 A 3.972 3.972 0 0 0 278.323 50.584 A 4.581 4.581 0 0 0 279.654 50.772 A 5.54 5.54 0 0 0 280.621 50.691 A 3.803 3.803 0 0 0 282.859 49.478 Q 283.63 48.619 283.889 47.315 Z M 254.091 47.862 A 2.993 2.993 0 0 0 254.509 48.632 A 2.338 2.338 0 0 0 256.031 49.529 A 3.543 3.543 0 0 0 256.631 49.577 Q 258.032 49.577 258.758 48.636 A 3.062 3.062 0 0 0 259.235 47.707 Q 259.484 46.944 259.484 45.882 Q 259.484 44.73 259.186 43.933 A 2.937 2.937 0 0 0 258.758 43.153 A 2.347 2.347 0 0 0 257.299 42.283 A 3.598 3.598 0 0 0 256.614 42.221 A 3.395 3.395 0 0 0 255.769 42.32 A 2.272 2.272 0 0 0 254.5 43.14 Q 253.987 43.802 253.843 44.932 A 7.538 7.538 0 0 0 253.787 45.882 Q 253.787 47.053 254.091 47.862 Z M 277.148 47.862 A 2.993 2.993 0 0 0 277.566 48.632 A 2.338 2.338 0 0 0 279.088 49.529 A 3.543 3.543 0 0 0 279.688 49.577 Q 281.089 49.577 281.815 48.636 A 3.062 3.062 0 0 0 282.292 47.707 Q 282.541 46.944 282.541 45.882 Q 282.541 44.73 282.243 43.933 A 2.937 2.937 0 0 0 281.815 43.153 A 2.347 2.347 0 0 0 280.356 42.283 A 3.598 3.598 0 0 0 279.671 42.221 A 3.395 3.395 0 0 0 278.826 42.32 A 2.272 2.272 0 0 0 277.557 43.14 Q 277.044 43.802 276.9 44.932 A 7.538 7.538 0 0 0 276.844 45.882 Q 276.844 47.053 277.148 47.862 Z M 246.224 42.221 A 4.009 4.009 0 0 0 245.448 42.291 Q 245.006 42.378 244.67 42.575 A 1.897 1.897 0 0 0 244.119 43.059 Q 243.474 43.897 243.474 45.882 Q 243.474 47.867 244.136 48.722 Q 244.798 49.577 246.259 49.577 Q 247.573 49.577 248.218 48.619 A 3.275 3.275 0 0 0 248.623 47.742 Q 248.75 47.326 248.81 46.822 A 8.174 8.174 0 0 0 248.862 45.865 A 8.428 8.428 0 0 0 248.811 44.904 Q 248.681 43.772 248.218 43.123 Q 247.573 42.221 246.224 42.221 Z" id="bottom_labelLayer" stroke="#777777" fill="#777777" style="stroke:#777777;fill:#777777" vector-effect="non-scaling-stroke"/></g></svg>